<svg width="897" height="893" viewBox="0 0 897 893" fill="none" xmlns="http://www.w3.org/2000/svg">
<g id="black-cartel 1" clip-path="url(#clip0_1_2)">
<path id="main-background" d="M257 894C172.641 894 88.2817 894 3.46253 893.544C3.0017 595.725 3.00085 298.363 3 1C301.251 1 599.502 1 898 1C898 212.026 898 423.052 897.531 634.539C834.921 635 772.778 635 711.167 635C709.559 631.921 713.905 627.561 707.955 626.552C707.645 609.73 707.333 593.366 707.387 576.992C712.153 575.115 708.656 573.255 707.974 570.585C706.652 572.096 705.827 573.039 704.533 573.986C685.377 573.991 666.69 573.992 648.001 573.574C647.117 569.961 649.179 564.968 643.011 564.529C643.005 548.462 643.032 532.864 642.972 517.266C642.965 515.506 642.469 513.748 642.12 511.761C642.041 511.532 642.002 511.05 642.005 510.779C641.982 510.328 641.955 510.149 642.006 510.008C642.085 510.047 642.256 510.01 642.479 509.667C642.788 489.817 642.88 470.311 642.927 450.805C642.929 450.208 642.457 449.611 642.14 448.731C642.029 448.259 641.984 448.071 641.967 447.641C641.996 447.4 642.185 446.954 642.431 446.627C642.77 426.457 642.869 406.613 642.92 386.769C642.922 386.182 642.417 385.594 642.072 384.684C641.651 383.852 641.307 383.341 640.638 382.579C621.143 382.233 601.973 382.132 582.803 382.077C582.211 382.076 581.618 382.561 580.701 382.894C579.934 382.964 579.492 382.958 579.06 382.962C579.072 382.973 579.085 382.937 579.042 382.701C578.999 382.464 578.836 382.012 578.804 381.683C578.568 380.548 578.365 379.743 578.419 378.62C578.771 359.804 578.874 341.307 578.928 322.809C578.93 322.221 578.435 321.632 578.093 320.714C577.652 319.855 577.289 319.326 576.603 318.551C575.459 318.203 574.639 318.01 573.819 318.01C491.663 317.996 409.506 317.993 327.35 318.031C325.918 318.032 324.487 318.539 322.807 318.889C322.388 319.003 322.218 319.038 321.763 318.974C321.316 320.478 321.014 322.081 321.011 323.684C320.976 341.346 320.876 359.01 321.068 376.67C321.113 380.73 320.053 382.148 315.796 382.09C298.969 381.863 282.138 381.971 265.309 382.032C263.548 382.038 261.788 382.559 259.701 382.908C258.932 383.019 258.49 383.064 257.77 383C257.325 383.989 257.016 385.088 257.016 386.186C256.997 428.455 257.006 470.724 257.005 513.462C256.997 532.08 256.882 550.229 257.074 568.375C257.121 572.804 255.566 574.123 251.263 574.074C234.616 573.885 217.965 573.973 201.315 574.034C199.552 574.04 197.79 574.55 195.705 574.907C194.854 575.31 194.326 575.633 193.556 576.295C193.209 577.285 193.012 577.936 193.011 578.587C192.995 618.467 192.986 658.346 193.027 698.226C193.028 699.484 193.548 700.742 193.948 702.269C194.395 702.755 194.72 702.97 195.124 703.496C213.768 703.871 232.335 704.088 250.898 703.898C255.824 703.847 257.148 705.55 257.084 710.258C256.854 727.075 256.968 743.897 257.029 760.718C257.035 762.479 257.548 764.239 257.948 766.27C258.395 766.755 258.72 766.97 259.124 767.496C279.855 767.848 300.508 767.89 321.38 768.131C321.71 768.896 321.822 769.463 321.663 770.339C321.263 772.457 321.025 774.267 321.022 776.077C320.992 791.708 321.009 807.339 321.003 822.97C321 829.982 320.991 829.993 314.197 829.995C297.568 830.003 280.939 829.975 264.311 830.034C262.545 830.041 260.782 830.535 258.754 830.926C258.259 831.351 258.028 831.653 257.555 832.295C257.209 853.089 257.105 873.545 257 894Z" fill="#D8BD62"/>
<path id="background" d="M898 640C898 724.602 898 809.204 898 894C791.646 894 685.292 894 578.469 893.531C578 874.449 578.022 855.835 577.965 837.222C577.96 835.465 577.455 833.711 577.129 831.741C577.076 831.527 576.995 831.094 577.248 830.894C577.738 830.104 577.975 829.515 578.451 828.598C578.779 808.804 578.874 789.337 578.923 769.87C578.925 769.271 578.454 768.67 578.125 767.819C578.028 767.393 578.009 767.219 578.039 766.781C578.141 766.348 578.194 766.178 578.547 765.91C578.898 763.557 578.995 761.303 578.996 759.049C579.006 719.083 579.004 679.118 579.347 639.106C580.149 639.097 580.607 639.135 581.386 639.421C582.524 639.779 583.342 639.985 584.161 639.985C623.151 640 662.142 640.005 701.133 639.963C702.397 639.962 703.661 639.457 705.194 639.107C705.638 638.956 705.812 638.885 706.27 638.887C706.738 639.026 706.922 639.092 707.411 639.419C709.533 639.789 711.349 639.992 713.166 639.992C774.777 640.007 836.389 640.002 898 640ZM770.012 767.918C770.008 787.225 770.076 806.534 769.938 825.841C769.911 829.488 770.558 831.159 774.804 831.104C792.944 830.868 811.089 830.913 829.231 831.077C832.916 831.11 834.113 830.076 834.076 826.296C833.9 808.155 833.87 790.01 834.101 771.87C834.154 767.7 832.641 766.901 828.897 766.931C809.258 767.087 789.616 767.016 769.996 766.084C769.999 746.776 769.926 727.467 770.068 708.16C770.096 704.487 769.42 702.847 765.187 702.902C747.047 703.134 728.902 703.093 710.761 702.925C707.059 702.891 705.892 703.954 705.927 707.711C706.1 725.852 706.131 743.998 705.904 762.138C705.852 766.294 707.358 767.104 711.102 767.074C730.741 766.915 750.383 766.985 770.012 767.918Z" fill="#647392"/>
<path id="chest" d="M321.934 770.03C321.822 769.463 321.71 768.896 321.374 767.955C321.15 767.58 321.1 767.23 321.414 767.169C322.143 767.021 322.559 766.935 323.442 766.914C344.505 766.979 365.102 766.979 385.74 766.979C385.74 788.615 385.74 809.646 385.74 830.97C428.09 830.97 470.558 830.97 513.059 831.157C513.092 831.343 513.085 831.722 513.057 832.209C513.02 853.13 513.01 873.565 513 894C449.646 894 386.292 894 322.467 893.531C321.951 873.041 321.905 853.018 321.935 832.693C321.985 831.974 321.958 831.559 321.968 830.667C321.98 810.137 321.957 790.083 321.934 770.03Z" fill="#F8E6CE"/>
<path id="Vector" d="M577.183 831.955C577.455 833.711 577.96 835.465 577.965 837.222C578.022 855.835 578 874.449 578 893.531C557.312 894 536.625 894 515.47 893.531C515.002 874.58 515.115 856.096 514.92 837.616C514.874 833.175 516.448 831.886 520.737 831.922C539.551 832.083 558.367 831.969 577.183 831.955Z" fill="#424C6F"/>
<path id="Vector_2" d="M321.859 832.996C321.905 853.018 321.951 873.041 321.998 893.531C301.312 894 280.625 894 259.469 893.531C259.004 873.041 259.007 853.02 259.31 832.884C261.89 832.513 264.17 832.043 266.452 832.034C283.165 831.971 299.877 831.971 316.589 832.044C318.347 832.051 320.102 832.664 321.859 832.996Z" fill="#391F22"/>
<path id="Vector_3" d="M2.49997 1C3.00082 298.363 3.00167 595.725 3.00124 893.544C2.33328 893.667 1.21626 893.452 1.09092 892.976C0.803531 891.885 0.999971 890.667 0.999971 889.5C0.999971 594.833 0.998486 300.167 1.04122 5.50001C1.04144 3.99996 1.66664 2.5 2.49997 1Z" fill="#CCBD86"/>
<path id="Vector_4" d="M707.107 639.158C706.922 639.092 706.738 639.026 706.243 638.661C705.933 638.363 705.807 637.922 705.908 637.698C706.008 637.474 706.169 637.009 706.408 636.698C707.082 633.261 707.517 630.135 707.952 627.01C713.905 627.561 709.559 631.921 711.167 635C772.778 635 834.921 635 897.531 635C898 635.75 898 636.5 897.531 637.626C836.316 638.002 775.57 637.995 714.824 638.039C712.899 638.04 710.975 638.56 708.726 638.891C707.97 639.016 707.538 639.087 707.107 639.158Z" fill="#D8BD68"/>
<path id="Vector_5" d="M707.411 639.419C707.538 639.087 707.97 639.016 709.186 638.953C772.647 638.975 835.324 638.987 898 639C898 639 898 639.5 898 639.75C836.389 640.002 774.777 640.007 713.166 639.992C711.349 639.992 709.533 639.789 707.411 639.419Z" fill="#6E7271"/>
<path id="Vector_6" d="M898 638.75C835.324 638.987 772.647 638.975 709.511 638.9C710.975 638.56 712.899 638.04 714.824 638.039C775.57 637.995 836.316 638.002 897.531 638.001C898 638 898 638.5 898 638.75Z" fill="#CCBD86"/>
<path id="Vector_7" d="M577.129 831.741C558.367 831.969 539.551 832.083 520.737 831.922C516.448 831.885 514.874 833.174 514.92 837.616C515.115 856.096 515.002 874.58 515.001 893.531C515 894 514.5 894 514.247 893.531C513.993 874.314 514.016 855.566 513.953 836.818C513.947 835.118 513.388 833.42 513.085 831.722C513.085 831.722 513.092 831.343 513.046 831.19C512.999 831.037 512.929 831.023 513.402 831.02C534.915 831.043 555.955 831.068 576.995 831.094C576.995 831.094 577.076 831.527 577.129 831.741Z" fill="#494D59"/>
<path id="Vector_8" d="M257.25 894C257.105 873.545 257.209 853.089 257.666 832.554C258.073 832.654 258.129 832.833 258.111 833.475C258.025 853.958 258.012 873.979 258 894C258 894 257.5 894 257.25 894Z" fill="#D2BB7A"/>
<path id="Vector_9" d="M513.058 832.209C513.388 833.42 513.947 835.118 513.953 836.818C514.016 855.566 513.993 874.314 513.997 893.531C514 894 513.5 894 513.25 894C513.01 873.565 513.02 853.13 513.058 832.209Z" fill="#F1E8DD"/>
<path id="Vector_10" d="M258.25 894C258.012 873.979 258.025 853.958 258.317 833.471C258.597 833.005 259.011 832.999 259.011 832.999C259.007 853.02 259.004 873.041 259 893.531C259 894 258.5 894 258.25 894Z" fill="#3A2200"/>
<path id="top-layer2-hair" d="M642.185 446.954C642.185 446.954 641.996 447.4 641.751 447.638C641.506 447.876 641.08 447.799 640.819 447.453C598.404 447.084 556.249 447.062 513.62 447.032C492.152 447.351 471.158 447.677 449.918 447.634C448.686 447.177 447.699 447.01 446.712 447.01C405.173 447.011 363.633 447.026 321.62 447.032C300.439 447.019 279.733 447.013 259.02 446.538C259.011 427.436 259.147 408.8 258.91 390.17C258.848 385.35 260.374 383.81 265.181 383.914C283.951 384.324 302.728 384.407 321.503 384.524C321.997 384.527 322.498 383.539 323.465 383.01C408.984 382.984 494.035 382.96 579.085 382.937C579.085 382.937 579.072 382.973 579.111 383.292C579.374 383.826 579.597 384.232 579.82 384.231C598.242 384.174 616.665 384.208 635.083 383.912C639.689 383.839 641.141 385.328 641.081 389.916C640.859 406.854 640.969 423.796 641.028 440.737C641.035 442.499 641.537 444.259 641.89 446.258C642.042 446.649 642.113 446.801 642.185 446.954Z" fill="#1B1B1B"/>
<path id="top-layer1-hair" d="M579.042 382.701C494.035 382.96 408.984 382.984 323.187 382.995C322.255 382.971 322.07 382.958 321.926 382.609C322.04 381.826 322.113 381.38 322.434 380.61C322.785 360.527 322.889 340.767 323.376 320.839C325.389 320.449 327.019 320.031 328.649 320.031C409.472 319.998 490.294 320.035 571.117 319.914C575.797 319.907 577.133 321.451 577.076 325.987C576.86 342.982 576.935 359.981 577.066 376.978C577.079 378.661 578.219 380.334 578.836 382.012C578.836 382.012 578.999 382.464 579.042 382.701Z" fill="#272727"/>
<path id="eye" d="M514.094 447.039C556.249 447.062 598.404 447.084 640.805 447.935C641.04 467.584 641.008 486.405 641.059 505.225C641.063 506.808 641.625 508.388 641.928 509.97C641.955 510.149 641.982 510.328 641.744 510.777C641.312 511.092 641.145 511.139 640.518 511.097C619.514 511.01 598.969 511.01 577.893 511.01C577.893 532.542 577.893 553.748 577.431 574.973C555.826 574.992 534.682 574.992 513.817 574.992C513.817 554.092 513.817 533.524 513.888 512.494C514.005 490.369 514.049 468.704 514.094 447.039Z" fill="white"/>
<path id="Vector_11" d="M578.804 381.683C578.219 380.334 577.079 378.661 577.066 376.978C576.935 359.981 576.86 342.982 577.076 325.987C577.133 321.451 575.797 319.907 571.117 319.914C490.294 320.035 409.472 319.998 328.649 320.031C327.019 320.031 325.389 320.449 323.172 320.844C322.584 321.016 322.177 321.034 322.108 320.711C322.042 319.95 322.045 319.511 322.048 319.073C322.218 319.038 322.388 319.003 323.265 318.967C407.129 318.976 490.286 318.986 573.442 318.986C574.604 318.986 575.765 318.863 576.927 318.797C577.289 319.326 577.652 319.855 578.024 321.175C578.077 340.956 578.12 359.947 578.162 378.937C578.365 379.743 578.568 380.548 578.804 381.683Z" fill="#2F2912"/>
<path id="Vector_12" d="M576.603 318.551C575.765 318.863 574.604 318.986 573.442 318.986C490.286 318.986 407.129 318.976 323.514 318.889C324.487 318.539 325.918 318.032 327.35 318.031C409.506 317.993 491.663 317.996 573.819 318.01C574.639 318.01 575.459 318.203 576.603 318.551Z" fill="#D2BB7A"/>
<path id="Vector_13" d="M257.012 512.993C257.006 470.724 256.997 428.455 257.016 386.186C257.016 385.088 257.325 383.989 257.752 383.462C258.074 405.032 258.134 426.032 258.123 447.493C258.094 468.949 258.137 489.944 258.106 511.279C257.971 512.076 257.908 512.533 257.637 512.992C257.429 512.993 257.012 512.993 257.012 512.993Z" fill="#CCBD86"/>
<path id="Vector_14" d="M258.195 447.032C258.134 426.032 258.074 405.032 258.031 383.571C258.49 383.064 258.932 383.019 260.164 382.977C281.264 382.969 301.574 382.957 321.885 382.946C322.07 382.958 322.255 382.971 322.718 382.998C322.498 383.539 321.997 384.527 321.503 384.524C302.728 384.407 283.951 384.324 265.181 383.914C260.374 383.81 258.848 385.35 258.91 390.17C259.147 408.8 259.011 427.436 259.01 446.549C259.006 447.028 258.996 447.054 258.796 447.045C258.596 447.037 258.195 447.032 258.195 447.032Z" fill="#221B02"/>
<path id="Vector_15" d="M257.826 766C257.548 764.239 257.035 762.479 257.029 760.718C256.968 743.897 256.854 727.075 257.084 710.258C257.148 705.55 255.824 703.847 250.898 703.898C232.335 704.088 213.768 703.871 195.121 703.406C195.039 703.006 195.008 702.831 195.343 702.903C196.13 702.922 196.583 702.868 197.497 702.885C217.616 702.903 237.273 702.85 257.222 702.971C257.735 703.778 257.957 704.411 258.108 705.504C258.088 725.64 258.139 745.315 258.108 765.245C257.959 765.667 257.893 765.833 257.826 766Z" fill="#D2BB7A"/>
<path id="Vector_16" d="M641.809 446.019C641.537 444.259 641.035 442.499 641.028 440.737C640.969 423.796 640.859 406.854 641.081 389.916C641.141 385.328 639.689 383.839 635.083 383.912C616.665 384.208 598.242 384.174 579.82 384.231C579.597 384.232 579.374 383.826 579.1 383.281C579.492 382.958 579.934 382.964 581.164 382.966C601.621 382.918 621.292 382.874 640.963 382.83C641.307 383.341 641.651 383.852 642.007 385.15C641.949 405.965 641.879 425.992 641.809 446.019Z" fill="#221B02"/>
<path id="Vector_17" d="M193.826 702C193.548 700.742 193.028 699.484 193.027 698.226C192.986 658.346 192.995 618.467 193.011 578.587C193.012 577.936 193.209 577.285 193.666 576.554C194.073 576.653 194.129 576.832 194.111 577.474C194.027 593.714 193.988 609.492 194.012 625.269C194.05 650.509 194.129 675.749 194.108 701.245C193.959 701.667 193.893 701.833 193.826 702Z" fill="#D2BB7A"/>
<path id="Vector_18" d="M321.926 382.609C301.574 382.957 281.264 382.969 260.49 382.911C261.788 382.559 263.548 382.038 265.309 382.032C282.138 381.971 298.969 381.863 315.796 382.09C320.053 382.148 321.113 380.73 321.068 376.67C320.876 359.01 320.976 341.346 321.011 323.684C321.014 322.081 321.316 320.478 321.763 318.974C322.045 319.511 322.042 319.95 322.035 321.171C322.083 341.614 322.135 361.274 322.186 380.933C322.113 381.38 322.04 381.826 321.926 382.609Z" fill="#D2BB7A"/>
<path id="Vector_19" d="M257.005 513.462C257.012 512.993 257.429 512.993 257.703 513.457C258.05 533.598 258.123 553.273 258.131 573.277C258.007 574.048 257.947 574.49 257.427 574.958C236.653 574.932 216.34 574.879 196.027 574.827C197.79 574.55 199.552 574.04 201.315 574.034C217.965 573.973 234.616 573.885 251.263 574.074C255.566 574.123 257.121 572.804 257.074 568.375C256.882 550.229 256.997 532.08 257.005 513.462Z" fill="#D2BB7A"/>
<path id="Vector_20" d="M321.663 770.339C321.957 790.083 321.98 810.137 321.506 830.603C300.346 830.945 279.681 830.874 259.017 830.803C260.782 830.535 262.545 830.041 264.311 830.034C280.939 829.975 297.568 830.003 314.197 829.995C320.991 829.993 321 829.982 321.003 822.97C321.009 807.339 320.992 791.708 321.022 776.077C321.025 774.267 321.263 772.457 321.663 770.339Z" fill="#D2BB7A"/>
<path id="Vector_21" d="M640.977 511.185C641.145 511.139 641.312 511.092 641.741 511.048C642.002 511.05 642.041 511.532 642.042 512.227C642.054 533.274 642.066 553.627 641.809 574.084C641.032 574.449 640.522 574.711 640.009 574.51C640.33 553.093 640.654 532.139 640.977 511.185Z" fill="#221B02"/>
<path id="Vector_22" d="M707.955 626.552C707.517 630.135 707.082 633.261 706.338 636.232C706.077 616.391 706.125 596.703 706.385 577.011C706.597 577.006 707.021 577.002 707.021 577.002C707.333 593.366 707.645 609.73 707.955 626.552Z" fill="#CCBD86"/>
<path id="Vector_23" d="M195.705 574.907C216.34 574.879 236.653 574.932 257.668 575.158C258.389 575.637 258.442 575.945 258.413 576.246C258.403 576.356 258.201 576.538 258.088 576.537C240.004 576.367 221.921 576.135 203.838 576.049C200.897 576.035 197.954 576.667 194.805 577.003C194.598 577.005 194.184 577.011 194.184 577.011C194.129 576.832 194.073 576.653 193.908 576.215C194.326 575.633 194.854 575.31 195.705 574.907Z" fill="#3E230C"/>
<path id="Vector_24" d="M258.754 830.926C279.681 830.874 300.346 830.945 321.471 831.08C321.958 831.559 321.985 831.974 321.935 832.693C320.102 832.664 318.347 832.051 316.589 832.044C299.877 831.971 283.164 831.971 266.452 832.034C264.17 832.043 261.89 832.513 259.31 832.884C259.011 832.999 258.597 833.005 258.391 833.009C258.129 832.833 258.073 832.654 257.907 832.215C258.028 831.653 258.259 831.351 258.754 830.926Z" fill="#3E230C"/>
<path id="Vector_25" d="M321.1 767.23C321.1 767.23 321.15 767.58 321.156 767.756C300.508 767.89 279.855 767.848 259.121 767.406C259.039 767.006 259.008 766.831 259.342 766.903C260.13 766.922 260.583 766.868 261.497 766.885C281.673 767.047 301.386 767.139 321.1 767.23Z" fill="#D2BB7A"/>
<path id="Vector_26" d="M642.077 573.98C642.066 553.627 642.054 533.274 642.121 512.455C642.469 513.748 642.965 515.506 642.972 517.266C643.032 532.864 643.005 548.462 643.004 564.939C643.005 568.502 643.006 571.187 642.779 573.933C642.55 573.994 642.077 573.98 642.077 573.98Z" fill="#CCBD86"/>
<path id="Vector_27" d="M641.89 446.258C641.879 425.992 641.949 405.965 642.084 385.472C642.417 385.594 642.922 386.182 642.92 386.769C642.869 406.613 642.77 426.457 642.431 446.627C642.113 446.801 642.042 446.649 641.89 446.258Z" fill="#CCBD86"/>
<path id="Vector_28" d="M642.006 510.008C641.625 508.388 641.063 506.808 641.059 505.225C641.008 486.405 641.04 467.584 641.065 448.281C641.08 447.799 641.506 447.876 641.723 447.879C641.984 448.071 642.029 448.259 642.08 449.195C642.143 469.964 642.199 489.987 642.256 510.01C642.256 510.01 642.085 510.047 642.006 510.008Z" fill="#F1E8DD"/>
<path id="Vector_29" d="M642.479 509.667C642.199 489.987 642.143 469.964 642.146 449.478C642.457 449.611 642.929 450.208 642.927 450.805C642.88 470.311 642.788 489.817 642.479 509.667Z" fill="#CCBD86"/>
<path id="Vector_30" d="M648.002 573.993C666.69 573.992 685.377 573.991 704.53 574.209C704.995 574.428 704.985 574.873 704.52 574.921C685.359 574.979 666.662 575.01 647.966 574.961C646.596 574.957 645.227 574.381 644.271 574.051C645.791 574.018 646.897 574.005 648.002 573.993Z" fill="#D2BB7A"/>
<path id="Vector_31" d="M640.638 382.579C621.292 382.874 601.621 382.918 581.488 382.891C581.618 382.561 582.211 382.076 582.803 382.077C601.973 382.132 621.143 382.233 640.638 382.579Z" fill="#D2BB7A"/>
<path id="Vector_32" d="M578.419 378.62C578.12 359.947 578.077 340.956 578.103 321.505C578.435 321.632 578.93 322.221 578.928 322.809C578.874 341.307 578.771 359.804 578.419 378.62Z" fill="#CCBD86"/>
<path id="Vector_33" d="M648.001 573.574C646.897 574.005 645.791 574.018 644.036 574.057C643.386 574.083 642.935 574.215 642.958 574.13C642.981 574.045 643.007 573.872 643.007 573.872C643.006 571.187 643.005 568.502 643.011 565.407C649.179 564.968 647.117 569.961 648.001 573.574Z" fill="#D8BD68"/>
<path id="Vector_34" d="M704.985 574.873C704.985 574.873 704.995 574.428 704.999 574.205C705.827 573.039 706.652 572.096 707.974 570.585C708.656 573.255 712.153 575.115 707.387 576.992C707.021 577.002 706.597 577.006 706.307 576.699C705.673 575.886 705.329 575.38 704.985 574.873Z" fill="#D8BD68"/>
<path id="Vector_35" d="M257.948 766.27C257.893 765.833 257.959 765.667 258.308 765.247C258.591 764.994 258.991 764.998 258.996 765.303C259.003 766.016 259.005 766.424 259.008 766.831C259.008 766.831 259.039 767.006 259.042 767.096C258.72 766.97 258.395 766.755 257.948 766.27Z" fill="#3E230C"/>
<path id="Vector_36" d="M193.948 702.269C193.893 701.833 193.959 701.667 194.308 701.247C194.591 700.994 194.991 700.998 194.995 701.303C195.003 702.016 195.005 702.424 195.008 702.831C195.008 702.831 195.039 703.006 195.042 703.095C194.72 702.97 194.395 702.755 193.948 702.269Z" fill="#3E230C"/>
<path id="face" d="M195.343 702.903C195.005 702.424 195.003 702.016 194.999 700.835C195.002 659.041 195.007 618.021 195.011 577.001C197.954 576.667 200.897 576.035 203.838 576.049C221.921 576.135 240.004 576.367 258.088 576.537C258.201 576.538 258.403 576.356 258.413 576.246C258.442 575.945 258.389 575.637 258.129 575.132C257.947 574.49 258.007 574.048 258.377 572.951C258.791 551.865 258.895 531.434 258.999 510.976C258.998 510.949 259.008 510.896 259.476 510.924C278.661 510.966 297.38 510.922 316.098 511.077C318.009 511.093 319.911 512.301 321.902 513.42C321.987 534.135 321.987 554.385 321.987 574.955C342.951 574.955 364.422 574.955 386.368 574.97C406.314 574.99 425.785 574.946 445.255 575.048C448.437 575.065 450.11 574.531 450.075 570.739C449.887 550.771 449.936 530.801 449.909 510.876C449.915 510.919 449.829 510.904 450.308 510.931C469.886 510.969 488.984 510.925 508.081 511.077C509.998 511.092 511.905 512.301 513.817 512.955C513.817 533.524 513.817 554.092 513.817 574.992C534.682 574.992 555.826 574.992 577.906 574.988C599.233 574.981 619.622 574.977 640.012 574.973C640.522 574.711 641.032 574.449 641.809 574.084C642.077 573.98 642.55 573.994 642.779 573.933C643.007 573.872 642.981 574.045 642.987 574.469C643.673 575.311 644.353 576.093 645.034 576.094C662.992 576.112 680.954 576.199 698.908 575.902C703.837 575.821 705.146 577.561 705.082 582.256C704.853 599.051 704.967 615.851 705.026 632.649C705.032 634.408 705.535 636.165 705.807 637.922C705.807 637.922 705.933 638.363 705.959 638.588C705.812 638.885 705.638 638.956 704.739 639.031C686.852 639.017 669.691 638.967 652.531 638.991C628.709 639.023 604.887 639.11 581.066 639.173C580.607 639.135 580.149 639.097 579.001 639.33C578.207 641.421 578.011 643.24 578.01 645.059C577.991 676.55 577.979 708.041 578.008 739.532C578.016 748.357 578.164 757.182 578.248 766.008C578.194 766.178 578.141 766.348 577.783 766.782C577.316 767.095 577.153 767.144 576.529 767.107C555.476 767.021 534.883 767.021 514.049 767.021C514.049 788.41 514.049 809.209 513.792 830.088C513.333 830.452 513.131 830.738 512.929 831.023C512.929 831.023 512.999 831.037 513.012 831.004C470.558 830.97 428.09 830.97 385.74 830.97C385.74 809.646 385.74 788.615 385.74 766.979C365.102 766.979 344.505 766.979 323.117 766.66C302.489 766.242 282.652 766.135 262.815 766.075C262.223 766.074 261.629 766.557 261.035 766.814C260.583 766.868 260.13 766.922 259.342 766.903C259.005 766.424 259.003 766.016 258.999 764.835C258.999 746.142 259.023 728.224 258.965 710.306C258.96 708.551 258.453 706.797 258.179 705.043C257.957 704.411 257.735 703.778 256.897 702.726C237.13 702.219 217.98 702.123 198.83 702.074C198.232 702.073 197.634 702.557 197.035 702.814C196.583 702.868 196.13 702.922 195.343 702.903ZM334.547 703C371.011 703.002 407.476 702.943 443.939 703.083C448.38 703.1 450.157 701.972 450.091 697.203C449.853 679.89 449.945 662.571 450.04 645.255C450.063 641.067 449.019 638.893 444.136 638.913C405.008 639.068 365.88 639.043 326.752 638.926C323.025 638.915 321.88 640.032 321.922 643.758C322.101 659.574 321.998 675.393 322 691.21C322.002 703.005 322.004 703.005 334.547 703Z" fill="#391F22"/>
<path id="Vector_37" d="M770.024 766.975C750.383 766.985 730.741 766.915 711.102 767.074C707.358 767.104 705.852 766.294 705.904 762.138C706.131 743.998 706.1 725.852 705.927 707.711C705.892 703.954 707.059 702.891 710.761 702.925C728.902 703.093 747.048 703.134 765.187 702.902C769.42 702.847 770.096 704.488 770.068 708.16C769.926 727.467 769.999 746.776 769.998 766.542C770 767 770.024 766.975 770.024 766.975Z" fill="#92A0BA"/>
<path id="Vector_38" d="M769.988 767.012C789.616 767.016 809.258 767.087 828.897 766.931C832.641 766.901 834.154 767.7 834.101 771.87C833.87 790.01 833.9 808.155 834.076 826.296C834.113 830.076 832.916 831.11 829.231 831.077C811.089 830.913 792.944 830.868 774.804 831.104C770.558 831.159 769.912 829.488 769.938 825.841C770.076 806.534 770.008 787.225 770.018 767.447C770.024 766.975 770 767 769.988 767.012Z" fill="#92A0BA"/>
<path id="Vector_39" d="M576.989 767.193C577.153 767.144 577.316 767.095 577.735 767.045C578.009 767.219 578.028 767.393 578.054 768.278C578.111 788.967 578.161 808.946 578.212 828.925C577.975 829.515 577.738 830.104 577.248 830.894C555.955 831.068 534.915 831.043 513.402 831.02C513.131 830.738 513.333 830.452 514.125 829.962C534.134 829.838 553.554 829.831 572.97 830.07C577.029 830.12 577.033 827.941 577.025 825.028C576.968 805.749 576.992 786.471 576.989 767.193Z" fill="#F1E8DD"/>
<path id="Vector_40" d="M578.547 765.91C578.164 757.182 578.016 748.357 578.008 739.532C577.979 708.041 577.991 676.55 578.01 645.059C578.011 643.24 578.207 641.421 578.658 639.378C579.004 679.118 579.006 719.083 578.996 759.049C578.995 761.303 578.898 763.557 578.547 765.91Z" fill="#6F7186"/>
<path id="Vector_41" d="M581.386 639.421C604.887 639.11 628.709 639.023 652.531 638.991C669.691 638.967 686.852 639.017 704.469 639.11C703.661 639.457 702.397 639.962 701.133 639.963C662.142 640.005 623.151 640 584.161 639.985C583.342 639.985 582.524 639.779 581.386 639.421Z" fill="#6F7186"/>
<path id="Vector_42" d="M578.451 828.598C578.162 808.946 578.111 788.967 578.132 768.529C578.454 768.67 578.925 769.271 578.923 769.87C578.874 789.337 578.779 808.804 578.451 828.598Z" fill="#6E7271"/>
<path id="Vector_43" d="M261.497 766.885C261.629 766.557 262.223 766.074 262.815 766.075C282.652 766.135 302.489 766.242 322.651 766.595C322.559 766.935 322.143 767.021 321.414 767.169C301.386 767.138 281.673 767.047 261.497 766.885Z" fill="#3E230C"/>
<path id="Vector_44" d="M705.908 637.698C705.535 636.165 705.032 634.408 705.026 632.649C704.967 615.851 704.853 599.051 705.082 582.256C705.146 577.561 703.837 575.821 698.908 575.902C680.954 576.199 662.993 576.112 645.034 576.094C644.353 576.093 643.673 575.311 642.964 574.554C642.935 574.215 643.386 574.083 643.622 574.077C645.227 574.381 646.596 574.957 647.966 574.961C666.662 575.01 685.359 574.979 704.52 574.921C705.329 575.38 705.673 575.886 706.095 576.703C706.125 596.703 706.077 616.391 706.099 636.544C706.169 637.009 706.008 637.474 705.908 637.698Z" fill="#3E230C"/>
<path id="eye_2" d="M385.893 574.955C364.422 574.955 342.951 574.955 321.987 574.955C321.987 554.385 321.987 534.135 321.973 512.959C322.005 490.369 322.049 468.704 322.094 447.04C363.633 447.026 405.173 447.011 446.712 447.01C447.699 447.01 448.686 447.177 449.839 448.097C449.947 469.587 449.888 490.245 449.829 510.904C449.829 510.904 449.915 510.919 449.45 510.937C428.066 510.955 407.147 510.955 385.893 510.955C385.893 532.681 385.893 553.818 385.893 574.955Z" fill="white"/>
<path id="bottom-hair2" d="M450.308 510.931C449.888 490.245 449.947 469.587 450.085 448.466C471.158 447.677 492.152 447.351 513.62 447.032C514.049 468.704 514.005 490.369 513.888 512.494C511.905 512.301 509.998 511.092 508.081 511.077C488.984 510.925 469.886 510.969 450.308 510.931Z" fill="#0E061A"/>
<path id="bottom-hair1" d="M321.62 447.032C322.049 468.704 322.005 490.369 321.889 512.494C319.911 512.301 318.009 511.093 316.098 511.077C297.38 510.922 278.661 510.966 259.474 510.467C259.002 489.006 258.999 468.03 258.996 447.054C258.996 447.054 259.006 447.028 259.016 447.018C279.733 447.013 300.439 447.019 321.62 447.032Z" fill="#0E061A"/>
<path id="Vector_45" d="M322.434 380.61C322.135 361.274 322.083 341.614 322.104 321.494C322.177 321.034 322.584 321.016 322.788 321.012C322.889 340.767 322.785 360.527 322.434 380.61Z" fill="#3A2200"/>
<path id="Vector_46" d="M640.009 574.51C619.622 574.977 599.233 574.981 578.368 574.97C577.893 553.748 577.893 532.542 577.893 511.01C598.969 511.01 619.514 511.01 640.518 511.097C640.654 532.139 640.33 553.093 640.009 574.51Z" fill="#131313"/>
<path id="Vector_47" d="M258.796 447.045C258.999 468.03 259.002 489.006 259.007 510.439C259.008 510.896 258.998 510.949 258.794 510.959C258.59 510.968 258.18 510.939 258.18 510.939C258.137 489.944 258.094 468.949 258.123 447.493C258.195 447.032 258.596 447.037 258.796 447.045Z" fill="#0B0200"/>
<path id="Vector_48" d="M258.106 511.279C258.18 510.939 258.59 510.968 258.794 510.986C258.895 531.434 258.791 551.865 258.441 572.622C258.123 553.273 258.05 533.598 257.912 513.456C257.908 512.533 257.971 512.076 258.106 511.279Z" fill="#3A2200"/>
<path id="Vector_49" d="M258.108 705.504C258.453 706.797 258.96 708.551 258.965 710.306C259.023 728.224 258.999 746.142 258.995 764.529C258.991 764.998 258.591 764.994 258.39 764.992C258.139 745.315 258.088 725.64 258.108 705.504Z" fill="#3A2200"/>
<path id="Vector_50" d="M197.497 702.885C197.634 702.557 198.232 702.073 198.83 702.074C217.98 702.123 237.13 702.219 256.605 702.552C237.273 702.85 217.616 702.903 197.497 702.885Z" fill="#3E230C"/>
<path id="Vector_51" d="M194.805 577.003C195.007 618.021 195.002 659.041 194.994 700.529C194.991 700.998 194.591 700.994 194.39 700.992C194.129 675.749 194.05 650.509 194.012 625.269C193.988 609.492 194.027 593.714 194.111 577.474C194.184 577.011 194.598 577.005 194.805 577.003Z" fill="#3A2200"/>
<path id="mouth" d="M334.058 703C322.004 703.005 322.002 703.005 322 691.21C321.998 675.393 322.101 659.574 321.922 643.758C321.88 640.032 323.025 638.915 326.752 638.926C365.88 639.043 405.008 639.068 444.136 638.913C449.019 638.893 450.063 641.067 450.04 645.255C449.945 662.571 449.853 679.89 450.091 697.203C450.157 701.972 448.38 703.1 443.939 703.083C407.476 702.943 371.011 703.002 334.058 703Z" fill="#571C28"/>
<path id="Vector_52" d="M386.368 574.97C385.893 553.818 385.893 532.681 385.893 510.955C407.147 510.955 428.066 510.955 449.444 510.894C449.936 530.801 449.887 550.771 450.075 570.739C450.11 574.531 448.437 575.065 445.255 575.048C425.785 574.946 406.314 574.99 386.368 574.97Z" fill="#131313"/>
<path id="Vector_53" d="M576.529 767.107C576.992 786.471 576.968 805.749 577.025 825.028C577.034 827.941 577.029 830.12 572.971 830.07C553.554 829.831 534.134 829.838 514.382 829.883C514.049 809.209 514.049 788.41 514.049 767.021C534.883 767.021 555.476 767.021 576.529 767.107Z" fill="#F8E6CE"/>
</g>
<defs>
<clipPath id="clip0_1_2">
<rect width="897" height="893" fill="white"/>
</clipPath>
</defs>
</svg>
