<svg version="1.1" id="Layer_1" xmlns="http://www.w3.org/2000/svg" xmlns:xlink="http://www.w3.org/1999/xlink" x="0px" y="0px"
	 width="100%" viewBox="0 0 897 893" enable-background="new 0 0 897 893" xml:space="preserve">
<path fill="#D8BD62" opacity="1.000000" stroke="none" 
	d="
M257.000000,894.000000 
	C172.640839,894.000000 88.281670,894.000000 3.462530,893.544067 
	C3.001700,595.725403 3.000850,298.362701 3.000000,1.000000 
	C301.250824,1.000000 599.501648,1.000000 898.000000,1.000000 
	C898.000000,212.025772 898.000000,423.051636 897.531372,634.538757 
	C834.920532,635.000000 772.778381,635.000000 711.167419,635.000000 
	C709.559143,631.920898 713.904663,627.561035 707.954895,626.551758 
	C707.645325,609.729797 707.333130,593.366089 707.386536,576.991699 
	C712.152710,575.115479 708.655823,573.254883 707.974365,570.584839 
	C706.652344,572.095703 705.827271,573.038574 704.533447,573.985962 
	C685.377258,573.991211 666.689819,573.991943 648.001465,573.574097 
	C647.116760,569.961365 649.179260,564.967651 643.010986,564.529114 
	C643.005432,548.462402 643.031982,532.864014 642.971863,517.265991 
	C642.965088,515.506042 642.468933,513.747864 642.120239,511.760620 
	C642.040649,511.532349 642.001587,511.050385 642.005066,510.778656 
	C641.981567,510.327820 641.954590,510.148682 642.006104,510.008453 
	C642.084656,510.047363 642.255859,510.009552 642.479004,509.666626 
	C642.787903,489.817322 642.880310,470.310974 642.927307,450.804504 
	C642.928711,450.208344 642.456604,449.611023 642.139648,448.731018 
	C642.029053,448.259277 641.984009,448.070801 641.967224,447.641357 
	C641.995544,447.400452 642.184631,446.953613 642.431396,446.627014 
	C642.770203,426.456665 642.869141,406.612885 642.920044,386.768982 
	C642.921570,386.182037 642.416992,385.593750 642.071655,384.684387 
	C641.650879,383.851837 641.306763,383.341003 640.638184,382.578918 
	C621.143433,382.233246 601.973206,382.131836 582.802856,382.077240 
	C582.210999,382.075562 581.617676,382.560608 580.701050,382.894073 
	C579.934387,382.963593 579.491638,382.957764 579.060303,382.962494 
	C579.071594,382.973053 579.085205,382.936951 579.041870,382.700623 
	C578.998596,382.464325 578.835754,382.012299 578.803589,381.682861 
	C578.568420,380.548096 578.365417,379.742767 578.419128,378.619751 
	C578.770996,359.804352 578.873535,341.306671 578.927795,322.808838 
	C578.929504,322.221100 578.434998,321.631927 578.092773,320.713898 
	C577.651550,319.855164 577.289368,319.325958 576.603149,318.551147 
	C575.459167,318.202637 574.639221,318.009644 573.819214,318.009521 
	C491.662750,317.996094 409.506256,317.993164 327.349823,318.031311 
	C325.918213,318.031982 324.486908,318.539307 322.806915,318.888794 
	C322.388184,319.002533 322.218018,319.037689 321.763123,318.974152 
	C321.315582,320.478394 321.014404,322.080994 321.011200,323.684204 
	C320.975800,341.346466 320.875916,359.010040 321.068451,376.670227 
	C321.112732,380.730286 320.052551,382.148041 315.795593,382.090485 
	C298.969452,381.862976 282.138367,381.970581 265.309387,382.031738 
	C263.547913,382.038116 261.788300,382.559387 259.700989,382.907928 
	C258.932281,383.019257 258.490326,383.064423 257.769562,383.000427 
	C257.325409,383.989441 257.016144,385.087585 257.015656,386.185822 
	C256.996735,428.454773 257.006073,470.723724 257.005310,513.462036 
	C256.996918,532.079590 256.881714,550.229004 257.074036,568.375122 
	C257.120972,572.804077 255.566010,574.122803 251.263229,574.074036 
	C234.615646,573.885254 217.964554,573.972717 201.315063,574.033875 
	C199.551529,574.040344 197.789841,574.550354 195.704895,574.906860 
	C194.854126,575.310059 194.325790,575.633179 193.555573,576.295166 
	C193.208572,577.285217 193.011658,577.936279 193.011383,578.587463 
	C192.994553,618.466919 192.986206,658.346313 193.026688,698.225708 
	C193.027969,699.483948 193.548065,700.741638 193.948151,702.269470 
	C194.395157,702.754639 194.720261,702.969910 195.123779,703.495605 
	C213.767929,703.870789 232.335236,704.087830 250.898361,703.897766 
	C255.824051,703.847412 257.147827,705.549622 257.083557,710.257568 
	C256.853882,727.074951 256.968353,743.897461 257.029083,760.717773 
	C257.035431,762.479309 257.548370,764.239014 257.948181,766.269531 
	C258.395142,766.754700 258.720245,766.969910 259.123779,767.495605 
	C279.855255,767.848267 300.508270,767.890442 321.379700,768.131165 
	C321.710114,768.896362 321.822052,769.463074 321.662781,770.338623 
	C321.262695,772.457214 321.025330,774.266846 321.021881,776.076843 
	C320.992188,791.707825 321.008698,807.338867 321.002747,822.969910 
	C321.000061,829.981873 320.991089,829.992615 314.196930,829.995483 
	C297.568146,830.002502 280.939301,829.974609 264.310730,830.034363 
	C262.545349,830.040710 260.781769,830.535034 258.753906,830.925842 
	C258.259277,831.351013 258.028137,831.653320 257.555298,832.294678 
	C257.209045,853.089172 257.104523,873.544617 257.000000,894.000000 
z"/>
<path fill="#647392" opacity="1.000000" stroke="none" 
	d="
M898.000000,640.000000 
	C898.000000,724.602112 898.000000,809.204224 898.000000,894.000000 
	C791.645874,894.000000 685.291565,894.000000 578.468750,893.531372 
	C578.000305,874.449036 578.022400,855.835388 577.965088,837.221924 
	C577.959656,835.465454 577.455322,833.710632 577.129150,831.741089 
	C577.075623,831.527161 576.994995,831.093567 577.247681,830.893677 
	C577.737610,830.104248 577.974792,829.514648 578.451416,828.597778 
	C578.778992,808.803711 578.873840,789.336914 578.923218,769.870117 
	C578.924744,769.270874 578.453918,768.670471 578.125122,767.819214 
	C578.028076,767.393372 578.009216,767.218933 578.038818,766.781372 
	C578.140686,766.348083 578.194153,766.177917 578.546997,765.909668 
	C578.898376,763.557251 578.995239,761.302917 578.995789,759.048523 
	C579.005737,719.083374 579.003906,679.118225 579.347290,639.105835 
	C580.148560,639.096802 580.607117,639.135010 581.385742,639.421143 
	C582.524109,639.778992 583.342407,639.984924 584.160767,639.985229 
	C623.151489,640.000488 662.142212,640.005493 701.132874,639.963257 
	C702.396973,639.961914 703.660583,639.456665 705.194458,639.106689 
	C705.638306,638.955994 705.812012,638.884888 706.269958,638.886841 
	C706.738342,639.025879 706.922424,639.092041 707.411316,639.419434 
	C709.532776,639.789062 711.349426,639.991577 713.166138,639.992004 
	C774.777405,640.006531 836.388733,640.001892 898.000000,640.000000 
M770.011719,767.917542 
	C770.008118,787.225464 770.075806,806.533936 769.937683,825.840942 
	C769.911499,829.488159 770.558105,831.158936 774.804382,831.103760 
	C792.944153,830.867981 811.089478,830.912537 829.230835,831.076538 
	C832.915833,831.109802 834.112976,830.075684 834.076172,826.296143 
	C833.899597,808.155090 833.869995,790.009705 834.101196,771.869812 
	C834.154358,767.699585 832.640686,766.901001 828.897278,766.930786 
	C809.257690,767.087280 789.616272,767.016113 769.996338,766.083923 
	C769.998535,746.775818 769.926147,727.467163 770.068481,708.160095 
	C770.095520,704.487488 769.419861,702.847473 765.187439,702.901733 
	C747.047485,703.134338 728.901917,703.093384 710.760559,702.924927 
	C707.058960,702.890625 705.891541,703.954224 705.927246,707.711121 
	C706.099792,725.852478 706.130676,743.997925 705.903687,762.138123 
	C705.851685,766.294250 707.357666,767.104187 711.101685,767.073975 
	C730.741394,766.915100 750.383057,766.985046 770.011719,767.917542 
z"/>
<path fill="#F8E6CE" opacity="1.000000" stroke="none" 
	d="
M321.933990,770.029724 
	C321.822052,769.463074 321.710114,768.896362 321.374176,767.954773 
	C321.150208,767.579834 321.100159,767.229736 321.413574,767.168579 
	C322.143127,767.021179 322.559296,766.934998 323.441650,766.914185 
	C344.504822,766.979431 365.101837,766.979431 385.740265,766.979431 
	C385.740265,788.615295 385.740265,809.646362 385.740265,830.970459 
	C428.089661,830.970459 470.557617,830.970459 513.058838,831.156799 
	C513.092102,831.343140 513.085266,831.721619 513.057495,832.208618 
	C513.019836,853.130432 513.009888,873.565247 513.000000,894.000000 
	C449.645782,894.000000 386.291534,894.000000 322.466858,893.531372 
	C321.950531,873.040527 321.904633,853.018433 321.935089,832.692810 
	C321.984955,831.973938 321.958405,831.558594 321.967529,830.666687 
	C321.980103,810.136719 321.957031,790.083191 321.933990,770.029724 
z"/>
<path fill="#424C6F" opacity="1.000000" stroke="none" 
	d="
M577.182678,831.955017 
	C577.455322,833.710632 577.959656,835.465454 577.965088,837.221924 
	C578.022400,855.835388 578.000305,874.449036 578.000061,893.531372 
	C557.312439,894.000000 536.624878,894.000000 515.469604,893.531372 
	C515.002075,874.580200 515.115479,856.096436 514.920471,837.616028 
	C514.873535,833.174500 516.448120,831.885498 520.737305,831.922180 
	C539.551147,832.083374 558.367310,831.969299 577.182678,831.955017 
z"/>
<path fill="#391F22" opacity="1.000000" stroke="none" 
	d="
M321.858704,832.996277 
	C321.904633,853.018433 321.950531,873.040527 321.998230,893.531372 
	C301.312439,894.000000 280.624878,894.000000 259.469116,893.531372 
	C259.004120,873.041321 259.007324,853.019958 259.309570,832.883850 
	C261.889801,832.512817 264.170135,832.042847 266.452271,832.034180 
	C283.164490,831.970825 299.877197,831.970520 316.589355,832.043701 
	C318.347168,832.051392 320.102325,832.664246 321.858704,832.996277 
z"/>
<path fill="#CCBD86" opacity="1.000000" stroke="none" 
	d="
M2.500000,1.000000 
	C3.000850,298.362701 3.001700,595.725403 3.001265,893.544067 
	C2.333312,893.666687 1.216292,893.451965 1.090947,892.976074 
	C0.803560,891.885071 1.000000,890.666687 1.000000,889.500000 
	C1.000000,594.833313 0.998515,300.166656 1.041252,5.500006 
	C1.041470,3.999958 1.666667,2.500000 2.500000,1.000000 
z"/>
<path fill="#D8BD68" opacity="1.000000" stroke="none" 
	d="
M707.106567,639.158142 
	C706.922424,639.092041 706.738342,639.025879 706.243408,638.661255 
	C705.932617,638.362793 705.807495,637.922485 705.907715,637.697998 
	C706.007996,637.473511 706.169312,637.009033 706.408325,636.697754 
	C707.082397,633.260986 707.517334,630.135498 707.952271,627.010071 
	C713.904663,627.561035 709.559143,631.920898 711.167419,635.000000 
	C772.778381,635.000000 834.920532,635.000000 897.531372,635.000000 
	C898.000000,635.750000 898.000000,636.500000 897.531372,637.625549 
	C836.316467,638.002014 775.570190,637.995239 714.823975,638.038818 
	C712.899475,638.040161 710.975403,638.560059 708.726196,638.891174 
	C707.969727,639.015503 707.538147,639.086853 707.106567,639.158142 
z"/>
<path fill="#6E7271" opacity="1.000000" stroke="none" 
	d="
M707.411316,639.419434 
	C707.538147,639.086853 707.969727,639.015503 709.186035,638.953003 
	C772.647156,638.974548 835.323608,638.987305 898.000000,639.000000 
	C898.000000,639.000000 898.000000,639.500000 898.000000,639.750000 
	C836.388733,640.001892 774.777405,640.006531 713.166138,639.992004 
	C711.349426,639.991577 709.532776,639.789062 707.411316,639.419434 
z"/>
<path fill="#CCBD86" opacity="1.000000" stroke="none" 
	d="
M898.000000,638.750000 
	C835.323608,638.987305 772.647156,638.974548 709.510925,638.900024 
	C710.975403,638.560059 712.899475,638.040161 714.823975,638.038818 
	C775.570190,637.995239 836.316467,638.002014 897.531372,638.000549 
	C898.000000,638.000000 898.000000,638.500000 898.000000,638.750000 
z"/>
<path fill="#494D59" opacity="1.000000" stroke="none" 
	d="
M577.129150,831.741089 
	C558.367310,831.969299 539.551147,832.083374 520.737305,831.922180 
	C516.448120,831.885498 514.873535,833.174500 514.920471,837.616028 
	C515.115479,856.096436 515.002075,874.580200 515.000977,893.531372 
	C515.000000,894.000000 514.500000,894.000000 514.246704,893.531372 
	C513.993042,874.314331 514.015991,855.565979 513.952942,836.817810 
	C513.947205,835.118164 513.387634,833.420288 513.085266,831.721619 
	C513.085266,831.721619 513.092102,831.343140 513.045654,831.189941 
	C512.999146,831.036743 512.928528,831.022827 513.401733,831.020386 
	C534.914978,831.043152 555.955017,831.068359 576.994995,831.093567 
	C576.994995,831.093567 577.075623,831.527161 577.129150,831.741089 
z"/>
<path fill="#D2BB7A" opacity="1.000000" stroke="none" 
	d="
M257.250000,894.000000 
	C257.104523,873.544617 257.209045,853.089172 257.665710,832.554199 
	C258.073364,832.653931 258.128815,832.833130 258.110718,833.474976 
	C258.024811,853.958435 258.012390,873.979187 258.000000,894.000000 
	C258.000000,894.000000 257.500000,894.000000 257.250000,894.000000 
z"/>
<path fill="#F1E8DD" opacity="1.000000" stroke="none" 
	d="
M513.057495,832.208618 
	C513.387634,833.420288 513.947205,835.118164 513.952942,836.817810 
	C514.015991,855.565979 513.993042,874.314331 513.996704,893.531372 
	C514.000000,894.000000 513.500000,894.000000 513.250000,894.000000 
	C513.009888,873.565247 513.019836,853.130432 513.057495,832.208618 
z"/>
<path fill="#3A2200" opacity="1.000000" stroke="none" 
	d="
M258.250000,894.000000 
	C258.012390,873.979187 258.024811,853.958435 258.317291,833.471191 
	C258.597382,833.004700 259.010529,832.998596 259.010529,832.998596 
	C259.007324,853.019958 259.004120,873.041321 259.000458,893.531372 
	C259.000000,894.000000 258.500000,894.000000 258.250000,894.000000 
z"/>
<path fill="#1B1B1B" opacity="1.000000" stroke="none" 
	d="
M642.184631,446.953613 
	C642.184631,446.953613 641.995544,447.400452 641.750977,447.638275 
	C641.506348,447.876099 641.079712,447.798981 640.819031,447.452942 
	C598.403503,447.084381 556.248718,447.061859 513.619629,447.031860 
	C492.151764,447.350739 471.158051,447.677094 449.918457,447.634338 
	C448.685638,447.176575 447.698792,447.010376 446.711914,447.010406 
	C405.172546,447.010834 363.633148,447.026093 321.619568,447.031799 
	C300.439148,447.018524 279.732971,447.013031 259.020050,446.538452 
	C259.010529,427.435730 259.147003,408.800354 258.909637,390.169708 
	C258.848236,385.349762 260.374359,383.809631 265.180908,383.914459 
	C283.950684,384.323730 302.727722,384.406616 321.502655,384.524261 
	C321.997223,384.527405 322.498016,383.538940 323.464813,383.009888 
	C408.984222,382.983582 494.034698,382.960266 579.085205,382.936951 
	C579.085205,382.936951 579.071594,382.973053 579.110962,383.291534 
	C579.373535,383.826050 579.597290,384.231750 579.819824,384.231049 
	C598.241516,384.173950 616.665039,384.208099 635.083313,383.912476 
	C639.688660,383.838562 641.140869,385.328400 641.080811,389.915527 
	C640.859009,406.853638 640.968750,423.796448 641.028442,440.737244 
	C641.034607,442.498840 641.536926,444.258698 641.890015,446.258118 
	C642.042114,446.649139 642.113403,446.801361 642.184631,446.953613 
z"/>
<path fill="#272727" opacity="1.000000" stroke="none" 
	d="
M579.041870,382.700623 
	C494.034698,382.960266 408.984222,382.983582 323.187073,382.995056 
	C322.255371,382.970764 322.070312,382.958313 321.926392,382.609131 
	C322.040436,381.826050 322.113373,381.379669 322.433533,380.609802 
	C322.784698,360.526611 322.888611,340.766968 323.375763,320.839417 
	C325.389130,320.448517 327.019135,320.031189 328.649323,320.030518 
	C409.471802,319.997894 490.294342,320.034698 571.116638,319.913574 
	C575.796936,319.906555 577.133362,321.450958 577.075806,325.986542 
	C576.860291,342.981537 576.935181,359.981293 577.066101,376.977997 
	C577.079041,378.660553 578.218933,380.334412 578.835693,382.012299 
	C578.835754,382.012299 578.998596,382.464325 579.041870,382.700623 
z"/>
<path fill="#FFFFFF" opacity="1.000000" stroke="none" 
	d="
M514.093872,447.039307 
	C556.248718,447.061859 598.403503,447.084381 640.804688,447.934875 
	C641.040466,467.583740 641.008118,486.404663 641.058838,505.225403 
	C641.063110,506.807556 641.624878,508.388184 641.927551,509.969543 
	C641.954590,510.148682 641.981567,510.327820 641.744080,510.776520 
	C641.312073,511.092377 641.144592,511.138611 640.518188,511.097473 
	C619.514282,511.010101 598.969116,511.010101 577.892944,511.010101 
	C577.892944,532.541748 577.892944,553.748230 577.431335,574.973328 
	C555.825928,574.991882 534.682129,574.991882 513.817017,574.991882 
	C513.817017,554.092285 513.817017,533.523682 513.888489,512.494324 
	C514.004578,490.368866 514.049255,468.704071 514.093872,447.039307 
z"/>
<path fill="#2F2912" opacity="1.000000" stroke="none" 
	d="
M578.803589,381.682861 
	C578.218933,380.334412 577.079041,378.660553 577.066101,376.977997 
	C576.935181,359.981293 576.860291,342.981537 577.075806,325.986542 
	C577.133362,321.450958 575.796936,319.906555 571.116638,319.913574 
	C490.294342,320.034698 409.471802,319.997894 328.649323,320.030518 
	C327.019135,320.031189 325.389130,320.448517 323.171753,320.843628 
	C322.584442,321.015778 322.176544,321.033936 322.107666,320.711029 
	C322.041779,319.949677 322.044830,319.511261 322.047852,319.072815 
	C322.218018,319.037689 322.388184,319.002533 323.265503,318.967468 
	C407.129120,318.976471 490.285553,318.986206 573.442017,318.986145 
	C574.603760,318.986145 575.765442,318.862610 576.927185,318.796722 
	C577.289368,319.325958 577.651550,319.855164 578.024048,321.175171 
	C578.077026,340.956482 578.119751,359.946960 578.162415,378.937439 
	C578.365417,379.742767 578.568420,380.548096 578.803589,381.682861 
z"/>
<path fill="#D2BB7A" opacity="1.000000" stroke="none" 
	d="
M576.603149,318.551147 
	C575.765442,318.862610 574.603760,318.986145 573.442017,318.986145 
	C490.285553,318.986206 407.129120,318.976471 323.514038,318.888855 
	C324.486908,318.539307 325.918213,318.031982 327.349823,318.031311 
	C409.506256,317.993164 491.662750,317.996094 573.819214,318.009521 
	C574.639221,318.009644 575.459167,318.202637 576.603149,318.551147 
z"/>
<path fill="#CCBD86" opacity="1.000000" stroke="none" 
	d="
M257.011688,512.992676 
	C257.006073,470.723724 256.996735,428.454773 257.015656,386.185822 
	C257.016144,385.087585 257.325409,383.989441 257.752014,383.461700 
	C258.073761,405.032043 258.134216,426.031921 258.123016,447.493103 
	C258.094177,468.949402 258.136963,489.944458 258.106445,511.278961 
	C257.970764,512.075867 257.908386,512.533264 257.637421,512.991577 
	C257.428833,512.992554 257.011688,512.992676 257.011688,512.992676 
z"/>
<path fill="#221B02" opacity="1.000000" stroke="none" 
	d="
M258.194672,447.031830 
	C258.134216,426.031921 258.073761,405.032043 258.030884,383.570862 
	C258.490326,383.064423 258.932281,383.019257 260.163513,382.977234 
	C281.263641,382.968903 301.574463,382.957397 321.885254,382.945862 
	C322.070312,382.958313 322.255371,382.970764 322.718140,382.998047 
	C322.498016,383.538940 321.997223,384.527405 321.502655,384.524261 
	C302.727722,384.406616 283.950684,384.323730 265.180908,383.914459 
	C260.374359,383.809631 258.848236,385.349762 258.909637,390.169708 
	C259.147003,408.800354 259.010529,427.435730 259.009583,446.548523 
	C259.005890,447.027679 258.996338,447.053925 258.796021,447.045410 
	C258.595673,447.036896 258.194672,447.031830 258.194672,447.031830 
z"/>
<path fill="#D2BB7A" opacity="1.000000" stroke="none" 
	d="
M257.826294,765.999573 
	C257.548370,764.239014 257.035431,762.479309 257.029083,760.717773 
	C256.968353,743.897461 256.853882,727.074951 257.083557,710.257568 
	C257.147827,705.549622 255.824051,703.847412 250.898361,703.897766 
	C232.335236,704.087830 213.767929,703.870789 195.120667,703.406006 
	C195.039139,703.005859 195.007858,702.830994 195.342896,702.903442 
	C196.130447,702.921997 196.582962,702.868103 197.497284,702.885132 
	C217.616165,702.902832 237.273239,702.849670 257.221619,702.971130 
	C257.735046,703.778198 257.957184,704.410706 258.107788,705.504272 
	C258.087555,725.640015 258.138824,745.314514 258.107758,765.244751 
	C257.959015,765.666870 257.892670,765.833252 257.826294,765.999573 
z"/>
<path fill="#221B02" opacity="1.000000" stroke="none" 
	d="
M641.809082,446.019348 
	C641.536926,444.258698 641.034607,442.498840 641.028442,440.737244 
	C640.968750,423.796448 640.859009,406.853638 641.080811,389.915527 
	C641.140869,385.328400 639.688660,383.838562 635.083313,383.912476 
	C616.665039,384.208099 598.241516,384.173950 579.819824,384.231049 
	C579.597290,384.231750 579.373535,383.826050 579.099609,383.280975 
	C579.491638,382.957764 579.934387,382.963593 581.163818,382.965973 
	C601.621277,382.918427 621.291992,382.874298 640.962708,382.830139 
	C641.306763,383.341003 641.650879,383.851837 642.007080,385.149963 
	C641.949097,405.964600 641.879089,425.991974 641.809082,446.019348 
z"/>
<path fill="#D2BB7A" opacity="1.000000" stroke="none" 
	d="
M193.826279,701.999573 
	C193.548065,700.741638 193.027969,699.483948 193.026688,698.225708 
	C192.986206,658.346313 192.994553,618.466919 193.011383,578.587463 
	C193.011658,577.936279 193.208572,577.285217 193.665848,576.554321 
	C194.073425,576.653442 194.128891,576.832397 194.110779,577.473999 
	C194.026581,593.714111 193.988144,609.491638 194.011765,625.269043 
	C194.049561,650.509033 194.128555,675.749084 194.107758,701.244751 
	C193.959015,701.666870 193.892639,701.833252 193.826279,701.999573 
z"/>
<path fill="#D2BB7A" opacity="1.000000" stroke="none" 
	d="
M321.926392,382.609131 
	C301.574463,382.957397 281.263641,382.968903 260.490326,382.911072 
	C261.788300,382.559387 263.547913,382.038116 265.309387,382.031738 
	C282.138367,381.970581 298.969452,381.862976 315.795593,382.090485 
	C320.052551,382.148041 321.112732,380.730286 321.068451,376.670227 
	C320.875916,359.010040 320.975800,341.346466 321.011200,323.684204 
	C321.014404,322.080994 321.315582,320.478394 321.763123,318.974152 
	C322.044830,319.511261 322.041779,319.949677 322.035339,321.171082 
	C322.083374,341.613800 322.134857,361.273560 322.186340,380.933319 
	C322.113373,381.379669 322.040436,381.826050 321.926392,382.609131 
z"/>
<path fill="#D2BB7A" opacity="1.000000" stroke="none" 
	d="
M257.005310,513.462036 
	C257.011688,512.992676 257.428833,512.992554 257.703003,513.457275 
	C258.049957,533.597656 258.122711,553.273438 258.130737,573.277466 
	C258.006653,574.047729 257.947296,574.489746 257.427002,574.957825 
	C236.653122,574.931519 216.340225,574.879150 196.027313,574.826782 
	C197.789841,574.550354 199.551529,574.040344 201.315063,574.033875 
	C217.964554,573.972717 234.615646,573.885254 251.263229,574.074036 
	C255.566010,574.122803 257.120972,572.804077 257.074036,568.375122 
	C256.881714,550.229004 256.996918,532.079590 257.005310,513.462036 
z"/>
<path fill="#D2BB7A" opacity="1.000000" stroke="none" 
	d="
M321.662781,770.338623 
	C321.957031,790.083191 321.980103,810.136719 321.506409,830.603333 
	C300.345520,830.945374 279.681458,830.874207 259.017365,830.802979 
	C260.781769,830.535034 262.545349,830.040710 264.310730,830.034363 
	C280.939301,829.974609 297.568146,830.002502 314.196930,829.995483 
	C320.991089,829.992615 321.000061,829.981873 321.002747,822.969910 
	C321.008698,807.338867 320.992188,791.707825 321.021881,776.076843 
	C321.025330,774.266846 321.262695,772.457214 321.662781,770.338623 
z"/>
<path fill="#221B02" opacity="1.000000" stroke="none" 
	d="
M640.977051,511.184814 
	C641.144592,511.138611 641.312073,511.092377 641.740601,511.048248 
	C642.001587,511.050385 642.040649,511.532349 642.041931,512.226807 
	C642.054443,533.274231 642.065613,553.627197 641.809082,574.083862 
	C641.031555,574.449158 640.521912,574.710938 640.009399,574.509705 
	C640.330017,553.092773 640.653564,532.138794 640.977051,511.184814 
z"/>
<path fill="#CCBD86" opacity="1.000000" stroke="none" 
	d="
M707.954834,626.551758 
	C707.517334,630.135498 707.082397,633.260986 706.337891,636.232300 
	C706.076721,616.390503 706.125000,596.702820 706.385132,577.010742 
	C706.597046,577.006409 707.020935,577.002441 707.020935,577.002441 
	C707.333130,593.366089 707.645325,609.729797 707.954834,626.551758 
z"/>
<path fill="#3E230C" opacity="1.000000" stroke="none" 
	d="
M195.704895,574.906860 
	C216.340225,574.879150 236.653122,574.931519 257.667572,575.158081 
	C258.389435,575.637329 258.441833,575.945312 258.413391,576.245667 
	C258.402893,576.356384 258.200958,576.538452 258.087799,576.537354 
	C240.004410,576.367310 221.921387,576.134827 203.837662,576.048889 
	C200.897141,576.034912 197.953568,576.667358 194.804626,577.003174 
	C194.597870,577.005249 194.184372,577.011414 194.184372,577.011414 
	C194.128891,576.832397 194.073425,576.653442 193.907715,576.215332 
	C194.325790,575.633179 194.854126,575.310059 195.704895,574.906860 
z"/>
<path fill="#3E230C" opacity="1.000000" stroke="none" 
	d="
M258.753906,830.925903 
	C279.681458,830.874207 300.345520,830.945374 321.470734,831.079834 
	C321.958405,831.558594 321.984955,831.973938 321.935120,832.692810 
	C320.102325,832.664246 318.347168,832.051392 316.589355,832.043701 
	C299.877197,831.970520 283.164490,831.970825 266.452271,832.034180 
	C264.170135,832.042847 261.889801,832.512817 259.309570,832.883850 
	C259.010529,832.998596 258.597382,833.004700 258.390808,833.008545 
	C258.128815,832.833130 258.073364,832.653931 257.907471,832.215149 
	C258.028137,831.653320 258.259277,831.351013 258.753906,830.925903 
z"/>
<path fill="#D2BB7A" opacity="1.000000" stroke="none" 
	d="
M321.100159,767.229736 
	C321.100159,767.229736 321.150208,767.579834 321.155762,767.756226 
	C300.508270,767.890442 279.855255,767.848267 259.120667,767.406006 
	C259.039093,767.005859 259.007904,766.830994 259.342346,766.903442 
	C260.129669,766.921997 260.582550,766.868103 261.497223,766.885132 
	C281.672760,767.047302 301.386444,767.138489 321.100159,767.229736 
z"/>
<path fill="#CCBD86" opacity="1.000000" stroke="none" 
	d="
M642.076843,573.980225 
	C642.065613,553.627197 642.054443,533.274231 642.121460,512.455078 
	C642.468933,513.747864 642.965088,515.506042 642.971863,517.265991 
	C643.031982,532.864014 643.005432,548.462402 643.004272,564.938599 
	C643.005005,568.501648 643.006042,571.186890 642.778687,573.932922 
	C642.550232,573.993774 642.076843,573.980225 642.076843,573.980225 
z"/>
<path fill="#CCBD86" opacity="1.000000" stroke="none" 
	d="
M641.890015,446.258118 
	C641.879089,425.991974 641.949097,405.964600 642.083740,385.471680 
	C642.416992,385.593750 642.921570,386.182037 642.920044,386.768982 
	C642.869141,406.612885 642.770203,426.456665 642.431396,446.627014 
	C642.113403,446.801361 642.042114,446.649139 641.890015,446.258118 
z"/>
<path fill="#F1E8DD" opacity="1.000000" stroke="none" 
	d="
M642.006104,510.008453 
	C641.624878,508.388184 641.063110,506.807556 641.058838,505.225403 
	C641.008118,486.404663 641.040466,467.583740 641.065308,448.280914 
	C641.079712,447.798981 641.506348,447.876099 641.722656,447.879211 
	C641.984009,448.070801 642.029053,448.259277 642.080078,449.194641 
	C642.142639,469.964172 642.199219,489.986877 642.255859,510.009552 
	C642.255859,510.009552 642.084656,510.047363 642.006104,510.008453 
z"/>
<path fill="#CCBD86" opacity="1.000000" stroke="none" 
	d="
M642.479004,509.666626 
	C642.199219,489.986877 642.142639,469.964172 642.145630,449.477875 
	C642.456604,449.611023 642.928711,450.208344 642.927307,450.804504 
	C642.880310,470.310974 642.787903,489.817322 642.479004,509.666626 
z"/>
<path fill="#D2BB7A" opacity="1.000000" stroke="none" 
	d="
M648.002441,573.992676 
	C666.689819,573.991943 685.377258,573.991211 704.530029,574.209106 
	C704.995422,574.427734 704.984619,574.873474 704.519775,574.920898 
	C685.358582,574.979248 666.662170,575.009705 647.966064,574.960999 
	C646.595642,574.957458 645.226624,574.380615 644.271118,574.050659 
	C645.791016,574.018188 646.896729,574.005432 648.002441,573.992676 
z"/>
<path fill="#D2BB7A" opacity="1.000000" stroke="none" 
	d="
M640.638184,382.578918 
	C621.291992,382.874298 601.621277,382.918427 581.487793,382.890656 
	C581.617676,382.560608 582.210999,382.075562 582.802856,382.077240 
	C601.973206,382.131836 621.143433,382.233246 640.638184,382.578918 
z"/>
<path fill="#CCBD86" opacity="1.000000" stroke="none" 
	d="
M578.419128,378.619751 
	C578.119751,359.946960 578.077026,340.956482 578.103027,321.504700 
	C578.434998,321.631927 578.929504,322.221100 578.927795,322.808838 
	C578.873535,341.306671 578.770996,359.804352 578.419128,378.619751 
z"/>
<path fill="#D8BD68" opacity="1.000000" stroke="none" 
	d="
M648.001465,573.574097 
	C646.896729,574.005432 645.791016,574.018188 644.035828,574.056885 
	C643.386353,574.082825 642.934631,574.214600 642.957642,574.130005 
	C642.980591,574.045410 643.007080,573.872070 643.007080,573.872070 
	C643.006042,571.186890 643.005005,568.501648 643.010742,565.406982 
	C649.179260,564.967651 647.116760,569.961365 648.001465,573.574097 
z"/>
<path fill="#D8BD68" opacity="1.000000" stroke="none" 
	d="
M704.984619,574.873474 
	C704.984619,574.873474 704.995422,574.427734 704.998779,574.204590 
	C705.827271,573.038574 706.652344,572.095703 707.974365,570.584839 
	C708.655823,573.254883 712.152710,575.115479 707.386536,576.991699 
	C707.020935,577.002441 706.597046,577.006409 706.307007,576.698975 
	C705.672852,575.885559 705.328735,575.379517 704.984619,574.873474 
z"/>
<path fill="#3E230C" opacity="1.000000" stroke="none" 
	d="
M257.948181,766.269531 
	C257.892670,765.833252 257.959015,765.666870 258.308014,765.247437 
	C258.590637,764.994324 258.991150,764.997559 258.995544,765.303101 
	C259.002563,766.016113 259.005249,766.423523 259.007904,766.830994 
	C259.007904,766.830994 259.039093,767.005859 259.042236,767.095520 
	C258.720245,766.969910 258.395142,766.754700 257.948181,766.269531 
z"/>
<path fill="#3E230C" opacity="1.000000" stroke="none" 
	d="
M193.948151,702.269470 
	C193.892639,701.833252 193.959015,701.666870 194.307983,701.247437 
	C194.590576,700.994324 194.991043,700.997559 194.995453,701.303101 
	C195.002533,702.016113 195.005188,702.423523 195.007843,702.830994 
	C195.007858,702.830994 195.039139,703.005859 195.042252,703.095459 
	C194.720261,702.969910 194.395157,702.754639 193.948151,702.269470 
z"/>
<path fill="#391F22" opacity="1.000000" stroke="none" 
	d="
M195.342880,702.903442 
	C195.005188,702.423523 195.002533,702.016113 194.998932,700.834717 
	C195.002457,659.040894 195.006927,618.020935 195.011398,577.001038 
	C197.953568,576.667358 200.897141,576.034912 203.837662,576.048889 
	C221.921387,576.134827 240.004410,576.367310 258.087799,576.537354 
	C258.200958,576.538452 258.402893,576.356384 258.413391,576.245667 
	C258.441833,575.945312 258.389435,575.637329 258.128540,575.132080 
	C257.947296,574.489746 258.006653,574.047729 258.376587,572.950562 
	C258.791229,551.864868 258.895233,531.434265 258.998566,510.976410 
	C258.997925,510.949158 259.008392,510.895599 259.475708,510.924133 
	C278.661407,510.965668 297.380310,510.922211 316.097565,511.077362 
	C318.009155,511.093231 319.910858,512.300598 321.901855,513.419800 
	C321.986542,534.134705 321.986542,554.384949 321.986542,574.954590 
	C342.950562,574.954590 364.421814,574.954590 386.367920,574.969727 
	C406.313721,574.989807 425.784851,574.946472 445.255280,575.048035 
	C448.437469,575.064636 450.110413,574.530518 450.074707,570.738647 
	C449.886688,550.771179 449.936127,530.801453 449.909088,510.875977 
	C449.915070,510.919495 449.828705,510.903564 450.308228,510.930908 
	C469.885834,510.969330 488.984375,510.924805 508.081360,511.077118 
	C509.998108,511.092438 511.905334,512.300537 513.817017,512.955017 
	C513.817017,533.523682 513.817017,554.092285 513.817017,574.991882 
	C534.682129,574.991882 555.825928,574.991882 577.906250,574.988281 
	C599.232544,574.980652 619.622375,574.976624 640.012207,574.972656 
	C640.521912,574.710938 641.031555,574.449158 641.809082,574.083862 
	C642.076843,573.980225 642.550232,573.993774 642.778687,573.932922 
	C643.007080,573.872070 642.980591,574.045410 642.986816,574.469177 
	C643.673279,575.311035 644.353149,576.093384 645.033752,576.094116 
	C662.992493,576.112000 680.953796,576.199097 698.908447,575.902222 
	C703.836853,575.820740 705.145691,577.561096 705.081787,582.256409 
	C704.853271,599.051331 704.966980,615.851379 705.026123,632.649231 
	C705.032288,634.407837 705.535095,636.164795 705.807495,637.922485 
	C705.807495,637.922485 705.932617,638.362793 705.959167,638.588318 
	C705.812012,638.884888 705.638306,638.955994 704.738831,639.030640 
	C686.852295,639.017029 669.691406,638.967407 652.530701,638.990601 
	C628.708984,639.022888 604.887390,639.109741 581.065735,639.173279 
	C580.607117,639.135010 580.148560,639.096802 579.000793,639.330444 
	C578.206543,641.421143 578.010986,643.239807 578.009949,645.058655 
	C577.991272,676.549805 577.978638,708.040894 578.008118,739.532043 
	C578.016357,748.357361 578.163940,757.182495 578.247620,766.007751 
	C578.194153,766.177917 578.140686,766.348083 577.783264,766.782227 
	C577.315979,767.095093 577.152649,767.143860 576.528931,767.106934 
	C555.475525,767.021362 534.882629,767.021362 514.048767,767.021362 
	C514.048767,788.409973 514.048767,809.209412 513.792114,830.087891 
	C513.333069,830.452271 513.130798,830.737549 512.928528,831.022827 
	C512.928528,831.022827 512.999146,831.036743 513.012329,831.003601 
	C470.557617,830.970459 428.089661,830.970459 385.740265,830.970459 
	C385.740265,809.646362 385.740265,788.615295 385.740265,766.979431 
	C365.101837,766.979431 344.504822,766.979431 323.117004,766.660278 
	C302.489227,766.241638 282.652344,766.135315 262.815308,766.075378 
	C262.222748,766.073547 261.628723,766.557007 261.035400,766.814148 
	C260.582550,766.868103 260.129669,766.921997 259.342346,766.903442 
	C259.005249,766.423523 259.002563,766.016113 258.998962,764.834717 
	C258.999084,746.142395 259.022919,728.223999 258.965332,710.305786 
	C258.959686,708.550781 258.453278,706.797302 258.179321,705.043152 
	C257.957184,704.410706 257.735046,703.778198 256.896729,702.726440 
	C237.130280,702.218689 217.980072,702.123047 198.829758,702.074463 
	C198.232300,702.072998 197.633606,702.556702 197.035492,702.814209 
	C196.582962,702.868103 196.130447,702.921997 195.342880,702.903442 
M334.547302,703.000000 
	C371.011475,703.001587 407.475861,702.942627 443.939484,703.083130 
	C448.380035,703.100220 450.157104,701.971619 450.091339,697.202820 
	C449.852631,679.889832 449.944794,662.571167 450.039856,645.255432 
	C450.062866,641.066895 449.019318,638.893372 444.135956,638.912720 
	C405.008362,639.068115 365.879761,639.043274 326.751892,638.925842 
	C323.025238,638.914673 321.880341,640.031860 321.922363,643.757874 
	C322.100800,659.573608 321.997864,675.392578 322.000336,691.210327 
	C322.002197,703.005371 322.003998,703.005371 334.547302,703.000000 
z"/>
<path fill="#92A0BA" opacity="1.000000" stroke="none" 
	d="
M770.023987,766.975464 
	C750.383057,766.985046 730.741394,766.915100 711.101685,767.073975 
	C707.357666,767.104187 705.851685,766.294250 705.903687,762.138123 
	C706.130676,743.997925 706.099792,725.852478 705.927246,707.711121 
	C705.891541,703.954224 707.058960,702.890625 710.760559,702.924927 
	C728.901917,703.093384 747.047485,703.134338 765.187439,702.901733 
	C769.419861,702.847473 770.095520,704.487488 770.068481,708.160095 
	C769.926147,727.467163 769.998535,746.775818 769.998169,766.541992 
	C770.000000,767.000000 770.023987,766.975464 770.023987,766.975464 
z"/>
<path fill="#92A0BA" opacity="1.000000" stroke="none" 
	d="
M769.987793,767.012024 
	C789.616272,767.016113 809.257690,767.087280 828.897278,766.930786 
	C832.640686,766.901001 834.154358,767.699585 834.101196,771.869812 
	C833.869995,790.009705 833.899597,808.155090 834.076172,826.296143 
	C834.112976,830.075684 832.915833,831.109802 829.230835,831.076538 
	C811.089478,830.912537 792.944153,830.867981 774.804382,831.103760 
	C770.558105,831.158936 769.911499,829.488159 769.937683,825.840942 
	C770.075806,806.533936 770.008118,787.225464 770.017822,767.446533 
	C770.023987,766.975464 770.000000,767.000000 769.987793,767.012024 
z"/>
<path fill="#F1E8DD" opacity="1.000000" stroke="none" 
	d="
M576.989380,767.192566 
	C577.152649,767.143860 577.315979,767.095093 577.734863,767.045349 
	C578.009216,767.218933 578.028076,767.393372 578.053711,768.277710 
	C578.110962,788.966736 578.161499,808.945862 578.211975,828.925049 
	C577.974792,829.514648 577.737610,830.104248 577.247681,830.893677 
	C555.955017,831.068359 534.914978,831.043152 513.401733,831.020386 
	C513.130798,830.737549 513.333069,830.452271 514.125000,829.962158 
	C534.133545,829.838013 553.553528,829.831421 572.970520,830.070312 
	C577.029236,830.120239 577.033508,827.941467 577.024963,825.027710 
	C576.968384,805.749451 576.991882,786.470947 576.989380,767.192566 
z"/>
<path fill="#6F7186" opacity="1.000000" stroke="none" 
	d="
M578.546997,765.909668 
	C578.163940,757.182495 578.016357,748.357361 578.008118,739.532043 
	C577.978638,708.040894 577.991272,676.549805 578.009949,645.058655 
	C578.010986,643.239807 578.206543,641.421143 578.658081,639.377686 
	C579.003906,679.118225 579.005737,719.083374 578.995789,759.048523 
	C578.995239,761.302917 578.898376,763.557251 578.546997,765.909668 
z"/>
<path fill="#6F7186" opacity="1.000000" stroke="none" 
	d="
M581.385742,639.421143 
	C604.887390,639.109741 628.708984,639.022888 652.530701,638.990601 
	C669.691406,638.967407 686.852295,639.017029 704.468750,639.110229 
	C703.660583,639.456665 702.396973,639.961914 701.132874,639.963257 
	C662.142212,640.005493 623.151489,640.000488 584.160767,639.985229 
	C583.342407,639.984924 582.524109,639.778992 581.385742,639.421143 
z"/>
<path fill="#6E7271" opacity="1.000000" stroke="none" 
	d="
M578.451416,828.597778 
	C578.161499,808.945862 578.110962,788.966736 578.131836,768.529053 
	C578.453918,768.670471 578.924744,769.270874 578.923218,769.870117 
	C578.873840,789.336914 578.778992,808.803711 578.451416,828.597778 
z"/>
<path fill="#3E230C" opacity="1.000000" stroke="none" 
	d="
M261.497223,766.885132 
	C261.628723,766.557007 262.222748,766.073547 262.815308,766.075378 
	C282.652344,766.135315 302.489227,766.241638 322.650818,766.595032 
	C322.559296,766.934998 322.143127,767.021179 321.413574,767.168579 
	C301.386444,767.138489 281.672760,767.047302 261.497223,766.885132 
z"/>
<path fill="#3E230C" opacity="1.000000" stroke="none" 
	d="
M705.907715,637.697998 
	C705.535095,636.164795 705.032288,634.407837 705.026123,632.649231 
	C704.966980,615.851379 704.853271,599.051331 705.081787,582.256409 
	C705.145691,577.561096 703.836853,575.820740 698.908447,575.902222 
	C680.953796,576.199097 662.992493,576.112000 645.033752,576.094116 
	C644.353149,576.093384 643.673279,575.311035 642.963867,574.553772 
	C642.934631,574.214600 643.386353,574.082825 643.621704,574.076538 
	C645.226624,574.380615 646.595642,574.957458 647.966064,574.960999 
	C666.662170,575.009705 685.358582,574.979248 704.519775,574.920898 
	C705.328735,575.379517 705.672852,575.885559 706.095154,576.703369 
	C706.125000,596.702820 706.076721,616.390503 706.098877,636.543640 
	C706.169312,637.009033 706.007996,637.473511 705.907715,637.697998 
z"/>
<path fill="#FFFFFF" opacity="1.000000" stroke="none" 
	d="
M385.893066,574.954590 
	C364.421814,574.954590 342.950562,574.954590 321.986542,574.954590 
	C321.986542,554.384949 321.986542,534.134705 321.973328,512.959106 
	C322.004669,490.368927 322.049225,468.704254 322.093781,447.039551 
	C363.633148,447.026093 405.172546,447.010834 446.711914,447.010406 
	C447.698792,447.010376 448.685638,447.176575 449.839386,448.097229 
	C449.947083,469.587311 449.887878,490.245422 449.828674,510.903564 
	C449.828705,510.903564 449.915070,510.919495 449.450348,510.937378 
	C428.066437,510.955261 407.147217,510.955261 385.893066,510.955261 
	C385.893066,532.680603 385.893066,553.817566 385.893066,574.954590 
z"/>
<path fill="#0E061A" opacity="1.000000" stroke="none" 
	d="
M450.308197,510.930908 
	C449.887878,490.245422 449.947083,469.587311 450.085327,448.466309 
	C471.158051,447.677094 492.151764,447.350739 513.619629,447.031860 
	C514.049255,468.704071 514.004578,490.368866 513.888489,512.494324 
	C511.905334,512.300537 509.998108,511.092438 508.081360,511.077118 
	C488.984375,510.924805 469.885834,510.969330 450.308197,510.930908 
z"/>
<path fill="#0E061A" opacity="1.000000" stroke="none" 
	d="
M321.619568,447.031799 
	C322.049225,468.704254 322.004669,490.368927 321.888672,512.494385 
	C319.910858,512.300598 318.009155,511.093231 316.097565,511.077362 
	C297.380310,510.922211 278.661407,510.965668 259.473938,510.467102 
	C259.002075,489.005646 258.999207,468.029785 258.996338,447.053925 
	C258.996338,447.053925 259.005890,447.027679 259.016357,447.017609 
	C279.732971,447.013031 300.439148,447.018524 321.619568,447.031799 
z"/>
<path fill="#3A2200" opacity="1.000000" stroke="none" 
	d="
M322.433594,380.609802 
	C322.134857,361.273560 322.083374,341.613800 322.104218,321.493988 
	C322.176544,321.033936 322.584442,321.015778 322.788452,321.011536 
	C322.888611,340.766968 322.784698,360.526611 322.433594,380.609802 
z"/>
<path fill="#131313" opacity="1.000000" stroke="none" 
	d="
M640.009399,574.509705 
	C619.622375,574.976624 599.232544,574.980652 578.367798,574.969727 
	C577.892944,553.748230 577.892944,532.541748 577.892944,511.010101 
	C598.969116,511.010101 619.514282,511.010101 640.518188,511.097473 
	C640.653564,532.138794 640.330017,553.092773 640.009399,574.509705 
z"/>
<path fill="#0B0200" opacity="1.000000" stroke="none" 
	d="
M258.796021,447.045410 
	C258.999207,468.029785 259.002075,489.005646 259.006653,510.438538 
	C259.008392,510.895599 258.997925,510.949158 258.793884,510.958618 
	C258.589813,510.968048 258.179810,510.939484 258.179810,510.939484 
	C258.136963,489.944458 258.094177,468.949402 258.123016,447.493103 
	C258.194672,447.031830 258.595673,447.036896 258.796021,447.045410 
z"/>
<path fill="#3A2200" opacity="1.000000" stroke="none" 
	d="
M258.106445,511.278961 
	C258.179810,510.939484 258.589813,510.968048 258.794495,510.985840 
	C258.895233,531.434265 258.791229,551.864868 258.441345,572.622314 
	C258.122711,553.273438 258.049957,533.597656 257.911591,513.456299 
	C257.908386,512.533264 257.970764,512.075867 258.106445,511.278961 
z"/>
<path fill="#3A2200" opacity="1.000000" stroke="none" 
	d="
M258.107788,705.504272 
	C258.453278,706.797302 258.959686,708.550781 258.965332,710.305786 
	C259.022919,728.223999 258.999084,746.142395 258.994568,764.529175 
	C258.991150,764.997559 258.590637,764.994324 258.390381,764.991699 
	C258.138824,745.314514 258.087555,725.640015 258.107788,705.504272 
z"/>
<path fill="#3E230C" opacity="1.000000" stroke="none" 
	d="
M197.497299,702.885132 
	C197.633606,702.556702 198.232300,702.072998 198.829758,702.074463 
	C217.980072,702.123047 237.130280,702.218689 256.605408,702.551880 
	C237.273239,702.849670 217.616165,702.902832 197.497299,702.885132 
z"/>
<path fill="#3A2200" opacity="1.000000" stroke="none" 
	d="
M194.804626,577.003174 
	C195.006927,618.020935 195.002457,659.040894 194.994507,700.529175 
	C194.991043,700.997559 194.590576,700.994324 194.390350,700.991699 
	C194.128555,675.749084 194.049561,650.509033 194.011765,625.269043 
	C193.988144,609.491638 194.026581,593.714111 194.110779,577.473999 
	C194.184372,577.011414 194.597870,577.005249 194.804626,577.003174 
z"/>
<path fill="#571C28" opacity="1.000000" stroke="none" 
	d="
M334.057983,703.000000 
	C322.003998,703.005371 322.002197,703.005371 322.000336,691.210327 
	C321.997864,675.392578 322.100800,659.573608 321.922363,643.757874 
	C321.880341,640.031860 323.025238,638.914673 326.751892,638.925842 
	C365.879761,639.043274 405.008362,639.068115 444.135956,638.912720 
	C449.019318,638.893372 450.062866,641.066895 450.039856,645.255432 
	C449.944794,662.571167 449.852631,679.889832 450.091339,697.202820 
	C450.157104,701.971619 448.380035,703.100220 443.939484,703.083130 
	C407.475861,702.942627 371.011475,703.001587 334.057983,703.000000 
z"/>
<path fill="#131313" opacity="1.000000" stroke="none" 
	d="
M386.367920,574.969727 
	C385.893066,553.817566 385.893066,532.680603 385.893066,510.955261 
	C407.147217,510.955261 428.066437,510.955261 449.444366,510.893860 
	C449.936127,530.801453 449.886688,550.771179 450.074707,570.738647 
	C450.110413,574.530518 448.437469,575.064636 445.255280,575.048035 
	C425.784851,574.946472 406.313721,574.989807 386.367920,574.969727 
z"/>
<path fill="#F8E6CE" opacity="1.000000" stroke="none" 
	d="
M576.528931,767.106934 
	C576.991882,786.470947 576.968384,805.749451 577.024963,825.027710 
	C577.033508,827.941467 577.029236,830.120239 572.970520,830.070312 
	C553.553528,829.831421 534.133545,829.838013 514.381714,829.883057 
	C514.048767,809.209412 514.048767,788.409973 514.048767,767.021362 
	C534.882629,767.021362 555.475525,767.021362 576.528931,767.106934 
z"/>
</svg>