<svg version="1.1" id="Layer_1" xmlns="http://www.w3.org/2000/svg" xmlns:xlink="http://www.w3.org/1999/xlink" x="0px" y="0px"
	 width="100%" viewBox="0 0 420 420" enable-background="new 0 0 420 420" xml:space="preserve">
<path fill="#D9BD62" opacity="1.000000" stroke="none" 
	d="
M121.000000,421.000000 
	C81.011681,421.000000 41.023354,421.000000 1.017517,421.000000 
	C1.017517,281.052551 1.017517,141.105103 1.017517,1.078825 
	C140.906540,1.078825 280.813141,1.078825 420.859863,1.078825 
	C420.859863,140.999908 420.859863,280.999939 420.859863,421.000000 
	C381.247772,421.000000 341.592560,421.000000 301.468658,420.531342 
	C301.000000,410.520966 301.000000,400.979248 301.000000,390.953918 
	C290.495209,390.953918 280.749420,390.953918 271.002289,390.979614 
	C271.000946,391.005341 271.051910,391.003113 271.033081,390.534241 
	C271.006622,380.431915 270.998993,370.798492 271.456543,361.100525 
	C281.496704,361.035980 291.071686,361.035980 300.974609,361.035980 
	C300.974609,350.538300 300.974609,340.756073 301.444763,330.984070 
	C311.485809,330.994293 321.056641,330.994293 330.649139,330.994293 
	C330.649139,310.671600 330.649139,291.008026 330.649139,270.840851 
	C320.527954,270.840851 310.754181,270.840851 300.986542,270.383423 
	C300.958466,260.279663 300.924225,250.633347 300.937256,240.520233 
	C300.962341,230.388885 300.940155,220.724335 300.943420,210.588043 
	C300.979156,182.019318 300.933075,153.922089 301.069336,125.825752 
	C301.086823,122.223763 300.221771,120.764618 296.359680,120.920815 
	C289.388397,121.202728 282.391785,121.168709 275.417175,120.931480 
	C271.836395,120.809692 270.867676,122.154137 270.936768,125.550255 
	C271.109192,134.024948 270.957489,142.506241 270.473541,150.990204 
	C260.362152,150.991974 250.713135,150.988419 241.043915,150.517578 
	C241.015656,141.913605 240.891449,133.774582 241.056442,125.641418 
	C241.122818,122.368172 240.381638,120.889862 236.685287,120.926468 
	C219.583237,121.095833 202.477692,121.092087 185.375534,120.928070 
	C181.753479,120.893333 180.872894,122.229668 180.938522,125.580627 
	C181.104340,134.045441 180.957474,142.516388 180.473541,150.990204 
	C170.362167,150.991974 160.713135,150.988419 151.043915,150.517578 
	C151.015732,142.069855 150.850723,134.085144 151.069046,126.110924 
	C151.171204,122.379128 150.328262,120.695999 146.142746,120.907654 
	C139.343475,121.251465 132.506332,121.195526 125.700546,120.923561 
	C121.918945,120.772453 120.907860,122.085785 120.927177,125.765739 
	C121.076431,154.195251 121.033211,182.625793 121.030151,211.521103 
	C121.013634,231.604401 121.016586,251.222610 120.553375,270.903046 
	C110.516907,270.965271 100.946609,270.965271 91.350540,270.965271 
	C91.350540,291.327209 91.350540,310.990997 91.350540,330.971344 
	C101.474136,330.971344 111.250900,330.971344 121.016846,331.441833 
	C121.006020,341.489197 121.006020,351.066101 121.006020,361.165039 
	C131.451981,361.165039 141.230331,361.165039 151.006363,361.622467 
	C150.985367,371.720978 150.966721,381.362061 150.977814,391.005371 
	C151.007584,391.007599 151.003113,390.948090 150.534302,390.966797 
	C140.522812,390.985535 130.980133,390.985535 121.000000,390.985535 
	C121.000000,401.505402 121.000000,411.252686 121.000000,421.000000 
z"/>
<path fill="#B4B4B4" opacity="1.000000" stroke="none" 
	d="
M241.000000,421.000000 
	C221.312439,421.000000 201.624878,421.000000 181.468658,420.531342 
	C180.988495,410.398102 180.976990,400.733551 181.437195,391.044647 
	C201.617432,391.036530 221.325974,391.052765 241.023926,391.533203 
	C241.008896,401.664948 241.004440,411.332458 241.000000,421.000000 
z"/>
<path fill="#C7CFDD" opacity="1.000000" stroke="none" 
	d="
M271.003632,390.953918 
	C280.749420,390.953918 290.495209,390.953918 301.000000,390.953918 
	C301.000000,400.979248 301.000000,410.520966 301.000000,420.531342 
	C291.312439,421.000000 281.624878,421.000000 271.468658,420.531342 
	C271.001190,410.359772 271.002411,400.656830 271.003632,390.953918 
z"/>
<path fill="#92A1B9" opacity="1.000000" stroke="none" 
	d="
M271.002289,390.979614 
	C271.002411,400.656830 271.001190,410.359772 271.000000,420.531342 
	C261.312439,421.000000 251.624878,421.000000 241.468658,421.000000 
	C241.004440,411.332458 241.008896,401.664948 241.488602,391.508118 
	C251.659882,391.013580 261.355896,391.008331 271.051910,391.003113 
	C271.051910,391.003113 271.000946,391.005341 271.002289,390.979614 
z"/>
<path fill="#92A1B9" opacity="1.000000" stroke="none" 
	d="
M180.965485,391.068970 
	C180.976990,400.733551 180.988495,410.398102 181.000000,420.531342 
	C171.312439,421.000000 161.624878,421.000000 151.468658,420.531342 
	C151.001038,410.357819 151.002075,400.652954 151.003113,390.948090 
	C151.003113,390.948090 151.007584,391.007599 151.451050,391.004028 
	C161.584824,391.023285 171.275162,391.046143 180.965485,391.068970 
z"/>
<path fill="#C7CFDD" opacity="1.000000" stroke="none" 
	d="
M150.534302,390.966797 
	C151.002075,400.652954 151.001038,410.357819 151.000000,420.531342 
	C141.312439,421.000000 131.624878,421.000000 121.468658,421.000000 
	C121.000000,411.252686 121.000000,401.505402 121.000000,390.985535 
	C130.980133,390.985535 140.522812,390.985535 150.534302,390.966797 
z"/>
<path fill="#1E6F50" opacity="1.000000" stroke="none" 
	d="
M300.980377,270.840851 
	C310.754181,270.840851 320.527954,270.840851 330.649139,270.840851 
	C330.649139,291.008026 330.649139,310.671600 330.649139,330.994293 
	C321.056641,330.994293 311.485809,330.994293 301.456238,330.995850 
	C300.997559,330.997406 301.020599,331.020599 301.013062,330.550659 
	C301.005493,320.512024 301.005493,310.943359 301.005493,301.150757 
	C290.487244,301.150757 280.711670,301.150757 270.475220,301.088806 
	C260.364807,301.068024 250.715256,301.109192 240.595551,301.095123 
	C230.394958,301.076691 220.664520,301.113525 210.473267,301.088623 
	C203.522446,301.017944 197.030457,300.908844 190.543320,301.039856 
	C186.992996,301.111542 183.450851,301.589050 179.578568,301.927002 
	C178.490936,302.273895 177.729767,302.577393 176.756287,302.920135 
	C176.543945,302.959381 176.112076,302.959442 176.013596,302.548889 
	C174.927673,301.759674 173.942947,301.062927 172.952347,301.054535 
	C166.968735,301.003540 160.983780,301.110016 154.595398,301.104492 
	C153.105713,301.080231 152.019943,301.115295 150.473328,301.088623 
	C140.439713,301.026917 130.866943,301.026917 120.973564,301.026917 
	C120.973564,311.456085 120.973564,321.241272 120.987160,331.012756 
	C121.000755,330.999054 121.027664,330.971344 121.027664,330.971344 
	C111.250900,330.971344 101.474136,330.971344 91.350540,330.971344 
	C91.350540,310.990997 91.350540,291.327209 91.350540,270.965271 
	C100.946609,270.965271 110.516907,270.965271 121.018295,270.972961 
	C141.532425,270.980682 161.115463,270.980682 180.932236,270.980682 
	C180.932236,260.636993 180.932236,250.842529 180.956879,240.577972 
	C180.982941,230.460068 180.984360,220.812271 181.450958,211.096619 
	C201.610672,211.074142 221.305222,211.119537 240.999863,211.621643 
	C240.999939,231.642059 240.999939,251.205795 240.999939,270.840851 
	C261.420258,270.840851 281.200317,270.840851 300.980377,270.840851 
z"/>
<path fill="#FFC825" opacity="1.000000" stroke="none" 
	d="
M240.999786,211.164948 
	C221.305222,211.119537 201.610672,211.074142 180.987030,211.025452 
	C170.372238,211.069031 160.686523,211.115952 150.536224,211.097305 
	C140.397644,211.039841 130.723633,211.047928 121.049629,211.056015 
	C121.033211,182.625793 121.076431,154.195251 120.927177,125.765739 
	C120.907860,122.085785 121.918945,120.772453 125.700546,120.923561 
	C132.506332,121.195526 139.343475,121.251465 146.142746,120.907654 
	C150.328262,120.695999 151.171204,122.379128 151.069046,126.110924 
	C150.850723,134.085144 151.015732,142.069855 151.020950,150.987335 
	C151.012680,160.219208 151.127625,168.516708 150.942215,176.807495 
	C150.868408,180.107407 152.066299,181.135880 155.273697,181.054764 
	C162.402695,180.874466 169.545502,180.823486 176.670471,181.070877 
	C180.357269,181.198898 181.127502,179.648041 181.054932,176.364670 
	C180.868042,167.907990 180.957108,159.445221 180.935913,150.984879 
	C180.957474,142.516388 181.104340,134.045441 180.938522,125.580627 
	C180.872894,122.229668 181.753479,120.893333 185.375534,120.928070 
	C202.477692,121.092087 219.583237,121.095833 236.685287,120.926468 
	C240.381638,120.889862 241.122818,122.368172 241.056442,125.641418 
	C240.891449,133.774582 241.015656,141.913605 241.020935,150.987335 
	C241.012680,160.219208 241.127594,168.516708 240.942200,176.807495 
	C240.868408,180.107407 242.066299,181.135880 245.273697,181.054749 
	C252.402695,180.874466 259.545471,180.823486 266.670471,181.070862 
	C270.357208,181.198868 271.127502,179.648178 271.054932,176.364670 
	C270.867920,167.907990 270.957092,159.445221 270.935883,150.984879 
	C270.957489,142.506241 271.109192,134.024948 270.936768,125.550255 
	C270.867676,122.154137 271.836395,120.809692 275.417175,120.931480 
	C282.391785,121.168709 289.388397,121.202728 296.359680,120.920815 
	C300.221771,120.764618 301.086823,122.223763 301.069336,125.825752 
	C300.933075,153.922089 300.979156,182.019318 300.482971,210.562363 
	C290.331635,211.059921 280.666229,211.111389 270.536194,211.097321 
	C260.381012,211.076157 250.690399,211.120544 240.999786,211.164948 
z"/>
<path fill="#1E6F50" opacity="1.000000" stroke="none" 
	d="
M300.986084,330.985626 
	C300.974609,340.756073 300.974609,350.538300 300.974609,361.035980 
	C291.071686,361.035980 281.496704,361.035980 270.991821,361.032837 
	C230.377518,361.074799 190.693100,361.119904 151.008698,361.165039 
	C141.230331,361.165039 131.451981,361.165039 121.006020,361.165039 
	C121.006020,351.066101 121.006020,341.489197 121.016846,331.441833 
	C121.027664,330.971344 121.000755,330.999054 121.457428,331.001892 
	C131.587448,330.953064 141.260803,330.901367 151.404373,330.904907 
	C160.916183,330.918793 169.957779,330.877411 179.341934,330.891724 
	C180.144791,330.914764 180.605072,330.882141 181.526245,330.911285 
	C191.636124,330.931946 201.285141,330.890808 211.404373,330.904938 
	C221.605026,330.923370 231.335464,330.886536 241.526733,330.911377 
	C251.636978,330.931824 261.286377,330.890564 271.405518,330.904602 
	C281.590393,330.980072 291.305481,331.000336 301.020599,331.020599 
	C301.020599,331.020599 300.997559,330.997406 300.986084,330.985626 
z"/>
<path fill="#C7CFDD" opacity="1.000000" stroke="none" 
	d="
M151.006363,361.622437 
	C190.693100,361.119904 230.377518,361.074799 270.526611,361.097351 
	C270.998993,370.798492 271.006622,380.431915 271.033081,390.534241 
	C261.355896,391.008331 251.659882,391.013580 241.499191,391.043884 
	C221.325974,391.052765 201.617432,391.036530 181.437195,391.044647 
	C171.275162,391.046143 161.584824,391.023285 151.421280,391.001801 
	C150.966721,381.362061 150.985367,371.720978 151.006363,361.622437 
z"/>
<path fill="#FFFFFF" opacity="1.000000" stroke="none" 
	d="
M121.030151,211.521103 
	C130.723633,211.047928 140.397644,211.039841 150.535858,211.553406 
	C151.000092,221.645630 151.000092,231.216202 151.000092,241.048080 
	C161.366516,241.048080 171.149368,241.048080 180.932236,241.048080 
	C180.932236,250.842529 180.932236,260.636993 180.932236,270.980682 
	C161.115463,270.980682 141.532425,270.980682 121.484467,270.910767 
	C121.016586,251.222610 121.013634,231.604401 121.030151,211.521103 
z"/>
<path fill="#FFFFFF" opacity="1.000000" stroke="none" 
	d="
M240.999863,211.621643 
	C250.690399,211.120544 260.381012,211.076157 270.535889,211.553421 
	C271.000122,221.640396 271.000122,231.205719 271.000122,240.987030 
	C281.342377,240.987030 291.116180,240.987030 300.889984,240.987030 
	C300.924225,250.633347 300.958466,260.279663 300.986542,270.383423 
	C281.200317,270.840851 261.420258,270.840851 240.999939,270.840851 
	C240.999939,251.205795 240.999939,231.642059 240.999863,211.621643 
z"/>
<path fill="#131313" opacity="1.000000" stroke="none" 
	d="
M300.937256,240.520233 
	C291.116180,240.987030 281.342377,240.987030 271.000122,240.987030 
	C271.000122,231.205719 271.000122,221.640396 271.000458,211.618973 
	C280.666229,211.111389 290.331635,211.059921 300.457520,211.034119 
	C300.940155,220.724335 300.962341,230.388885 300.937256,240.520233 
z"/>
<path fill="#FFEB57" opacity="1.000000" stroke="none" 
	d="
M270.473541,150.990204 
	C270.957092,159.445221 270.867920,167.907990 271.054932,176.364670 
	C271.127502,179.648178 270.357208,181.198868 266.670471,181.070862 
	C259.545471,180.823486 252.402695,180.874466 245.273697,181.054749 
	C242.066299,181.135880 240.868408,180.107407 240.942200,176.807495 
	C241.127594,168.516708 241.012680,160.219208 241.041138,151.454651 
	C250.713135,150.988419 260.362152,150.991974 270.473541,150.990204 
z"/>
<path fill="#FFEB57" opacity="1.000000" stroke="none" 
	d="
M180.473557,150.990204 
	C180.957108,159.445221 180.868042,167.907990 181.054932,176.364670 
	C181.127502,179.648041 180.357269,181.198898 176.670471,181.070877 
	C169.545502,180.823486 162.402695,180.874466 155.273697,181.054764 
	C152.066299,181.135880 150.868408,180.107407 150.942215,176.807495 
	C151.127625,168.516708 151.012680,160.219208 151.041138,151.454651 
	C160.713135,150.988419 170.362167,150.991974 180.473557,150.990204 
z"/>
<path fill="#C7CFDD" opacity="1.000000" stroke="none" 
	d="
M210.934158,330.849670 
	C201.285141,330.890808 191.636124,330.931946 181.505280,330.455719 
	C180.700409,324.948212 180.377380,319.958038 180.088150,314.561401 
	C180.049652,310.064484 179.977341,305.974030 179.905029,301.883545 
	C183.450851,301.589050 186.992996,301.111542 190.543320,301.039856 
	C197.030457,300.908844 203.522446,301.017944 210.494461,301.546448 
	C210.962387,311.660553 210.948273,321.255127 210.934158,330.849670 
z"/>
<path fill="#92A1B9" opacity="1.000000" stroke="none" 
	d="
M301.013062,330.550659 
	C291.305481,331.000336 281.590393,330.980072 271.426178,330.446716 
	C270.963409,320.339325 270.949738,310.745026 270.936096,301.150757 
	C280.711670,301.150757 290.487244,301.150757 301.005493,301.150757 
	C301.005493,310.943359 301.005493,320.512024 301.013062,330.550659 
z"/>
<path fill="#C7CFDD" opacity="1.000000" stroke="none" 
	d="
M270.475220,301.088806 
	C270.949738,310.745026 270.963409,320.339325 270.956421,330.391479 
	C261.286377,330.890564 251.636978,330.931824 241.505524,330.453552 
	C241.037567,320.339447 241.051651,310.744904 241.065720,301.150360 
	C250.715256,301.109192 260.364807,301.068024 270.475220,301.088806 
z"/>
<path fill="#92A1B9" opacity="1.000000" stroke="none" 
	d="
M240.595551,301.095123 
	C241.051651,310.744904 241.037567,320.339447 241.044708,330.391846 
	C231.335464,330.886536 221.605026,330.923370 211.404373,330.904938 
	C210.948273,321.255127 210.962387,311.660553 210.955292,301.608185 
	C220.664520,301.113525 230.394958,301.076691 240.595551,301.095123 
z"/>
<path fill="#C7CFDD" opacity="1.000000" stroke="none" 
	d="
M150.934143,330.849670 
	C141.260803,330.901367 131.587448,330.953064 121.443832,331.015564 
	C120.973564,321.241272 120.973564,311.456085 120.973564,301.026917 
	C130.866943,301.026917 140.439713,301.026917 150.494492,301.546448 
	C150.962387,311.660553 150.948273,321.255127 150.934143,330.849670 
z"/>
<path fill="#131313" opacity="1.000000" stroke="none" 
	d="
M180.956879,240.577972 
	C171.149368,241.048080 161.366516,241.048080 151.000092,241.048080 
	C151.000092,231.216202 151.000092,221.645630 151.000458,211.618958 
	C160.686523,211.115952 170.372238,211.069031 180.521881,211.093292 
	C180.984360,220.812271 180.982941,230.460068 180.956879,240.577972 
z"/>
<path fill="#92A1B9" opacity="1.000000" stroke="none" 
	d="
M176.112076,302.959412 
	C176.112076,302.959442 176.543945,302.959381 176.765533,303.374664 
	C176.654938,310.392670 176.220062,316.992645 176.041016,323.599518 
	C175.969284,326.245697 174.843094,327.069672 172.388458,327.020172 
	C167.906479,326.929779 163.415787,326.860687 158.939438,327.043884 
	C155.833542,327.170990 154.895065,325.873657 154.957718,322.927185 
	C155.098907,316.287506 155.000763,309.642700 155.468536,303.000000 
	C162.662079,302.986450 169.387085,302.972931 176.112076,302.959412 
z"/>
<path fill="#92A1B9" opacity="1.000000" stroke="none" 
	d="
M155.000000,303.000000 
	C155.000763,309.642700 155.098907,316.287506 154.957718,322.927185 
	C154.895065,325.873657 155.833542,327.170990 158.939438,327.043884 
	C163.415787,326.860687 167.906479,326.929779 172.388458,327.020172 
	C174.843094,327.069672 175.969284,326.245697 176.041016,323.599518 
	C176.220062,316.992645 176.654938,310.392670 176.977875,303.335419 
	C177.729767,302.577393 178.490936,302.273895 179.578552,301.927002 
	C179.977341,305.974030 180.049652,310.064484 179.796234,314.864960 
	C179.313446,320.661987 179.156418,325.748993 178.999390,330.836029 
	C169.957779,330.877411 160.916183,330.918793 151.404358,330.904907 
	C150.948273,321.255127 150.962387,311.660553 150.955322,301.608154 
	C152.019943,301.115295 153.105713,301.080231 154.595642,301.410339 
	C154.999863,302.183685 154.999939,302.591827 155.000000,303.000000 
z"/>
<path fill="#92A1B9" opacity="1.000000" stroke="none" 
	d="
M155.468536,303.000000 
	C154.999939,302.591827 154.999863,302.183685 154.999542,301.469666 
	C160.983780,301.110016 166.968735,301.003540 172.952347,301.054535 
	C173.942947,301.062927 174.927673,301.759674 176.013596,302.548859 
	C169.387085,302.972931 162.662079,302.986450 155.468536,303.000000 
z"/>
<path fill="#92A1B9" opacity="1.000000" stroke="none" 
	d="
M179.341949,330.891724 
	C179.156418,325.748993 179.313446,320.661987 179.762421,315.271423 
	C180.377380,319.958038 180.700409,324.948212 181.044403,330.393951 
	C180.605072,330.882141 180.144791,330.914764 179.341949,330.891724 
z"/>
</svg>