<svg width="427" height="428" viewBox="0 0 427 428" fill="none" xmlns="http://www.w3.org/2000/svg">
<g id="crown-cartrl 1" clip-path="url(#clip0_1_2)" filter="url(#filter0_d_1_2)">
<path id="background" d="M124 421C84.0117 421 44.0234 421 4.01752 421C4.01752 281.053 4.01752 141.105 4.01752 1.07883C143.907 1.07883 283.813 1.07883 423.86 1.07883C423.86 141 423.86 281 423.86 421C384.248 421 344.593 421 304.469 420.531C304 410.521 304 400.979 304 390.954C293.495 390.954 283.749 390.954 274.002 390.98C274.001 391.005 274.052 391.003 274.033 390.534C274.007 380.432 273.999 370.798 274.457 361.101C284.497 361.036 294.072 361.036 303.975 361.036C303.975 350.538 303.975 340.756 304.445 330.984C314.486 330.994 324.057 330.994 333.649 330.994C333.649 310.672 333.649 291.008 333.649 270.841C323.528 270.841 313.754 270.841 303.987 270.383C303.958 260.28 303.924 250.633 303.937 240.52C303.962 230.389 303.94 220.724 303.943 210.588C303.979 182.019 303.933 153.922 304.069 125.826C304.087 122.224 303.222 120.765 299.36 120.921C292.388 121.203 285.392 121.169 278.417 120.931C274.836 120.81 273.868 122.154 273.937 125.55C274.109 134.025 273.957 142.506 273.474 150.99C263.362 150.992 253.713 150.988 244.044 150.518C244.016 141.914 243.891 133.775 244.056 125.641C244.123 122.368 243.382 120.89 239.685 120.926C222.583 121.096 205.478 121.092 188.376 120.928C184.753 120.893 183.873 122.23 183.939 125.581C184.104 134.045 183.957 142.516 183.474 150.99C173.362 150.992 163.713 150.988 154.044 150.518C154.016 142.07 153.851 134.085 154.069 126.111C154.171 122.379 153.328 120.696 149.143 120.908C142.343 121.251 135.506 121.196 128.701 120.924C124.919 120.772 123.908 122.086 123.927 125.766C124.076 154.195 124.033 182.626 124.03 211.521C124.014 231.604 124.017 251.223 123.553 270.903C113.517 270.965 103.947 270.965 94.3505 270.965C94.3505 291.327 94.3505 310.991 94.3505 330.971C104.474 330.971 114.251 330.971 124.017 331.442C124.006 341.489 124.006 351.066 124.006 361.165C134.452 361.165 144.23 361.165 154.006 361.622C153.985 371.721 153.967 381.362 153.978 391.005C154.008 391.008 154.003 390.948 153.534 390.967C143.523 390.986 133.98 390.986 124 390.986C124 401.505 124 411.253 124 421Z" fill="#D9BD62"/>
<path id="lower-body" d="M244 421C224.312 421 204.625 421 184.469 420.531C183.988 410.398 183.977 400.734 184.437 391.045C204.617 391.037 224.326 391.053 244.024 391.533C244.009 401.665 244.004 411.332 244 421Z" fill="#B4B4B4"/>
<path id="lower-body_2" d="M274.004 390.954C283.749 390.954 293.495 390.954 304 390.954C304 400.979 304 410.521 304 420.531C294.312 421 284.625 421 274.469 420.531C274.001 410.36 274.002 400.657 274.004 390.954Z" fill="#C7CFDD"/>
<path id="lower-body_3" d="M274.002 390.98C274.002 400.657 274.001 410.36 274 420.531C264.312 421 254.625 421 244.469 421C244.004 411.332 244.009 401.665 244.489 391.508C254.66 391.014 264.356 391.008 274.052 391.003C274.052 391.003 274.001 391.005 274.002 390.98Z" fill="#92A1B9"/>
<path id="lower-body_4" d="M183.965 391.069C183.977 400.734 183.989 410.398 184 420.531C174.312 421 164.625 421 154.469 420.531C154.001 410.358 154.002 400.653 154.003 390.948C154.003 390.948 154.008 391.008 154.451 391.004C164.585 391.023 174.275 391.046 183.965 391.069Z" fill="#92A1B9"/>
<path id="lower-body_5" d="M153.534 390.967C154.002 400.653 154.001 410.358 154 420.531C144.312 421 134.625 421 124.469 421C124 411.253 124 401.505 124 390.986C133.98 390.986 143.523 390.986 153.534 390.967Z" fill="#C7CFDD"/>
<path id="face" d="M303.98 270.841C313.754 270.841 323.528 270.841 333.649 270.841C333.649 291.008 333.649 310.672 333.649 330.994C324.057 330.994 314.486 330.994 304.456 330.996C303.998 330.997 304.021 331.021 304.013 330.551C304.005 320.512 304.005 310.943 304.005 301.151C293.487 301.151 283.712 301.151 273.475 301.089C263.365 301.068 253.715 301.109 243.596 301.095C233.395 301.077 223.665 301.114 213.473 301.089C206.522 301.018 200.03 300.909 193.543 301.04C189.993 301.112 186.451 301.589 182.579 301.927C181.491 302.274 180.73 302.577 179.756 302.92C179.544 302.959 179.112 302.959 179.014 302.549C177.928 301.76 176.943 301.063 175.952 301.055C169.969 301.004 163.984 301.11 157.595 301.104C156.106 301.08 155.02 301.115 153.473 301.089C143.44 301.027 133.867 301.027 123.974 301.027C123.974 311.456 123.974 321.241 123.987 331.013C124.001 330.999 124.028 330.971 124.028 330.971C114.251 330.971 104.474 330.971 94.3505 330.971C94.3505 310.991 94.3505 291.327 94.3505 270.965C103.947 270.965 113.517 270.965 124.018 270.973C144.532 270.981 164.115 270.981 183.932 270.981C183.932 260.637 183.932 250.843 183.957 240.578C183.983 230.46 183.984 220.812 184.451 211.097C204.611 211.074 224.305 211.12 244 211.622C244 231.642 244 251.206 244 270.841C264.42 270.841 284.2 270.841 303.98 270.841Z" fill="#1E6F50"/>
<path id="crown" d="M244 211.165C224.305 211.12 204.611 211.074 183.987 211.025C173.372 211.069 163.687 211.116 153.536 211.097C143.398 211.04 133.724 211.048 124.05 211.056C124.033 182.626 124.076 154.195 123.927 125.766C123.908 122.086 124.919 120.772 128.701 120.924C135.506 121.196 142.343 121.251 149.143 120.908C153.328 120.696 154.171 122.379 154.069 126.111C153.851 134.085 154.016 142.07 154.021 150.987C154.013 160.219 154.128 168.517 153.942 176.807C153.868 180.107 155.066 181.136 158.274 181.055C165.403 180.874 172.546 180.823 179.67 181.071C183.357 181.199 184.128 179.648 184.055 176.365C183.868 167.908 183.957 159.445 183.936 150.985C183.957 142.516 184.104 134.045 183.939 125.581C183.873 122.23 184.753 120.893 188.376 120.928C205.478 121.092 222.583 121.096 239.685 120.926C243.382 120.89 244.123 122.368 244.056 125.641C243.891 133.775 244.016 141.914 244.021 150.987C244.013 160.219 244.128 168.517 243.942 176.807C243.868 180.107 245.066 181.136 248.274 181.055C255.403 180.874 262.545 180.823 269.67 181.071C273.357 181.199 274.128 179.648 274.055 176.365C273.868 167.908 273.957 159.445 273.936 150.985C273.957 142.506 274.109 134.025 273.937 125.55C273.868 122.154 274.836 120.81 278.417 120.931C285.392 121.169 292.388 121.203 299.36 120.921C303.222 120.765 304.087 122.224 304.069 125.826C303.933 153.922 303.979 182.019 303.483 210.562C293.332 211.06 283.666 211.111 273.536 211.097C263.381 211.076 253.69 211.121 244 211.165Z" fill="#FFC825"/>
<path id="chin" d="M303.986 330.986C303.975 340.756 303.975 350.538 303.975 361.036C294.072 361.036 284.497 361.036 273.992 361.033C233.378 361.075 193.693 361.12 154.009 361.165C144.23 361.165 134.452 361.165 124.006 361.165C124.006 351.066 124.006 341.489 124.017 331.442C124.028 330.971 124.001 330.999 124.457 331.002C134.587 330.953 144.261 330.901 154.404 330.905C163.916 330.919 172.958 330.877 182.342 330.892C183.145 330.915 183.605 330.882 184.526 330.911C194.636 330.932 204.285 330.891 214.404 330.905C224.605 330.923 234.335 330.887 244.527 330.911C254.637 330.932 264.286 330.891 274.406 330.905C284.59 330.98 294.305 331 304.021 331.021C304.021 331.021 303.998 330.997 303.986 330.986Z" fill="#1E6F50"/>
<path id="neck" d="M154.006 361.622C193.693 361.12 233.378 361.075 273.527 361.097C273.999 370.799 274.007 380.432 274.033 390.534C264.356 391.008 254.66 391.014 244.499 391.044C224.326 391.053 204.617 391.037 184.437 391.045C174.275 391.046 164.585 391.023 154.421 391.002C153.967 381.362 153.985 371.721 154.006 361.622Z" fill="#C7CFDD"/>
<path id="eye" d="M124.03 211.521C133.724 211.048 143.398 211.04 153.536 211.553C154 221.646 154 231.216 154 241.048C164.367 241.048 174.149 241.048 183.932 241.048C183.932 250.843 183.932 260.637 183.932 270.981C164.115 270.981 144.532 270.981 124.484 270.911C124.017 251.223 124.014 231.604 124.03 211.521Z" fill="white"/>
<path id="eye_2" d="M244 211.622C253.69 211.121 263.381 211.076 273.536 211.553C274 221.64 274 231.206 274 240.987C284.342 240.987 294.116 240.987 303.89 240.987C303.924 250.633 303.958 260.28 303.987 270.383C284.2 270.841 264.42 270.841 244 270.841C244 251.206 244 231.642 244 211.622Z" fill="white"/>
<path id="Vector" d="M303.937 240.52C294.116 240.987 284.342 240.987 274 240.987C274 231.206 274 221.64 274 211.619C283.666 211.111 293.332 211.06 303.458 211.034C303.94 220.724 303.962 230.389 303.937 240.52Z" fill="#131313"/>
<path id="ring-in-crown" d="M273.474 150.99C273.957 159.445 273.868 167.908 274.055 176.365C274.128 179.648 273.357 181.199 269.67 181.071C262.545 180.823 255.403 180.874 248.274 181.055C245.066 181.136 243.868 180.107 243.942 176.807C244.128 168.517 244.013 160.219 244.041 151.455C253.713 150.988 263.362 150.992 273.474 150.99Z" fill="#FFEB57"/>
<path id="ring-in-crown_2" d="M183.474 150.99C183.957 159.445 183.868 167.908 184.055 176.365C184.128 179.648 183.357 181.199 179.67 181.071C172.546 180.823 165.403 180.874 158.274 181.055C155.066 181.136 153.868 180.107 153.942 176.807C154.128 168.517 154.013 160.219 154.041 151.455C163.713 150.988 173.362 150.992 183.474 150.99Z" fill="#FFEB57"/>
<path id="teeth" d="M213.934 330.85C204.285 330.891 194.636 330.932 184.505 330.456C183.7 324.948 183.377 319.958 183.088 314.561C183.05 310.064 182.977 305.974 182.905 301.884C186.451 301.589 189.993 301.112 193.543 301.04C200.03 300.909 206.522 301.018 213.494 301.546C213.962 311.661 213.948 321.255 213.934 330.85Z" fill="#C7CFDD"/>
<path id="teeth_2" d="M304.013 330.551C294.305 331 284.59 330.98 274.426 330.447C273.963 320.339 273.95 310.745 273.936 301.151C283.712 301.151 293.487 301.151 304.005 301.151C304.005 310.943 304.005 320.512 304.013 330.551Z" fill="#92A1B9"/>
<path id="teeth_3" d="M273.475 301.089C273.95 310.745 273.963 320.339 273.956 330.391C264.286 330.891 254.637 330.932 244.506 330.454C244.038 320.339 244.052 310.745 244.066 301.15C253.715 301.109 263.365 301.068 273.475 301.089Z" fill="#C7CFDD"/>
<path id="teeth_4" d="M243.596 301.095C244.052 310.745 244.038 320.339 244.045 330.392C234.335 330.887 224.605 330.923 214.404 330.905C213.948 321.255 213.962 311.661 213.955 301.608C223.665 301.114 233.395 301.077 243.596 301.095Z" fill="#92A1B9"/>
<path id="teeth_5" d="M153.934 330.85C144.261 330.901 134.587 330.953 124.444 331.016C123.974 321.241 123.974 311.456 123.974 301.027C133.867 301.027 143.44 301.027 153.494 301.546C153.962 311.661 153.948 321.255 153.934 330.85Z" fill="#C7CFDD"/>
<path id="Vector_2" d="M183.957 240.578C174.149 241.048 164.367 241.048 154 241.048C154 231.216 154 221.646 154 211.619C163.687 211.116 173.372 211.069 183.522 211.093C183.984 220.812 183.983 230.46 183.957 240.578Z" fill="#131313"/>
<path id="teeth_6" d="M179.112 302.959C179.112 302.959 179.544 302.959 179.766 303.375C179.655 310.393 179.22 316.993 179.041 323.6C178.969 326.246 177.843 327.07 175.388 327.02C170.906 326.93 166.416 326.861 161.939 327.044C158.834 327.171 157.895 325.874 157.958 322.927C158.099 316.288 158.001 309.643 158.469 303C165.662 302.986 172.387 302.973 179.112 302.959Z" fill="#92A1B9"/>
<path id="Vector_3" d="M158 303C158.001 309.643 158.099 316.288 157.958 322.927C157.895 325.874 158.834 327.171 161.939 327.044C166.416 326.861 170.906 326.93 175.388 327.02C177.843 327.07 178.969 326.246 179.041 323.6C179.22 316.993 179.655 310.393 179.978 303.335C180.73 302.577 181.491 302.274 182.579 301.927C182.977 305.974 183.05 310.064 182.796 314.865C182.313 320.662 182.156 325.749 181.999 330.836C172.958 330.877 163.916 330.919 154.404 330.905C153.948 321.255 153.962 311.661 153.955 301.608C155.02 301.115 156.106 301.08 157.596 301.41C158 302.184 158 302.592 158 303Z" fill="#92A1B9"/>
<path id="Vector_4" d="M158.469 303C158 302.592 158 302.184 158 301.47C163.984 301.11 169.969 301.004 175.952 301.055C176.943 301.063 177.928 301.76 179.014 302.549C172.387 302.973 165.662 302.986 158.469 303Z" fill="#92A1B9"/>
<path id="Vector_5" d="M182.342 330.892C182.156 325.749 182.313 320.662 182.762 315.271C183.377 319.958 183.7 324.948 184.044 330.394C183.605 330.882 183.145 330.915 182.342 330.892Z" fill="#92A1B9"/>
</g>
<defs>
<filter id="filter0_d_1_2" x="-1" y="0" width="428" height="428" filterUnits="userSpaceOnUse" color-interpolation-filters="sRGB">
<feFlood flood-opacity="0" result="BackgroundImageFix"/>
<feColorMatrix in="SourceAlpha" type="matrix" values="0 0 0 0 0 0 0 0 0 0 0 0 0 0 0 0 0 0 127 0" result="hardAlpha"/>
<feOffset dy="4"/>
<feGaussianBlur stdDeviation="2"/>
<feComposite in2="hardAlpha" operator="out"/>
<feColorMatrix type="matrix" values="0 0 0 0 0 0 0 0 0 0 0 0 0 0 0 0 0 0 0.25 0"/>
<feBlend mode="normal" in2="BackgroundImageFix" result="effect1_dropShadow_1_2"/>
<feBlend mode="normal" in="SourceGraphic" in2="effect1_dropShadow_1_2" result="shape"/>
</filter>
<clipPath id="clip0_1_2">
<rect width="420" height="420" fill="white" transform="translate(3)"/>
</clipPath>
</defs>
</svg>
