<svg version="1.1" id="Layer_1" xmlns="http://www.w3.org/2000/svg" xmlns:xlink="http://www.w3.org/1999/xlink" x="0px" y="0px"
	 width="100%" viewBox="0 0 1016 1016" enable-background="new 0 0 1016 1016" xml:space="preserve">
<path fill="#D8BC69" opacity="1.000000" stroke="none" 
	d="
M292.000000,1017.000000 
	C195.011124,1017.000000 98.022263,1017.000000 1.016695,1017.000000 
	C1.016695,678.383301 1.016695,339.766632 1.016695,1.074982 
	C339.577820,1.074982 678.155640,1.074982 1016.866699,1.074982 
	C1016.866699,339.666626 1016.866699,678.333313 1016.866699,1017.000000 
	C921.560730,1017.000000 826.238342,1017.000000 730.468262,1016.531433 
	C730.031067,996.098328 730.053406,976.133850 730.045593,956.169312 
	C730.042847,949.088440 730.009521,949.013672 723.006104,949.001404 
	C702.708984,948.965759 682.411743,948.978760 662.114685,949.019348 
	C659.251282,949.025085 656.923584,949.063293 656.956116,944.993530 
	C657.136536,922.370850 657.130737,899.746765 657.642151,877.097778 
	C680.141846,877.362549 702.187866,877.699951 724.235046,877.855835 
	C726.061523,877.868774 727.896606,876.652405 729.833557,875.718750 
	C730.016052,875.240295 730.092712,875.050354 730.513489,874.718079 
	C731.224365,872.860413 731.914429,871.143982 731.908569,869.429871 
	C731.839233,848.996887 731.744263,828.563110 731.432068,808.132996 
	C731.387878,805.242554 732.257202,804.019836 734.931091,804.032837 
	C756.890503,804.139526 778.851135,804.187988 800.807739,804.507324 
	C804.684326,804.563660 805.967896,803.266541 805.661804,799.638855 
	C805.369080,796.169250 805.064392,792.686157 805.060974,789.208740 
	C805.020264,747.429749 805.047791,705.650757 804.998718,663.871826 
	C804.996033,661.593628 804.473389,659.316101 804.026489,656.773682 
	C803.513062,656.281799 803.166016,656.054443 802.472534,655.629761 
	C800.146240,655.276428 798.166748,654.989441 796.186646,654.985291 
	C779.026062,654.949524 761.864563,655.053040 744.705200,654.900818 
	C740.533752,654.863892 736.369324,654.034973 731.054810,653.442322 
	C731.054810,648.690979 731.025330,643.644470 731.059387,638.598389 
	C731.350891,595.471313 731.692688,552.344543 731.934937,509.217163 
	C732.038818,490.724243 731.987793,472.229889 731.857422,453.737244 
	C731.846313,452.156799 730.702759,450.584351 730.068481,448.677063 
	C730.081177,447.905182 730.110657,447.464447 730.370972,446.951172 
	C730.452637,446.242828 730.303406,445.607086 730.120972,444.643219 
	C730.094849,443.875763 730.101990,443.436401 730.429077,442.845764 
	C731.163025,440.815796 731.577148,438.937073 732.333618,437.030762 
	C733.133789,437.008606 733.591553,437.014099 734.141785,437.122498 
	C734.234253,437.225372 734.624817,437.283203 734.624817,437.283203 
	C734.624817,437.283203 734.956482,437.057312 735.427673,437.044128 
	C757.952209,437.023193 780.005554,437.015411 802.301270,437.178894 
	C803.590820,435.859131 805.371216,434.441467 805.529297,432.861450 
	C805.838257,429.773010 805.051941,426.594116 805.048096,423.452271 
	C805.002991,386.671875 805.001465,349.891357 805.050781,313.110962 
	C805.054993,309.969879 805.674011,306.830933 805.703613,303.688141 
	C805.737732,300.061554 805.806152,296.363617 805.157166,292.825531 
	C804.660522,290.118073 803.414673,289.861450 800.531372,290.898407 
	C730.556580,290.960999 661.048706,290.980377 591.540833,291.012726 
	C589.049622,291.013885 586.558472,291.143066 583.596802,291.144379 
	C540.031860,291.055206 496.937347,291.025909 453.842834,291.024078 
	C448.522736,291.023834 443.202606,291.169830 437.901062,291.193787 
	C437.919617,291.139496 437.972260,291.037537 437.884308,290.924011 
	C437.521606,290.643799 437.273010,290.681213 436.579346,290.949188 
	C388.380341,290.958893 340.652435,290.942169 292.822693,290.836853 
	C292.423309,290.672028 292.201965,290.775360 292.077454,291.113037 
	C292.098053,291.167877 292.121063,291.282745 291.646484,291.209290 
	C283.511749,291.094269 275.851654,291.022034 268.191498,291.017670 
	C253.202408,291.009094 238.213272,291.039062 223.224167,291.051422 
	C220.220001,291.053894 217.496323,291.122101 217.661728,295.443573 
	C217.941666,302.757812 218.002716,310.083618 218.008636,317.404633 
	C218.038498,354.378265 218.046463,391.351898 218.000809,428.325470 
	C217.990143,436.957123 217.880341,436.986908 226.470566,436.996613 
	C245.123917,437.017700 263.777283,437.003845 282.430664,437.006866 
	C291.350677,437.008301 292.069611,437.629181 291.955261,446.715759 
	C291.666748,469.644623 291.094818,492.571045 290.955017,515.500366 
	C290.777283,544.645142 290.981049,573.792053 290.889435,602.937683 
	C290.833984,620.573486 290.530640,638.208435 289.840515,655.907715 
	C265.773407,655.971558 242.204407,655.971558 217.987610,655.971558 
	C217.987610,658.572510 217.987610,660.515930 217.987610,662.459351 
	C217.987564,692.734558 217.987411,723.009766 217.987518,753.284973 
	C217.987579,768.422546 217.973846,783.560181 218.005463,798.697693 
	C218.009689,800.717407 217.286346,803.437805 221.256104,802.892456 
	C221.669296,802.923645 221.835861,802.889343 222.467041,802.919312 
	C245.927505,803.021545 268.923370,803.059631 291.964050,803.558289 
	C292.008911,827.793457 292.008911,851.568054 292.008911,875.990662 
	C294.570465,875.990662 296.517334,875.985291 298.464142,875.991394 
	C320.621521,876.060730 342.778870,876.131836 364.948669,876.658325 
	C364.969086,899.241211 364.866699,921.369385 365.078400,943.494507 
	C365.120728,947.911987 363.797485,949.144226 359.412964,949.098694 
	C338.785614,948.884888 318.153656,949.125183 297.526001,948.926819 
	C293.121918,948.884583 291.843018,950.243103 291.887268,954.612061 
	C292.097931,975.406250 291.992767,996.203735 292.000000,1017.000000 
z"/>
<path fill="#FBD3ED" opacity="1.000000" stroke="none" 
	d="
M657.188721,877.123108 
	C657.130737,899.746765 657.136536,922.370850 656.956116,944.993530 
	C656.923584,949.063293 659.251282,949.025085 662.114685,949.019348 
	C682.411743,948.978760 702.708984,948.965759 723.006104,949.001404 
	C730.009521,949.013672 730.042847,949.088440 730.045593,956.169312 
	C730.053406,976.133850 730.031067,996.098328 730.010315,1016.531433 
	C584.312439,1017.000000 438.624878,1017.000000 292.468658,1017.000000 
	C291.992767,996.203735 292.097931,975.406250 291.887268,954.612061 
	C291.843018,950.243103 293.121918,948.884583 297.526001,948.926819 
	C318.153656,949.125183 338.785614,948.884888 359.412964,949.098694 
	C363.797485,949.144226 365.120728,947.911987 365.078400,943.494507 
	C364.866699,921.369385 364.969086,899.241211 365.422974,876.583313 
	C387.575653,876.035156 409.266418,876.033142 430.957092,875.978943 
	C433.414825,875.972839 435.871857,875.673035 438.750549,875.645264 
	C451.937347,875.853027 464.702881,875.998169 477.468170,875.974915 
	C488.567871,875.954651 499.667206,875.744141 511.226074,875.778687 
	C520.999390,875.959778 530.313354,875.987122 539.627319,875.999023 
	C578.712830,876.048950 617.798279,876.094299 656.946045,876.391113 
	C657.068481,876.801636 657.128601,876.962402 657.188721,877.123108 
z"/>
<path fill="#C8D0DD" opacity="1.000000" stroke="none" 
	d="
M584.067261,291.212616 
	C586.558472,291.143066 589.049622,291.013885 591.540833,291.012726 
	C661.048706,290.980377 730.556580,290.960999 800.817688,291.141663 
	C802.343079,293.614319 803.781982,295.882782 803.788818,298.155548 
	C803.921997,342.254791 803.913879,386.354553 803.810181,430.453949 
	C803.805054,432.639893 802.668579,434.823120 802.058899,437.007629 
	C780.005554,437.015411 757.952209,437.023193 735.202393,437.006134 
	C734.505920,436.981293 734.049316,437.019592 734.049316,437.019592 
	C733.591553,437.014099 733.133789,437.008606 731.970276,437.119629 
	C730.879395,439.156403 730.494202,441.076721 730.109070,442.997040 
	C730.101990,443.436401 730.094849,443.875763 730.068787,444.983826 
	C730.079956,446.109558 730.110046,446.566650 730.140137,447.023712 
	C730.110657,447.464447 730.081177,447.905182 730.006897,449.140930 
	C729.975708,471.754913 729.982056,493.573883 730.004211,515.392883 
	C730.051758,562.196350 730.107483,608.999756 730.106445,655.870178 
	C730.053101,655.937134 730.051147,656.108398 729.809692,656.049316 
	C729.568237,655.990295 729.097473,655.830322 729.078979,655.372864 
	C729.049927,609.094299 729.043274,563.273132 729.024597,517.452026 
	C729.021606,510.132812 728.823914,509.974121 721.368835,509.974945 
	C604.732910,509.987976 488.096924,510.000916 371.460968,509.988098 
	C369.311096,509.987854 367.161255,509.673248 365.004578,509.067749 
	C364.996368,486.817535 364.876740,465.003784 365.086334,443.193207 
	C365.132050,438.437988 363.731537,436.855194 358.878204,436.908417 
	C338.400238,437.133118 317.917999,436.941559 297.437958,437.036072 
	C293.863770,437.052582 291.920532,436.380615 291.933807,432.144989 
	C292.080994,385.191162 292.081146,338.236908 292.121063,291.282745 
	C292.121063,291.282745 292.098053,291.167877 292.297119,291.098999 
	C292.496155,291.030121 292.924561,290.925446 292.924561,290.925446 
	C340.652435,290.942169 388.380341,290.958893 436.806885,290.998047 
	C437.505524,291.020477 437.972260,291.037537 437.972260,291.037537 
	C437.972260,291.037537 437.919617,291.139496 437.931824,291.638123 
	C437.963013,313.760254 437.978760,335.383759 438.002930,357.007294 
	C438.010712,363.975006 438.020844,363.995819 444.793793,363.995880 
	C491.202057,363.996277 537.610352,363.987244 584.010010,364.451843 
	C584.003052,387.068085 584.103088,409.214569 583.922607,431.358765 
	C583.886841,435.747864 585.298401,437.118439 589.657593,437.079742 
	C610.136536,436.897888 630.619202,436.884888 651.097717,437.089539 
	C655.664917,437.135162 657.138611,435.740692 657.090637,431.128967 
	C656.879456,410.817078 656.872559,390.500366 657.094177,370.188690 
	C657.145935,365.447296 655.794312,363.849945 650.916199,363.900940 
	C628.606445,364.134216 606.292908,364.013031 583.989624,363.549377 
	C584.021423,339.123962 584.044373,315.168274 584.067261,291.212616 
z"/>
<path fill="#B3B5B4" opacity="1.000000" stroke="none" 
	d="
M291.646484,291.209290 
	C292.081146,338.236908 292.080994,385.191162 291.933807,432.144989 
	C291.920532,436.380615 293.863770,437.052582 297.437958,437.036072 
	C317.917999,436.941559 338.400238,437.133118 358.878204,436.908417 
	C363.731537,436.855194 365.132050,438.437988 365.086334,443.193207 
	C364.876740,465.003784 364.996368,486.817535 364.941101,509.271057 
	C364.884430,509.912018 364.834045,510.332764 364.387451,510.237610 
	C341.827209,510.083649 319.713348,510.061188 297.600159,509.930878 
	C293.839325,509.908722 292.699127,511.722351 292.698914,515.161438 
	C292.696045,562.045776 292.642944,608.930176 292.340088,655.864136 
	C291.733673,655.995789 291.389435,656.077942 290.869751,656.078491 
	C290.694275,655.996826 290.338684,655.843811 290.338684,655.843811 
	C290.530640,638.208435 290.833984,620.573486 290.889435,602.937683 
	C290.981049,573.792053 290.777283,544.645142 290.955017,515.500366 
	C291.094818,492.571045 291.666748,469.644623 291.955261,446.715759 
	C292.069611,437.629181 291.350677,437.008301 282.430664,437.006866 
	C263.777283,437.003845 245.123917,437.017700 226.470566,436.996613 
	C217.880341,436.986908 217.990143,436.957123 218.000809,428.325470 
	C218.046463,391.351898 218.038498,354.378265 218.008636,317.404633 
	C218.002716,310.083618 217.941666,302.757812 217.661728,295.443573 
	C217.496323,291.122101 220.220001,291.053894 223.224167,291.051422 
	C238.213272,291.039062 253.202408,291.009094 268.191498,291.017670 
	C275.851654,291.022034 283.511749,291.094269 291.646484,291.209290 
z"/>
<path fill="#246F51" opacity="1.000000" stroke="none" 
	d="
M656.883789,876.141357 
	C617.798279,876.094299 578.712830,876.048950 539.627319,875.999023 
	C530.313354,875.987122 520.999390,875.959778 511.291626,875.344360 
	C510.903107,850.879639 510.908386,827.010071 511.383240,803.094482 
	C514.682312,803.029907 517.511719,802.995178 520.341125,802.994934 
	C590.247864,802.989746 660.154541,802.988159 730.025330,803.454346 
	C730.049316,827.568542 730.109314,851.214478 730.169312,874.860352 
	C730.092712,875.050354 730.016052,875.240295 729.395142,875.684937 
	C704.861816,876.006897 680.872803,876.074097 656.883789,876.141357 
z"/>
<path fill="#246F51" opacity="1.000000" stroke="none" 
	d="
M438.329193,875.509399 
	C435.871857,875.673035 433.414825,875.972839 430.957092,875.978943 
	C409.266418,876.033142 387.575653,876.035156 365.410583,876.127441 
	C342.778870,876.131836 320.621521,876.060730 298.464142,875.991394 
	C296.517334,875.985291 294.570465,875.990662 292.008911,875.990662 
	C292.008911,851.568054 292.008911,827.793457 292.034515,803.499512 
	C292.060120,802.980042 292.186646,802.847046 292.638275,802.887085 
	C335.057129,802.949036 377.024323,802.962646 418.991547,803.001831 
	C425.314941,803.007690 431.638184,803.132874 437.974915,803.658569 
	C437.989594,815.935913 437.947601,827.757690 438.004364,839.578979 
	C438.061859,851.556030 438.216888,863.532593 438.329193,875.509399 
z"/>
<path fill="#B4B4B5" opacity="1.000000" stroke="none" 
	d="
M583.596802,291.144379 
	C584.044373,315.168274 584.021423,339.123962 583.999207,363.539978 
	C583.999939,364.000366 584.018616,363.981293 584.018616,363.981293 
	C537.610352,363.987244 491.202057,363.996277 444.793793,363.995880 
	C438.020844,363.995819 438.010712,363.975006 438.002930,357.007294 
	C437.978760,335.383759 437.963013,313.760254 437.913269,291.692383 
	C443.202606,291.169830 448.522736,291.023834 453.842834,291.024078 
	C496.937347,291.025909 540.031860,291.055206 583.596802,291.144379 
M485.500000,351.000000 
	C513.333008,351.000000 541.166077,350.994720 568.999084,351.011169 
	C570.993896,351.012360 573.008667,351.023132 574.979553,351.287415 
	C580.395752,352.013672 580.958618,351.617828 580.986084,345.959229 
	C581.045227,333.793213 581.141724,321.625458 580.974915,309.461823 
	C580.938721,306.821350 579.859802,304.195190 579.076416,300.749878 
	C579.170837,300.600952 580.232483,299.348175 580.754089,297.900848 
	C580.971069,297.298523 580.209656,296.066132 579.555542,295.540039 
	C579.209351,295.261597 577.700806,295.663971 577.465759,296.133698 
	C575.706360,299.648834 572.519348,298.987366 569.590149,298.988678 
	C531.590454,299.005585 493.590729,299.002625 455.591003,298.993988 
	C452.818329,298.993347 450.099518,299.421570 448.223358,296.173401 
	C447.635071,295.154877 444.632324,295.389740 442.733673,295.383698 
	C442.335205,295.382446 441.401978,297.300446 441.620605,297.554230 
	C442.718964,298.829468 444.051758,299.940033 445.439240,300.913025 
	C446.119019,301.389679 447.096436,301.441864 447.939148,301.686157 
	C446.331055,302.785767 444.623749,302.552185 443.282623,303.145874 
	C442.156158,303.644501 440.689667,305.103760 440.685455,306.143066 
	C440.640320,317.297760 440.773346,328.455444 441.035950,339.608093 
	C441.160950,344.916901 441.739807,350.213562 441.973419,355.521851 
	C442.095673,358.299103 443.125977,359.858154 446.104156,360.004883 
	C450.912964,360.241760 455.712280,360.943695 460.516693,360.954651 
	C496.849548,361.037659 533.182678,360.998657 569.515747,361.004059 
	C571.348083,361.004333 573.188110,361.178986 575.010437,361.058838 
	C576.519775,360.959351 578.094543,360.735321 579.442078,360.127167 
	C579.756531,359.985229 579.657104,357.460724 579.071289,357.083313 
	C577.690430,356.193817 575.917114,355.578674 574.274231,355.507385 
	C571.638794,355.393097 568.980530,355.972595 566.331665,355.975250 
	C529.831970,356.011932 493.332184,355.974854 456.832642,356.053345 
	C454.243927,356.058929 451.667633,356.936829 449.064240,357.190460 
	C447.872589,357.306580 446.248047,357.294983 445.516602,356.603912 
	C444.787170,355.914734 444.640503,354.276917 444.746399,353.100800 
	C445.010406,350.168915 445.896515,347.268036 445.940430,344.345825 
	C446.103210,333.515015 445.910736,322.677826 446.172638,311.850800 
	C446.209259,310.336304 448.034912,308.865021 449.032410,307.373718 
	C449.687286,308.878174 450.887207,310.374542 450.909760,311.888428 
	C451.073639,322.885895 451.141510,333.889648 450.933472,344.885590 
	C450.848389,349.382629 452.385895,351.187317 457.002014,351.068024 
	C466.162476,350.831360 475.333405,350.999298 485.500000,351.000000 
z"/>
<path fill="#2E6B4C" opacity="1.000000" stroke="none" 
	d="
M289.840515,655.907715 
	C290.338684,655.843811 290.694275,655.996826 290.679993,656.413818 
	C288.629852,657.220520 286.595459,657.940002 284.557953,657.948914 
	C264.035034,658.037964 243.511581,658.010498 222.598541,658.067017 
	C221.476807,660.082886 220.111481,662.045837 220.105988,664.012634 
	C219.984421,707.546326 219.996078,751.080383 220.058350,794.614319 
	C220.061844,797.066040 220.717010,799.516846 221.051849,802.182678 
	C221.034836,802.397278 221.009476,802.827087 221.009476,802.827087 
	C217.286346,803.437805 218.009689,800.717407 218.005463,798.697693 
	C217.973846,783.560181 217.987579,768.422546 217.987518,753.284973 
	C217.987411,723.009766 217.987564,692.734558 217.987610,662.459351 
	C217.987610,660.515930 217.987610,658.572510 217.987610,655.971558 
	C242.204407,655.971558 265.773407,655.971558 289.840515,655.907715 
z"/>
<path fill="#BDC483" opacity="1.000000" stroke="none" 
	d="
M730.513428,874.718079 
	C730.109314,851.214478 730.049316,827.568542 729.995972,803.454468 
	C730.002625,802.986267 730.009583,803.043762 730.343140,803.014038 
	C731.117126,802.915955 731.557434,802.847534 732.409912,802.845459 
	C734.213196,802.888916 735.604309,802.866028 737.460938,802.903442 
	C759.815613,802.963806 781.704712,802.963806 803.996521,802.963806 
	C803.996521,800.249756 803.996582,798.279663 803.996582,796.309570 
	C803.996643,764.858521 803.976257,733.407410 804.005432,701.956360 
	C804.019348,686.983582 804.127380,672.010986 804.192749,657.038269 
	C804.473389,659.316101 804.996033,661.593628 804.998718,663.871826 
	C805.047791,705.650757 805.020264,747.429749 805.060974,789.208740 
	C805.064392,792.686157 805.369080,796.169250 805.661804,799.638855 
	C805.967896,803.266541 804.684326,804.563660 800.807739,804.507324 
	C778.851135,804.187988 756.890503,804.139526 734.931091,804.032837 
	C732.257202,804.019836 731.387878,805.242554 731.432068,808.132996 
	C731.744263,828.563110 731.839233,848.996887 731.908569,869.429871 
	C731.914429,871.143982 731.224365,872.860413 730.513428,874.718079 
z"/>
<path fill="#BFC18C" opacity="1.000000" stroke="none" 
	d="
M730.159790,655.803223 
	C730.107483,608.999756 730.051758,562.196350 730.004211,515.392883 
	C729.982056,493.573883 729.975708,471.754913 730.023682,449.472046 
	C730.702759,450.584351 731.846313,452.156799 731.857422,453.737244 
	C731.987793,472.229889 732.038818,490.724243 731.934937,509.217163 
	C731.692688,552.344543 731.350891,595.471313 731.059387,638.598389 
	C731.025330,643.644470 731.054810,648.690979 731.054810,653.442322 
	C736.369324,654.034973 740.533752,654.863892 744.705200,654.900818 
	C761.864563,655.053040 779.026062,654.949524 796.186646,654.985291 
	C798.166748,654.989441 800.146240,655.276428 802.028442,655.693604 
	C778.007141,655.904297 754.083496,655.853760 730.159790,655.803223 
z"/>
<path fill="#416737" opacity="1.000000" stroke="none" 
	d="
M730.106445,655.870178 
	C754.083496,655.853760 778.007141,655.904297 802.374878,655.890991 
	C803.166016,656.054443 803.513062,656.281799 804.026428,656.773682 
	C804.127380,672.010986 804.019348,686.983582 804.005432,701.956360 
	C803.976257,733.407410 803.996643,764.858521 803.996582,796.309570 
	C803.996582,798.279663 803.996521,800.249756 803.996521,802.963806 
	C781.704712,802.963806 759.815613,802.963806 737.474304,802.704407 
	C737.022156,802.445007 737.054382,802.047180 737.519653,802.045532 
	C757.140869,802.037415 776.296814,802.044922 795.452820,802.016846 
	C802.121948,802.007141 802.949890,801.187012 802.952209,794.515869 
	C802.967346,750.873474 802.966614,707.231140 802.952332,663.588745 
	C802.950256,657.406250 802.590088,657.008911 796.454041,657.038818 
	C775.309021,657.141846 754.164429,657.325623 733.019348,657.391235 
	C732.031311,657.394348 731.040588,656.555298 730.051147,656.108398 
	C730.051147,656.108398 730.053101,655.937134 730.106445,655.870178 
z"/>
<path fill="#2E6B4C" opacity="1.000000" stroke="none" 
	d="
M291.989685,803.038818 
	C268.923370,803.059631 245.927505,803.021545 222.462433,802.703369 
	C221.993210,802.423218 221.986038,801.990234 222.233353,801.983215 
	C222.480667,801.976196 222.974777,801.956848 223.444946,801.964661 
	C243.902161,801.978271 263.889526,801.925964 283.875946,802.038940 
	C287.872040,802.061523 290.117401,801.151672 290.056183,796.518005 
	C289.772430,775.045837 289.661591,753.570862 289.662659,732.096924 
	C289.662689,731.115540 291.343414,730.134338 292.198120,729.606079 
	C292.165527,754.321777 292.176086,778.584412 292.186646,802.847046 
	C292.186646,802.847046 292.060120,802.980042 291.989685,803.038818 
z"/>
<path fill="#BFC18C" opacity="1.000000" stroke="none" 
	d="
M802.301270,437.178894 
	C802.668579,434.823120 803.805054,432.639893 803.810181,430.453949 
	C803.913879,386.354553 803.921997,342.254791 803.788818,298.155548 
	C803.781982,295.882782 802.343079,293.614319 801.284607,291.100586 
	C803.414673,289.861450 804.660522,290.118073 805.157166,292.825531 
	C805.806152,296.363617 805.737732,300.061554 805.703613,303.688141 
	C805.674011,306.830933 805.054993,309.969879 805.050781,313.110962 
	C805.001465,349.891357 805.002991,386.671875 805.048096,423.452271 
	C805.051941,426.594116 805.838257,429.773010 805.529297,432.861450 
	C805.371216,434.441467 803.590820,435.859131 802.301270,437.178894 
z"/>
<path fill="#BDC483" opacity="1.000000" stroke="none" 
	d="
M656.946045,876.391113 
	C680.872803,876.074097 704.861816,876.006897 729.289246,875.973450 
	C727.896606,876.652405 726.061523,877.868774 724.235046,877.855835 
	C702.187866,877.699951 680.141846,877.362549 657.642090,877.097778 
	C657.128601,876.962402 657.068481,876.801636 656.946045,876.391113 
z"/>
<path fill="#BFC18C" opacity="1.000000" stroke="none" 
	d="
M730.428955,442.845764 
	C730.494202,441.076721 730.879395,439.156403 731.627869,437.147217 
	C731.577148,438.937073 731.163025,440.815796 730.428955,442.845764 
z"/>
<path fill="#BFC18C" opacity="1.000000" stroke="none" 
	d="
M730.371033,446.951172 
	C730.110046,446.566650 730.079956,446.109558 730.102051,445.311890 
	C730.303406,445.607086 730.452637,446.242828 730.371033,446.951172 
z"/>
<path fill="#236F51" opacity="1.000000" stroke="none" 
	d="
M221.986038,801.990234 
	C221.986038,801.990234 221.993210,802.423218 221.997803,802.639160 
	C221.835861,802.889343 221.669296,802.923645 221.256104,802.892456 
	C221.009476,802.827087 221.034836,802.397278 221.280731,802.190186 
	C221.526611,801.983154 221.986038,801.990234 221.986038,801.990234 
z"/>
<path fill="#BFC18C" opacity="1.000000" stroke="none" 
	d="
M437.884308,290.924011 
	C437.972260,291.037537 437.505524,291.020477 437.278015,290.971619 
	C437.273010,290.681213 437.521606,290.643799 437.884308,290.924011 
z"/>
<path fill="#BFC18C" opacity="1.000000" stroke="none" 
	d="
M292.822693,290.836853 
	C292.924561,290.925446 292.496155,291.030121 292.276520,291.044189 
	C292.201965,290.775360 292.423309,290.672028 292.822693,290.836853 
z"/>
<path fill="#BFC18C" opacity="1.000000" stroke="none" 
	d="
M734.141785,437.122498 
	C734.049316,437.019592 734.505920,436.981293 734.731201,437.019287 
	C734.956482,437.057312 734.624817,437.283203 734.624817,437.283203 
	C734.624817,437.283203 734.234253,437.225372 734.141785,437.122498 
z"/>
<path fill="#30F0FB" opacity="1.000000" stroke="none" 
	d="
M438.750549,875.645264 
	C438.216888,863.532593 438.061859,851.556030 438.004364,839.578979 
	C437.947601,827.757690 437.989594,815.935913 438.448883,803.580444 
	C462.910858,803.077881 486.912262,803.109192 510.913635,803.140503 
	C510.908386,827.010071 510.903107,850.879639 510.832275,875.183472 
	C499.667206,875.744141 488.567871,875.954651 477.468170,875.974915 
	C464.702881,875.998169 451.937347,875.853027 438.750549,875.645264 
z"/>
<path fill="#236F51" opacity="1.000000" stroke="none" 
	d="
M292.241333,729.153015 
	C291.343414,730.134338 289.662689,731.115540 289.662659,732.096924 
	C289.661591,753.570862 289.772430,775.045837 290.056183,796.518005 
	C290.117401,801.151672 287.872040,802.061523 283.875946,802.038940 
	C263.889526,801.925964 243.902161,801.978271 223.452087,801.500916 
	C222.988800,753.358215 222.988556,705.687012 222.988297,658.015869 
	C243.511581,658.010498 264.035034,658.037964 284.557953,657.948914 
	C286.595459,657.940002 288.629852,657.220520 290.855438,656.495483 
	C291.389435,656.077942 291.733673,655.995789 292.451111,655.928040 
	C292.824310,655.942383 292.942963,656.165039 293.147552,656.489014 
	C294.737671,657.201294 296.122040,657.923157 297.508881,657.927795 
	C318.674011,657.998962 339.839691,658.016113 361.004425,657.899109 
	C362.656494,657.890015 364.302551,656.791260 366.416565,656.115479 
	C414.791809,656.032043 462.701904,656.032043 511.200256,656.032043 
	C511.200256,631.299133 511.200256,607.255066 511.200256,583.295532 
	C535.712585,583.295532 559.632446,583.295532 584.138306,583.295532 
	C584.138306,607.633911 584.138306,631.676880 584.138306,656.011475 
	C586.369629,656.011475 588.017883,656.011536 589.666077,656.011414 
	C611.823608,656.009705 633.981140,656.030029 656.138672,656.000305 
	C680.458252,655.967712 704.777893,655.889038 729.097473,655.830322 
	C729.097473,655.830322 729.568237,655.990295 729.809692,656.049316 
	C731.040588,656.555298 732.031311,657.394348 733.019348,657.391235 
	C754.164429,657.325623 775.309021,657.141846 796.454041,657.038818 
	C802.590088,657.008911 802.950256,657.406250 802.952332,663.588745 
	C802.966614,707.231140 802.967346,750.873474 802.952209,794.515869 
	C802.949890,801.187012 802.121948,802.007141 795.452820,802.016846 
	C776.296814,802.044922 757.140869,802.037415 737.134460,802.008057 
	C734.534729,801.640747 732.785400,801.309326 731.031616,800.510620 
	C731.016235,776.363831 731.005310,752.684387 730.987549,728.622437 
	C730.445007,726.881226 729.909424,725.522583 729.875732,725.437195 
	C725.820007,726.457947 722.768433,727.895630 719.715637,727.898132 
	C583.295959,728.008789 446.876251,727.998657 310.456543,727.967651 
	C306.143951,727.966675 301.830170,727.444397 297.519531,727.480164 
	C296.019623,727.492554 294.527588,728.458435 292.836914,729.042603 
	C292.641907,729.096375 292.241333,729.153015 292.241333,729.153015 
z"/>
<path fill="#97FDFF" opacity="1.000000" stroke="none" 
	d="
M729.078979,655.372925 
	C704.777893,655.889038 680.458252,655.967712 656.138672,656.000305 
	C633.981140,656.030029 611.823608,656.009705 589.666077,656.011414 
	C588.017883,656.011536 586.369629,656.011475 584.138306,656.011475 
	C584.138306,631.676880 584.138306,607.633911 584.138306,583.295532 
	C559.632446,583.295532 535.712585,583.295532 511.200256,583.295532 
	C511.200256,607.255066 511.200256,631.299133 511.200256,656.032043 
	C462.701904,656.032043 414.791809,656.032043 366.155090,656.024170 
	C365.257080,655.946960 365.085724,655.877625 364.927094,655.351746 
	C364.960236,650.409241 365.002869,645.923340 364.997711,641.437439 
	C364.947723,597.735901 364.889740,554.034302 364.834045,510.332764 
	C364.834045,510.332764 364.884430,509.912018 364.947937,509.708679 
	C367.161255,509.673248 369.311096,509.987854 371.460968,509.988098 
	C488.096924,510.000916 604.732910,509.987976 721.368835,509.974945 
	C728.823914,509.974121 729.021606,510.132812 729.024597,517.452026 
	C729.043274,563.273132 729.049927,609.094299 729.078979,655.372925 
z"/>
<path fill="#B4B4B5" opacity="1.000000" stroke="none" 
	d="
M583.990356,364.009766 
	C606.292908,364.013031 628.606445,364.134216 650.916199,363.900940 
	C655.794312,363.849945 657.145935,365.447296 657.094177,370.188690 
	C656.872559,390.500366 656.879456,410.817078 657.090637,431.128967 
	C657.138611,435.740692 655.664917,437.135162 651.097717,437.089539 
	C630.619202,436.884888 610.136536,436.897888 589.657593,437.079742 
	C585.298401,437.118439 583.886841,435.747864 583.922607,431.358765 
	C584.103088,409.214569 584.003052,387.068085 584.010010,364.451843 
	C584.018616,363.981293 583.999939,364.000366 583.990356,364.009766 
z"/>
<path fill="#2FF1FC" opacity="1.000000" stroke="none" 
	d="
M364.387451,510.237610 
	C364.889740,554.034302 364.947723,597.735901 364.997711,641.437439 
	C365.002869,645.923340 364.960236,650.409241 364.475189,655.435364 
	C340.321381,656.038757 316.632172,656.101868 292.942963,656.165039 
	C292.942963,656.165039 292.824310,655.942383 292.713257,655.878418 
	C292.642944,608.930176 292.696045,562.045776 292.698914,515.161438 
	C292.699127,511.722351 293.839325,509.908722 297.600159,509.930878 
	C319.713348,510.061188 341.827209,510.083649 364.387451,510.237610 
z"/>
<path fill="#551C28" opacity="1.000000" stroke="none" 
	d="
M292.198120,729.606079 
	C292.241333,729.153015 292.641907,729.096375 293.301422,729.065613 
	C436.253387,729.035156 578.545837,729.034546 720.838257,729.042480 
	C723.835938,729.042664 726.833557,729.141602 729.850098,729.650452 
	C729.915771,754.418884 729.962708,778.731323 730.009583,803.043762 
	C730.009583,803.043762 730.002625,802.986267 730.031982,802.986084 
	C660.154541,802.988159 590.247864,802.989746 520.341125,802.994934 
	C517.511719,802.995178 514.682312,803.029907 511.383240,803.094482 
	C486.912262,803.109192 462.910858,803.077881 438.435486,803.124695 
	C431.638184,803.132874 425.314941,803.007690 418.991547,803.001831 
	C377.024323,802.962646 335.057129,802.949036 292.638275,802.887085 
	C292.176086,778.584412 292.165527,754.321777 292.198120,729.606079 
z"/>
<path fill="#B4B4B4" opacity="1.000000" stroke="none" 
	d="
M485.000000,351.000000 
	C475.333405,350.999298 466.162476,350.831360 457.002014,351.068024 
	C452.385895,351.187317 450.848389,349.382629 450.933472,344.885590 
	C451.141510,333.889648 451.073639,322.885895 450.909760,311.888428 
	C450.887207,310.374542 449.687286,308.878174 449.032410,307.373718 
	C448.034912,308.865021 446.209259,310.336304 446.172638,311.850800 
	C445.910736,322.677826 446.103210,333.515015 445.940430,344.345825 
	C445.896515,347.268036 445.010406,350.168915 444.746399,353.100800 
	C444.640503,354.276917 444.787170,355.914734 445.516602,356.603912 
	C446.248047,357.294983 447.872589,357.306580 449.064240,357.190460 
	C451.667633,356.936829 454.243927,356.058929 456.832642,356.053345 
	C493.332184,355.974854 529.831970,356.011932 566.331665,355.975250 
	C568.980530,355.972595 571.638794,355.393097 574.274231,355.507385 
	C575.917114,355.578674 577.690430,356.193817 579.071289,357.083313 
	C579.657104,357.460724 579.756531,359.985229 579.442078,360.127167 
	C578.094543,360.735321 576.519775,360.959351 575.010437,361.058838 
	C573.188110,361.178986 571.348083,361.004333 569.515747,361.004059 
	C533.182678,360.998657 496.849548,361.037659 460.516693,360.954651 
	C455.712280,360.943695 450.912964,360.241760 446.104156,360.004883 
	C443.125977,359.858154 442.095673,358.299103 441.973419,355.521851 
	C441.739807,350.213562 441.160950,344.916901 441.035950,339.608093 
	C440.773346,328.455444 440.640320,317.297760 440.685455,306.143066 
	C440.689667,305.103760 442.156158,303.644501 443.282623,303.145874 
	C444.623749,302.552185 446.331055,302.785767 447.939148,301.686157 
	C447.096436,301.441864 446.119019,301.389679 445.439240,300.913025 
	C444.051758,299.940033 442.718964,298.829468 441.620605,297.554230 
	C441.401978,297.300446 442.335205,295.382446 442.733673,295.383698 
	C444.632324,295.389740 447.635071,295.154877 448.223358,296.173401 
	C450.099518,299.421570 452.818329,298.993347 455.591003,298.993988 
	C493.590729,299.002625 531.590454,299.005585 569.590149,298.988678 
	C572.519348,298.987366 575.706360,299.648834 577.465759,296.133698 
	C577.700806,295.663971 579.209351,295.261597 579.555542,295.540039 
	C580.209656,296.066132 580.971069,297.298523 580.754089,297.900848 
	C580.232483,299.348175 579.170837,300.600952 579.076416,300.749878 
	C579.859802,304.195190 580.938721,306.821350 580.974915,309.461823 
	C581.141724,321.625458 581.045227,333.793213 580.986084,345.959229 
	C580.958618,351.617828 580.395752,352.013672 574.979553,351.287415 
	C573.008667,351.023132 570.993896,351.012360 568.999084,351.011169 
	C541.166077,350.994720 513.333008,351.000000 485.000000,351.000000 
M504.500000,306.000000 
	C526.628540,305.942749 548.757141,305.889526 570.885559,305.797791 
	C571.302185,305.796051 571.730225,305.357178 572.124268,305.081360 
	C572.235413,305.003510 572.275696,304.783051 572.291687,304.622375 
	C572.306824,304.469788 572.247375,304.309845 572.117065,303.543823 
	C570.926270,303.380798 569.545044,303.027618 568.163635,303.026520 
	C531.220764,302.997101 494.277924,302.990356 457.335205,303.052368 
	C455.794708,303.054962 454.255402,303.756836 452.715546,304.132935 
	C452.799164,304.755280 452.882782,305.377655 452.966400,306.000000 
	C469.810913,306.000000 486.655457,306.000000 504.500000,306.000000 
z"/>
<path fill="#1E7159" opacity="1.000000" stroke="none" 
	d="
M222.598541,658.067017 
	C222.988556,705.687012 222.988800,753.358215 222.981918,801.493103 
	C222.974777,801.956848 222.480667,801.976196 222.233353,801.983215 
	C221.986038,801.990234 221.526611,801.983154 221.297745,801.975586 
	C220.717010,799.516846 220.061844,797.066040 220.058350,794.614319 
	C219.996078,751.080383 219.984421,707.546326 220.105988,664.012634 
	C220.111481,662.045837 221.476807,660.082886 222.598541,658.067017 
z"/>
<path fill="#42604F" opacity="1.000000" stroke="none" 
	d="
M730.343140,803.014038 
	C729.962708,778.731323 729.915771,754.418884 730.139404,729.592102 
	C730.604675,729.053467 730.799500,729.029175 730.994385,729.004883 
	C731.005310,752.684387 731.016235,776.363831 731.132141,800.745483 
	C731.490723,801.891479 731.744263,802.335327 731.997803,802.779114 
	C731.557434,802.847534 731.117126,802.915955 730.343140,803.014038 
z"/>
<path fill="#2E6B4C" opacity="1.000000" stroke="none" 
	d="
M732.409912,802.845459 
	C731.744263,802.335327 731.490723,801.891479 731.136597,801.212769 
	C732.785400,801.309326 734.534729,801.640747 736.669189,802.009644 
	C737.054382,802.047180 737.022156,802.445007 737.008789,802.644043 
	C735.604309,802.866028 734.213196,802.888916 732.409912,802.845459 
z"/>
<path fill="#2E6B4C" opacity="1.000000" stroke="none" 
	d="
M730.987549,728.622437 
	C730.799500,729.029175 730.604675,729.053467 730.120544,729.136108 
	C726.833557,729.141602 723.835938,729.042664 720.838257,729.042480 
	C578.545837,729.034546 436.253387,729.035156 293.496429,729.011841 
	C294.527588,728.458435 296.019623,727.492554 297.519531,727.480164 
	C301.830170,727.444397 306.143951,727.966675 310.456543,727.967651 
	C446.876251,727.998657 583.295959,728.008789 719.715637,727.898132 
	C722.768433,727.895630 725.820007,726.457947 729.875732,725.437195 
	C729.909424,725.522583 730.445007,726.881226 730.987549,728.622437 
z"/>
<path fill="#2E6B4C" opacity="1.000000" stroke="none" 
	d="
M293.147552,656.489014 
	C316.632172,656.101868 340.321381,656.038757 364.462494,655.891968 
	C365.085724,655.877625 365.257080,655.946960 365.689941,656.107605 
	C364.302551,656.791260 362.656494,657.890015 361.004425,657.899109 
	C339.839691,658.016113 318.674011,657.998962 297.508881,657.927795 
	C296.122040,657.923157 294.737671,657.201294 293.147552,656.489014 
z"/>
<path fill="#B4B4B5" opacity="1.000000" stroke="none" 
	d="
M504.000000,306.000000 
	C486.655457,306.000000 469.810913,306.000000 452.966400,306.000000 
	C452.882782,305.377655 452.799164,304.755280 452.715546,304.132935 
	C454.255402,303.756836 455.794708,303.054962 457.335205,303.052368 
	C494.277924,302.990356 531.220764,302.997101 568.163635,303.026520 
	C569.545044,303.027618 570.926270,303.380798 572.117065,303.543823 
	C572.247375,304.309845 572.306824,304.469788 572.291687,304.622375 
	C572.275696,304.783051 572.235413,305.003510 572.124268,305.081360 
	C571.730225,305.357178 571.302185,305.796051 570.885559,305.797791 
	C548.757141,305.889526 526.628540,305.942749 504.000000,306.000000 
z"/>
</svg>