<svg width="638" height="628" viewBox="0 0 638 628" fill="none" xmlns="http://www.w3.org/2000/svg">
<g id="preloader">
<path id="Vector" d="M84.8766 304C56.5885 304 28.3005 304 0 304C0 205.019 0 106.037 0 7C98.9587 7 197.93 7 297 7C297 105.963 297 204.981 297 304C268.978 304 240.926 304 212.542 303.669C212.21 296.588 212.21 289.84 212.21 282.749C204.779 282.749 197.885 282.749 190.989 282.767C190.989 282.786 191.025 282.784 191.011 282.452C190.993 275.307 190.987 268.494 191.311 261.635C198.413 261.589 205.187 261.589 212.192 261.589C212.192 254.164 212.192 247.245 212.525 240.334C219.628 240.341 226.398 240.341 233.184 240.341C233.184 225.967 233.184 212.06 233.184 197.796C226.024 197.796 219.11 197.796 212.201 197.473C212.181 190.326 212.157 183.504 212.166 176.351C212.183 169.185 212.168 162.35 212.17 155.181C212.195 134.975 212.163 115.102 212.259 95.2305C212.272 92.6829 211.66 91.6508 208.928 91.7613C203.996 91.9607 199.047 91.9366 194.113 91.7689C191.58 91.6827 190.894 92.6336 190.943 95.0356C191.065 101.03 190.958 107.028 190.615 113.029C183.463 113.03 176.637 113.027 169.797 112.694C169.777 106.609 169.689 100.852 169.806 95.1001C169.852 92.785 169.328 91.7394 166.713 91.7653C154.615 91.8851 142.515 91.8825 130.416 91.7664C127.854 91.7419 127.231 92.687 127.278 95.0571C127.395 101.044 127.291 107.035 126.949 113.029C119.796 113.03 112.97 113.027 106.13 112.694C106.11 106.72 105.993 101.072 106.148 95.4322C106.22 92.7927 105.624 91.6023 102.663 91.752C97.8529 91.9952 93.0163 91.9556 88.2018 91.7633C85.5267 91.6564 84.8114 92.5853 84.8251 95.188C84.9307 115.296 84.9001 135.404 84.8979 155.841C84.8863 170.045 84.8883 183.921 84.5607 197.84C77.4608 197.884 70.6907 197.884 63.9023 197.884C63.9023 212.286 63.9023 226.193 63.9023 240.325C71.0639 240.325 77.98 240.325 84.8885 240.658C84.8809 247.764 84.8809 254.537 84.8809 261.68C92.2704 261.68 99.1877 261.68 106.103 262.004C106.089 269.146 106.075 275.965 106.083 282.786C106.104 282.787 106.101 282.745 105.769 282.758C98.6872 282.772 91.9366 282.772 84.8766 282.772C84.8766 290.212 84.8766 297.106 84.8766 304Z" fill="#D9BD62"/>
<g id="glass-cartel 1" clip-path="url(#clip0_19_354)">
<path id="Vector_2" d="M422.083 304.299C393.158 304.299 364.233 304.299 335.303 304.299C335.303 202.981 335.303 101.662 335.303 0.321655C436.272 0.321655 537.245 0.321655 638.258 0.321655C638.258 101.633 638.258 202.966 638.258 304.299C609.836 304.299 581.408 304.299 552.846 304.159C552.716 298.045 552.723 292.072 552.72 286.098C552.719 283.979 552.71 283.957 550.621 283.953C544.568 283.942 538.515 283.946 532.461 283.959C531.607 283.96 530.913 283.972 530.923 282.754C530.977 275.985 530.975 269.216 531.128 262.439C537.838 262.518 544.412 262.619 550.987 262.666C551.532 262.669 552.079 262.305 552.657 262.026C552.711 261.883 552.734 261.826 552.86 261.727C553.072 261.171 553.278 260.657 553.276 260.144C553.255 254.031 553.227 247.916 553.134 241.804C553.121 240.939 553.38 240.573 554.177 240.577C560.726 240.609 567.275 240.623 573.824 240.719C574.98 240.736 575.362 240.347 575.271 239.262C575.184 238.224 575.093 237.182 575.092 236.141C575.08 223.64 575.088 211.14 575.073 198.639C575.073 197.957 574.917 197.276 574.783 196.515C574.63 196.368 574.527 196.3 574.32 196.173C573.626 196.067 573.036 195.981 572.445 195.98C567.328 195.969 562.21 196 557.092 195.955C555.848 195.944 554.606 195.695 553.021 195.518C553.021 194.096 553.012 192.587 553.023 191.077C553.11 178.173 553.211 165.268 553.284 152.364C553.315 146.831 553.3 141.297 553.261 135.764C553.257 135.291 552.916 134.821 552.727 134.25C552.731 134.019 552.74 133.887 552.817 133.733C552.842 133.521 552.797 133.331 552.743 133.043C552.735 132.813 552.737 132.682 552.835 132.505C553.054 131.898 553.177 131.335 553.403 130.765C553.641 130.758 553.778 130.76 553.942 130.793C553.969 130.823 554.086 130.841 554.086 130.841C554.086 130.841 554.185 130.773 554.325 130.769C561.043 130.763 567.62 130.761 574.269 130.809C574.654 130.415 575.185 129.99 575.232 129.518C575.324 128.593 575.089 127.642 575.088 126.702C575.075 115.697 575.074 104.692 575.089 93.6867C575.09 92.7469 575.275 91.8077 575.284 90.8673C575.294 89.7822 575.314 88.6757 575.121 87.6171C574.973 86.807 574.601 86.7302 573.741 87.0405C552.873 87.0592 532.143 87.065 511.414 87.0747C510.671 87.075 509.928 87.1137 509.045 87.1141C496.053 87.0874 483.201 87.0786 470.349 87.0781C468.762 87.078 467.176 87.1217 465.595 87.1288C465.6 87.1126 465.616 87.0821 465.59 87.0481C465.481 86.9643 465.407 86.9755 465.2 87.0557C450.826 87.0586 436.592 87.0536 422.328 87.0221C422.209 86.9727 422.143 87.0037 422.106 87.1047C422.112 87.1211 422.119 87.1555 421.977 87.1335C419.551 87.0991 417.267 87.0775 414.982 87.0762C410.512 87.0736 406.042 87.0826 401.572 87.0863C400.676 87.087 399.864 87.1074 399.913 88.4004C399.996 90.589 400.015 92.7809 400.016 94.9715C400.025 106.034 400.028 117.097 400.014 128.16C400.011 130.743 399.978 130.752 402.54 130.755C408.103 130.761 413.666 130.757 419.229 130.758C421.889 130.758 422.103 130.944 422.069 133.663C421.983 140.524 421.813 147.383 421.771 154.244C421.718 162.965 421.779 171.686 421.751 180.407C421.735 185.683 421.644 190.96 421.439 196.256C414.261 196.275 407.232 196.275 400.01 196.275C400.01 197.053 400.01 197.635 400.01 198.216C400.01 207.275 400.01 216.334 400.01 225.392C400.01 229.922 400.006 234.451 400.015 238.98C400.017 239.585 399.801 240.399 400.985 240.236C401.108 240.245 401.158 240.235 401.346 240.244C408.343 240.274 415.201 240.286 422.072 240.435C422.085 247.686 422.085 254.8 422.085 262.107C422.849 262.107 423.43 262.106 424.01 262.108C430.618 262.128 437.226 262.15 443.838 262.307C443.844 269.064 443.814 275.685 443.877 282.305C443.889 283.627 443.495 283.996 442.187 283.982C436.035 283.918 429.882 283.99 423.731 283.931C422.417 283.918 422.036 284.325 422.049 285.632C422.112 291.854 422.081 298.077 422.083 304.299Z" fill="#D8BC69"/>
<path id="body" d="M530.992 262.446C530.975 269.216 530.977 275.985 530.923 282.754C530.913 283.972 531.607 283.96 532.461 283.959C538.515 283.946 544.568 283.943 550.621 283.953C552.71 283.957 552.719 283.979 552.72 286.098C552.723 292.072 552.716 298.045 552.71 304.159C509.259 304.299 465.81 304.299 422.222 304.299C422.081 298.077 422.112 291.854 422.049 285.632C422.036 284.325 422.417 283.918 423.731 283.931C429.882 283.99 436.035 283.918 442.187 283.982C443.495 283.996 443.889 283.627 443.877 282.305C443.814 275.685 443.844 269.064 443.979 262.285C450.586 262.121 457.055 262.12 463.524 262.104C464.257 262.102 464.989 262.012 465.848 262.004C469.781 262.066 473.588 262.11 477.395 262.103C480.705 262.097 484.015 262.034 487.462 262.044C490.377 262.098 493.154 262.106 495.932 262.11C507.589 262.125 519.245 262.138 530.92 262.227C530.956 262.35 530.974 262.398 530.992 262.446Z" fill="#FBD3ED"/>
<path id="Vector_3" d="M509.185 87.1345C509.928 87.1137 510.671 87.075 511.414 87.0747C532.143 87.065 552.873 87.0592 573.827 87.1132C574.281 87.8531 574.711 88.5319 574.713 89.2119C574.752 102.407 574.75 115.602 574.719 128.797C574.717 129.451 574.379 130.105 574.197 130.758C567.62 130.761 561.043 130.763 554.258 130.758C554.05 130.75 553.914 130.762 553.914 130.762C553.778 130.76 553.641 130.758 553.294 130.792C552.969 131.401 552.854 131.976 552.739 132.55C552.737 132.682 552.735 132.813 552.727 133.145C552.731 133.482 552.74 133.618 552.748 133.755C552.74 133.887 552.731 134.019 552.709 134.389C552.699 141.155 552.701 147.684 552.708 154.212C552.722 168.216 552.739 182.22 552.738 196.245C552.723 196.265 552.722 196.316 552.65 196.298C552.578 196.281 552.438 196.233 552.432 196.096C552.423 182.249 552.421 168.538 552.416 154.828C552.415 152.638 552.356 152.591 550.133 152.591C515.349 152.595 480.564 152.599 445.78 152.595C445.139 152.595 444.498 152.501 443.855 152.319C443.852 145.662 443.817 139.135 443.879 132.609C443.893 131.186 443.475 130.713 442.028 130.728C435.921 130.796 429.812 130.738 423.704 130.767C422.639 130.772 422.059 130.571 422.063 129.303C422.107 115.254 422.107 101.205 422.119 87.1555C422.119 87.1555 422.112 87.1211 422.171 87.1005C422.231 87.0799 422.358 87.0486 422.358 87.0486C436.592 87.0536 450.826 87.0586 465.268 87.0703C465.477 87.077 465.616 87.0821 465.616 87.0821C465.616 87.0821 465.6 87.1126 465.604 87.2618C465.613 93.881 465.618 100.351 465.625 106.821C465.627 108.906 465.63 108.912 467.65 108.912C481.49 108.912 495.331 108.91 509.168 109.049C509.166 115.816 509.196 122.442 509.142 129.068C509.132 130.381 509.553 130.791 510.853 130.78C516.96 130.725 523.069 130.721 529.176 130.783C530.538 130.796 530.977 130.379 530.963 128.999C530.9 122.922 530.898 116.843 530.964 110.765C530.98 109.346 530.576 108.868 529.122 108.884C522.468 108.954 515.814 108.917 509.162 108.779C509.172 101.47 509.179 94.3023 509.185 87.1345Z" fill="#C8D0DD"/>
<path id="Vector_4" d="M421.977 87.1335C422.107 101.205 422.107 115.254 422.063 129.303C422.059 130.571 422.638 130.772 423.704 130.767C429.812 130.738 435.921 130.796 442.028 130.729C443.475 130.713 443.893 131.186 443.879 132.609C443.817 139.135 443.852 145.662 443.836 152.38C443.819 152.572 443.804 152.698 443.671 152.67C436.943 152.623 430.348 152.617 423.753 152.578C422.631 152.571 422.291 153.114 422.291 154.143C422.29 168.171 422.274 182.2 422.184 196.243C422.003 196.282 421.901 196.307 421.746 196.307C421.693 196.283 421.587 196.237 421.587 196.237C421.644 190.96 421.735 185.683 421.751 180.407C421.779 171.686 421.718 162.965 421.771 154.244C421.813 147.383 421.983 140.524 422.069 133.663C422.103 130.944 421.889 130.758 419.229 130.758C413.666 130.757 408.103 130.761 402.54 130.755C399.978 130.752 400.011 130.743 400.014 128.16C400.028 117.097 400.025 106.034 400.016 94.9715C400.015 92.7809 399.996 90.589 399.913 88.4004C399.864 87.1074 400.676 87.087 401.572 87.0863C406.042 87.0826 410.512 87.0736 414.982 87.0762C417.267 87.0775 419.551 87.0991 421.977 87.1335Z" fill="#B3B5B4"/>
<path id="Vector_5" d="M530.901 262.153C519.245 262.138 507.589 262.125 495.932 262.11C493.154 262.106 490.377 262.098 487.482 261.914C487.366 254.594 487.367 247.452 487.509 240.296C488.493 240.277 489.337 240.266 490.18 240.266C511.029 240.265 531.877 240.264 552.714 240.404C552.721 247.619 552.739 254.694 552.757 261.769C552.734 261.826 552.711 261.883 552.526 262.016C545.21 262.112 538.056 262.132 530.901 262.153Z" fill="#246F51"/>
<path id="Vector_6" d="M465.722 261.963C464.989 262.012 464.257 262.102 463.524 262.104C457.055 262.12 450.586 262.121 443.976 262.148C437.226 262.15 430.618 262.128 424.01 262.108C423.43 262.106 422.849 262.107 422.085 262.107C422.085 254.8 422.085 247.686 422.093 240.417C422.101 240.262 422.138 240.222 422.273 240.234C434.924 240.252 447.439 240.257 459.955 240.268C461.841 240.27 463.727 240.307 465.617 240.465C465.621 244.138 465.608 247.676 465.625 251.213C465.642 254.796 465.689 258.38 465.722 261.963Z" fill="#246F51"/>
<path id="Vector_7" d="M509.045 87.1141C509.179 94.3023 509.172 101.47 509.165 108.776C509.165 108.913 509.171 108.908 509.171 108.908C495.331 108.91 481.49 108.912 467.65 108.912C465.63 108.912 465.627 108.906 465.625 106.821C465.618 100.351 465.613 93.881 465.598 87.278C467.176 87.1217 468.762 87.078 470.349 87.0781C483.201 87.0786 496.053 87.0874 509.045 87.1141ZM479.79 105.024C488.09 105.024 496.391 105.022 504.692 105.027C505.287 105.027 505.887 105.031 506.475 105.11C508.09 105.327 508.258 105.208 508.267 103.515C508.284 99.8751 508.313 96.2344 508.263 92.5949C508.252 91.8048 507.931 91.019 507.697 89.9881C507.725 89.9436 508.042 89.5687 508.197 89.1357C508.262 88.9555 508.035 88.5867 507.84 88.4293C507.737 88.346 507.287 88.4664 507.217 88.6069C506.692 89.6587 505.742 89.4608 504.868 89.4612C493.535 89.4662 482.203 89.4653 470.87 89.4628C470.043 89.4626 469.232 89.5907 468.673 88.6188C468.497 88.3141 467.602 88.3843 467.036 88.3825C466.917 88.3821 466.639 88.956 466.704 89.032C467.031 89.4135 467.429 89.7458 467.843 90.037C468.045 90.1796 468.337 90.1952 468.588 90.2683C468.109 90.5973 467.599 90.5274 467.199 90.7051C466.864 90.8543 466.426 91.2909 466.425 91.6019C466.411 94.9395 466.451 98.278 466.529 101.615C466.567 103.203 466.739 104.788 466.809 106.377C466.845 107.208 467.153 107.674 468.041 107.718C469.475 107.789 470.906 107.999 472.339 108.002C483.175 108.027 494.01 108.015 504.846 108.017C505.392 108.017 505.941 108.069 506.484 108.033C506.935 108.004 507.404 107.937 507.806 107.755C507.9 107.712 507.87 106.957 507.695 106.844C507.284 106.578 506.755 106.394 506.265 106.372C505.479 106.338 504.686 106.511 503.896 106.512C493.011 106.523 482.126 106.512 471.24 106.536C470.468 106.537 469.7 106.8 468.924 106.876C468.568 106.911 468.084 106.907 467.866 106.7C467.648 106.494 467.604 106.004 467.636 105.652C467.715 104.775 467.979 103.907 467.992 103.033C468.041 99.7919 467.983 96.5493 468.061 93.3097C468.072 92.8565 468.617 92.4163 468.914 91.9701C469.11 92.4202 469.467 92.868 469.474 93.3209C469.523 96.6115 469.543 99.904 469.481 103.194C469.456 104.54 469.914 105.08 471.291 105.044C474.023 104.973 476.758 105.023 479.79 105.024Z" fill="#B4B4B5"/>
<path id="Vector_8" d="M421.439 196.256C421.587 196.237 421.693 196.283 421.689 196.407C421.078 196.649 420.471 196.864 419.863 196.867C413.743 196.893 407.622 196.885 401.385 196.902C401.051 197.505 400.643 198.092 400.642 198.681C400.606 211.707 400.609 224.733 400.628 237.759C400.629 238.492 400.824 239.226 400.924 240.023C400.919 240.087 400.911 240.216 400.911 240.216C399.801 240.399 400.017 239.585 400.015 238.98C400.006 234.451 400.01 229.922 400.01 225.392C400.01 216.334 400.01 207.275 400.01 198.216C400.01 197.635 400.01 197.053 400.01 196.275C407.232 196.275 414.261 196.275 421.439 196.256Z" fill="#2E6B4C"/>
<path id="Vector_9" d="M552.86 261.727C552.739 254.694 552.721 247.619 552.706 240.404C552.707 240.264 552.71 240.281 552.809 240.272C553.04 240.243 553.171 240.222 553.425 240.221C553.963 240.234 554.378 240.228 554.932 240.239C561.599 240.257 568.127 240.257 574.775 240.257C574.775 239.445 574.775 238.855 574.775 238.266C574.775 228.855 574.769 219.445 574.777 210.034C574.781 205.554 574.814 201.074 574.833 196.594C574.917 197.276 575.073 197.957 575.073 198.639C575.088 211.14 575.08 223.64 575.092 236.141C575.093 237.182 575.184 238.224 575.271 239.262C575.362 240.347 574.98 240.736 573.824 240.719C567.275 240.623 560.726 240.609 554.177 240.577C553.38 240.573 553.121 240.939 553.134 241.804C553.227 247.917 553.255 254.031 553.276 260.144C553.278 260.657 553.072 261.171 552.86 261.727Z" fill="#BDC483"/>
<path id="Vector_10" d="M552.754 196.225C552.739 182.22 552.722 168.216 552.708 154.212C552.701 147.684 552.699 141.155 552.714 134.488C552.916 134.821 553.257 135.291 553.261 135.764C553.299 141.297 553.315 146.831 553.284 152.364C553.211 165.268 553.11 178.173 553.023 191.077C553.012 192.587 553.021 194.097 553.021 195.518C554.606 195.696 555.848 195.944 557.092 195.955C562.21 196 567.328 195.969 572.445 195.98C573.036 195.981 573.626 196.067 574.188 196.192C567.024 196.255 559.889 196.24 552.754 196.225Z" fill="#BFC18C"/>
<path id="Vector_11" d="M552.738 196.245C559.889 196.24 567.024 196.255 574.291 196.251C574.527 196.3 574.63 196.368 574.783 196.515C574.814 201.074 574.781 205.554 574.777 210.034C574.768 219.445 574.775 228.855 574.775 238.266C574.775 238.855 574.775 239.445 574.775 240.257C568.126 240.257 561.599 240.257 554.936 240.179C554.801 240.102 554.81 239.983 554.949 239.982C560.801 239.98 566.514 239.982 572.227 239.974C574.215 239.971 574.462 239.725 574.463 237.729C574.468 224.671 574.467 211.612 574.463 198.554C574.463 196.704 574.355 196.585 572.525 196.594C566.219 196.625 559.913 196.68 553.607 196.7C553.312 196.701 553.017 196.45 552.722 196.316C552.722 196.316 552.723 196.265 552.738 196.245Z" fill="#416737"/>
<path id="Vector_12" d="M422.08 240.279C415.201 240.286 408.343 240.274 401.345 240.179C401.205 240.095 401.203 239.966 401.276 239.963C401.35 239.961 401.497 239.956 401.638 239.958C407.739 239.962 413.699 239.946 419.66 239.98C420.852 239.987 421.521 239.715 421.503 238.328C421.418 231.903 421.385 225.478 421.386 219.053C421.386 218.759 421.887 218.465 422.142 218.307C422.132 225.703 422.135 232.962 422.138 240.222C422.138 240.222 422.101 240.262 422.08 240.279Z" fill="#2E6B4C"/>
<path id="Vector_13" d="M574.269 130.809C574.378 130.105 574.717 129.451 574.719 128.797C574.75 115.602 574.752 102.407 574.713 89.2119C574.711 88.5319 574.281 87.8531 573.966 87.101C574.601 86.7302 574.973 86.807 575.121 87.6171C575.314 88.6757 575.294 89.7822 575.284 90.8673C575.275 91.8077 575.09 92.7469 575.089 93.6867C575.074 104.692 575.075 115.697 575.088 126.702C575.089 127.642 575.324 128.593 575.232 129.518C575.185 129.99 574.654 130.415 574.269 130.809Z" fill="#BFC18C"/>
<path id="Vector_14" d="M530.92 262.227C538.056 262.132 545.21 262.112 552.495 262.102C552.079 262.305 551.532 262.669 550.987 262.666C544.412 262.619 537.838 262.518 531.128 262.439C530.974 262.398 530.956 262.35 530.92 262.227Z" fill="#BDC483"/>
<path id="Vector_15" d="M552.835 132.505C552.854 131.976 552.969 131.401 553.192 130.8C553.177 131.336 553.054 131.898 552.835 132.505Z" fill="#BFC18C"/>
<path id="Vector_16" d="M552.817 133.733C552.74 133.618 552.731 133.482 552.737 133.243C552.797 133.331 552.842 133.521 552.817 133.733Z" fill="#BFC18C"/>
<path id="Vector_17" d="M401.204 239.966C401.204 239.966 401.206 240.096 401.207 240.16C401.159 240.235 401.109 240.246 400.985 240.236C400.911 240.217 400.919 240.088 400.992 240.026C401.066 239.963 401.204 239.966 401.204 239.966Z" fill="#236F51"/>
<path id="Vector_18" d="M465.59 87.0483C465.617 87.0824 465.477 87.0772 465.409 87.0626C465.407 86.9754 465.482 86.9642 465.59 87.0483Z" fill="#BFC18C"/>
<path id="Vector_19" d="M422.329 87.0221C422.359 87.0487 422.231 87.0801 422.165 87.0843C422.143 87.0037 422.209 86.9727 422.329 87.0221Z" fill="#BFC18C"/>
<path id="Vector_20" d="M553.942 130.793C553.914 130.762 554.051 130.75 554.118 130.762C554.186 130.773 554.086 130.841 554.086 130.841C554.086 130.841 553.97 130.824 553.942 130.793Z" fill="#BFC18C"/>
<path id="Vector_21" d="M465.848 262.004C465.689 258.38 465.642 254.796 465.625 251.213C465.608 247.676 465.621 244.138 465.758 240.441C473.053 240.291 480.211 240.3 487.369 240.31C487.367 247.452 487.366 254.594 487.345 261.866C484.015 262.034 480.705 262.097 477.395 262.103C473.588 262.11 469.781 262.066 465.848 262.004Z" fill="#30F0FB"/>
<path id="face" d="M422.155 218.172C421.887 218.465 421.386 218.759 421.386 219.053C421.385 225.478 421.418 231.903 421.503 238.328C421.521 239.715 420.852 239.987 419.66 239.98C413.699 239.946 407.739 239.962 401.64 239.819C401.502 225.414 401.502 211.15 401.501 196.887C407.622 196.885 413.743 196.893 419.863 196.867C420.471 196.864 421.078 196.649 421.741 196.432C421.901 196.307 422.003 196.282 422.217 196.262C422.329 196.266 422.364 196.333 422.425 196.43C422.899 196.643 423.312 196.859 423.726 196.86C430.038 196.882 436.35 196.887 442.662 196.852C443.154 196.849 443.645 196.52 444.276 196.318C458.703 196.293 472.991 196.293 487.454 196.293C487.454 188.893 487.454 181.698 487.454 174.529C494.765 174.529 501.898 174.529 509.207 174.529C509.207 181.812 509.207 189.006 509.207 196.287C509.872 196.287 510.364 196.287 510.855 196.287C517.463 196.286 524.071 196.292 530.679 196.284C537.932 196.274 545.185 196.25 552.438 196.233C552.438 196.233 552.578 196.281 552.65 196.298C553.017 196.45 553.312 196.701 553.607 196.7C559.913 196.68 566.219 196.625 572.525 196.594C574.355 196.585 574.463 196.704 574.463 198.554C574.467 211.612 574.468 224.671 574.463 237.729C574.462 239.725 574.216 239.971 572.227 239.974C566.514 239.982 560.801 239.98 554.834 239.971C554.059 239.861 553.537 239.762 553.014 239.523C553.01 232.298 553.007 225.213 553.001 218.013C552.839 217.492 552.68 217.085 552.67 217.06C551.46 217.365 550.55 217.796 549.64 217.796C508.955 217.829 468.271 217.826 427.587 217.817C426.301 217.817 425.014 217.661 423.729 217.671C423.281 217.675 422.836 217.964 422.332 218.139C422.274 218.155 422.155 218.172 422.155 218.172Z" fill="#236F51"/>
<path id="glass" d="M552.432 196.096C545.185 196.25 537.932 196.274 530.679 196.284C524.071 196.292 517.463 196.286 510.855 196.287C510.364 196.287 509.872 196.287 509.207 196.287C509.207 189.006 509.207 181.812 509.207 174.529C501.898 174.529 494.765 174.529 487.454 174.529C487.454 181.698 487.454 188.893 487.454 196.293C472.991 196.293 458.703 196.293 444.198 196.291C443.93 196.268 443.879 196.247 443.832 196.089C443.841 194.611 443.854 193.268 443.853 191.926C443.838 178.85 443.82 165.774 443.804 152.698C443.804 152.698 443.819 152.572 443.838 152.511C444.498 152.501 445.139 152.595 445.78 152.595C480.564 152.599 515.348 152.595 550.133 152.591C552.356 152.591 552.415 152.638 552.416 154.828C552.421 168.538 552.423 182.249 552.432 196.096Z" fill="#97FDFF"/>
<path id="Vector_22" d="M509.162 108.916C515.814 108.917 522.468 108.954 529.122 108.884C530.576 108.868 530.98 109.346 530.964 110.765C530.898 116.843 530.9 122.922 530.963 128.999C530.977 130.379 530.538 130.796 529.176 130.783C523.069 130.721 516.96 130.725 510.853 130.78C509.553 130.791 509.132 130.381 509.142 129.068C509.196 122.442 509.166 115.816 509.168 109.049C509.171 108.908 509.165 108.913 509.162 108.916Z" fill="#B4B4B5"/>
<path id="glass_2" d="M443.671 152.67C443.82 165.774 443.838 178.85 443.853 191.926C443.854 193.268 443.841 194.611 443.697 196.115C436.493 196.295 429.429 196.314 422.364 196.333C422.364 196.333 422.329 196.266 422.295 196.247C422.274 182.2 422.29 168.171 422.291 154.143C422.291 153.114 422.631 152.571 423.753 152.578C430.348 152.617 436.943 152.623 443.671 152.67Z" fill="#2FF1FC"/>
<path id="Vector_23" d="M422.142 218.307C422.155 218.172 422.274 218.155 422.471 218.146C465.103 218.136 507.539 218.136 549.974 218.139C550.868 218.139 551.762 218.168 552.662 218.321C552.682 225.732 552.696 233.006 552.71 240.281C552.71 240.281 552.707 240.264 552.716 240.264C531.877 240.264 511.029 240.265 490.18 240.266C489.337 240.266 488.493 240.277 487.509 240.296C480.211 240.3 473.053 240.291 465.754 240.305C463.727 240.307 461.841 240.27 459.955 240.268C447.439 240.257 434.924 240.252 422.273 240.234C422.135 232.962 422.132 225.703 422.142 218.307Z" fill="#551C28"/>
<path id="Vector_24" d="M479.641 105.024C476.758 105.023 474.023 104.973 471.291 105.044C469.914 105.08 469.456 104.54 469.481 103.194C469.543 99.904 469.523 96.6115 469.474 93.3209C469.467 92.868 469.11 92.4202 468.914 91.9701C468.617 92.4163 468.072 92.8565 468.061 93.3097C467.983 96.5493 468.041 99.7919 467.992 103.033C467.979 103.907 467.715 104.775 467.636 105.652C467.604 106.004 467.648 106.494 467.866 106.7C468.084 106.907 468.568 106.911 468.924 106.876C469.7 106.8 470.468 106.537 471.24 106.536C482.126 106.512 493.011 106.523 503.896 106.512C504.686 106.511 505.479 106.338 506.265 106.372C506.755 106.394 507.284 106.578 507.695 106.844C507.87 106.957 507.9 107.712 507.806 107.755C507.404 107.937 506.935 108.004 506.484 108.033C505.941 108.069 505.392 108.017 504.846 108.017C494.01 108.015 483.175 108.027 472.339 108.002C470.906 107.999 469.475 107.789 468.041 107.718C467.153 107.674 466.845 107.208 466.809 106.377C466.739 104.788 466.567 103.203 466.529 101.615C466.451 98.278 466.411 94.9395 466.425 91.6019C466.426 91.2909 466.864 90.8543 467.199 90.7051C467.599 90.5274 468.109 90.5973 468.588 90.2683C468.337 90.1952 468.045 90.1796 467.843 90.037C467.429 89.7458 467.031 89.4135 466.704 89.032C466.639 88.956 466.917 88.3821 467.036 88.3825C467.602 88.3843 468.497 88.3141 468.673 88.6188C469.232 89.5907 470.043 89.4626 470.87 89.4628C482.203 89.4653 493.535 89.4662 504.868 89.4612C505.742 89.4608 506.692 89.6587 507.217 88.6069C507.287 88.4664 507.737 88.346 507.84 88.4293C508.035 88.5867 508.262 88.9555 508.197 89.1357C508.042 89.5687 507.725 89.9436 507.697 89.9881C507.931 91.019 508.252 91.8048 508.263 92.5949C508.313 96.2344 508.284 99.8751 508.267 103.515C508.258 105.208 508.09 105.327 506.475 105.11C505.887 105.031 505.287 105.027 504.692 105.027C496.391 105.022 488.09 105.024 479.641 105.024ZM485.456 91.5591C492.056 91.5419 498.655 91.526 505.254 91.4985C505.379 91.498 505.506 91.3667 505.624 91.2842C505.657 91.2609 505.669 91.1949 505.674 91.1468C505.678 91.1012 505.66 91.0533 505.622 90.8241C505.266 90.7754 504.854 90.6697 504.443 90.6693C493.425 90.6605 482.408 90.6585 471.39 90.6771C470.931 90.6779 470.472 90.8879 470.013 91.0004C470.038 91.1866 470.062 91.3728 470.087 91.5591C475.111 91.5591 480.134 91.5591 485.456 91.5591Z" fill="#B4B4B4"/>
<path id="Vector_25" d="M401.385 196.902C401.502 211.15 401.502 225.414 401.5 239.817C401.497 239.956 401.35 239.961 401.276 239.963C401.203 239.966 401.066 239.963 400.997 239.961C400.824 239.226 400.629 238.492 400.628 237.759C400.609 224.733 400.606 211.707 400.642 198.681C400.643 198.092 401.051 197.505 401.385 196.902Z" fill="#1E7159"/>
<path id="Vector_26" d="M552.809 240.272C552.696 233.006 552.682 225.732 552.748 218.303C552.887 218.142 552.945 218.135 553.003 218.127C553.007 225.213 553.01 232.298 553.044 239.593C553.151 239.936 553.227 240.069 553.303 240.202C553.171 240.222 553.04 240.243 552.809 240.272Z" fill="#42604F"/>
<path id="Vector_27" d="M553.425 240.221C553.227 240.069 553.151 239.936 553.046 239.733C553.537 239.762 554.059 239.861 554.696 239.971C554.811 239.983 554.801 240.102 554.797 240.161C554.378 240.228 553.963 240.234 553.425 240.221Z" fill="#2E6B4C"/>
<path id="Vector_28" d="M553.001 218.013C552.945 218.135 552.887 218.142 552.743 218.167C551.762 218.168 550.868 218.139 549.974 218.139C507.539 218.136 465.103 218.137 422.529 218.13C422.836 217.964 423.281 217.675 423.729 217.671C425.014 217.661 426.301 217.817 427.587 217.817C468.271 217.826 508.955 217.829 549.64 217.796C550.55 217.796 551.46 217.365 552.67 217.06C552.68 217.086 552.839 217.492 553.001 218.013Z" fill="#2E6B4C"/>
<path id="Vector_29" d="M422.425 196.43C429.429 196.314 436.493 196.295 443.693 196.251C443.879 196.247 443.93 196.268 444.059 196.316C443.645 196.52 443.154 196.849 442.662 196.852C436.35 196.887 430.038 196.882 423.726 196.86C423.312 196.859 422.899 196.643 422.425 196.43Z" fill="#2E6B4C"/>
<path id="Vector_30" d="M485.307 91.5591C480.134 91.5591 475.111 91.5591 470.087 91.5591C470.062 91.3728 470.038 91.1866 470.013 91.0004C470.472 90.8879 470.931 90.6779 471.39 90.6771C482.408 90.6585 493.425 90.6605 504.443 90.6693C504.854 90.6697 505.266 90.7754 505.622 90.8241C505.66 91.0533 505.678 91.1012 505.674 91.1468C505.669 91.1949 505.657 91.2609 505.624 91.2842C505.506 91.3667 505.379 91.498 505.254 91.4985C498.655 91.526 492.056 91.5419 485.307 91.5591Z" fill="#B4B4B5"/>
</g>
<path id="Vector_31" d="M168.984 304C155.513 304 142.043 304 128.252 303.671C127.924 296.568 127.916 289.793 128.231 283.001C142.038 282.995 155.523 283.007 169 283.343C168.99 290.446 168.987 297.223 168.984 304Z" fill="#B4B4B4"/>
<path id="Vector_32" d="M191 283C197.823 283 204.646 283 212 283C212 290.034 212 296.729 212 303.753C205.218 304.082 198.436 304.082 191.326 303.753C190.998 296.616 190.999 289.808 191 283Z" fill="#C7CFDD"/>
<path id="Vector_33" d="M190.964 283C190.964 289.769 190.963 296.557 190.962 303.672C183.84 304 176.719 304 169.253 304C168.912 297.237 168.915 290.475 169.268 283.37C176.745 283.024 183.872 283.02 191 283.016C191 283.016 190.963 283.018 190.964 283Z" fill="#92A1B9"/>
<path id="Vector_34" d="M127.975 283.085C127.983 289.865 127.992 296.645 128 303.753C120.895 304.082 113.79 304.082 106.342 303.753C105.999 296.616 105.999 289.808 106 283C106 283 106.003 283.042 106.329 283.039C113.761 283.053 120.868 283.069 127.975 283.085Z" fill="#92A1B9"/>
<path id="Vector_35" d="M105.674 283C106.001 289.773 106.001 296.559 106 303.672C99.2187 304 92.4374 304 85.3281 304C85 297.184 85 290.369 85 283.013C91.9861 283.013 98.6659 283.013 105.674 283Z" fill="#C7CFDD"/>
<path id="face_2" d="M212.047 197.35C218.95 197.35 225.852 197.35 233 197.35C233 211.645 233 225.582 233 239.987C226.225 239.987 219.466 239.987 212.383 239.988C212.059 239.989 212.075 240.006 212.07 239.672C212.065 232.557 212.065 225.775 212.065 218.834C204.636 218.834 197.733 218.834 190.503 218.79C183.363 218.775 176.548 218.804 169.401 218.794C162.197 218.781 155.325 218.807 148.128 218.79C143.219 218.74 138.634 218.662 134.053 218.755C131.546 218.806 129.044 219.144 126.309 219.384C125.541 219.63 125.004 219.845 124.316 220.088C124.166 220.116 123.861 220.116 123.792 219.825C123.025 219.265 122.329 218.771 121.63 218.766C117.404 218.729 113.177 218.805 108.665 218.801C107.613 218.784 106.847 218.809 105.754 218.79C98.6683 218.746 91.9077 218.746 84.9207 218.746C84.9207 226.138 84.9207 233.074 84.9303 240C84.9399 239.99 84.9589 239.971 84.9589 239.971C78.0542 239.971 71.1496 239.971 64 239.971C64 225.809 64 211.871 64 197.438C70.777 197.438 77.5359 197.438 84.9523 197.444C99.44 197.449 113.27 197.449 127.265 197.449C127.265 190.118 127.265 183.175 127.283 175.9C127.301 168.728 127.302 161.89 127.632 155.003C141.869 154.987 155.778 155.019 169.687 155.375C169.687 169.566 169.687 183.433 169.687 197.35C184.108 197.35 198.078 197.35 212.047 197.35Z" fill="#1E6F50"/>
<path id="crown" d="M169.651 156C155.766 155.968 141.882 155.936 127.342 155.901C119.859 155.932 113.03 155.965 105.874 155.952C98.7268 155.911 91.9067 155.917 85.0865 155.923C85.0749 135.767 85.1054 115.612 85.0002 95.4567C84.9866 92.8478 85.6994 91.9167 88.3654 92.0238C93.1635 92.2166 97.9836 92.2563 102.777 92.0126C105.728 91.8625 106.322 93.0557 106.25 95.7014C106.096 101.355 106.213 107.015 106.216 113.337C106.21 119.882 106.291 125.765 106.161 131.642C106.109 133.982 106.953 134.711 109.214 134.654C114.24 134.526 119.276 134.49 124.299 134.665C126.898 134.756 127.441 133.656 127.39 131.329C127.258 125.333 127.321 119.334 127.306 113.336C127.321 107.332 127.425 101.327 127.308 95.3254C127.262 92.9498 127.883 92.0024 130.436 92.027C142.493 92.1433 154.552 92.146 166.609 92.0259C169.215 91.9999 169.738 93.048 169.691 95.3685C169.575 101.134 169.662 106.905 169.666 113.337C169.66 119.882 169.741 125.765 169.61 131.642C169.558 133.982 170.403 134.711 172.664 134.654C177.69 134.526 182.726 134.49 187.749 134.665C190.348 134.756 190.891 133.656 190.84 131.329C190.708 125.333 190.771 119.334 190.756 113.336C190.771 107.325 190.878 101.312 190.756 95.3039C190.708 92.8962 191.391 91.9431 193.915 92.0294C198.832 92.1976 203.765 92.2217 208.68 92.0219C211.402 91.9111 212.012 92.9456 212 95.4992C211.904 115.418 211.936 135.337 211.586 155.573C204.43 155.926 197.616 155.962 190.474 155.952C183.315 155.937 176.483 155.969 169.651 156Z" fill="#FFC825"/>
<path id="Vector_36" d="M211.976 240.07C211.968 247.17 211.968 254.278 211.968 261.906C204.981 261.906 198.226 261.906 190.815 261.904C162.161 261.934 134.164 261.967 106.167 262C99.2682 262 92.3696 262 85 262C85 254.662 85 247.703 85.0076 240.402C85.0153 240.06 84.9963 240.08 85.3185 240.082C92.4652 240.047 99.2897 240.009 106.446 240.012C113.157 240.022 119.535 239.992 126.156 240.002C126.722 240.019 127.047 239.995 127.697 240.016C134.829 240.031 141.637 240.002 148.776 240.012C155.972 240.025 162.837 239.998 170.027 240.017C177.16 240.031 183.968 240.001 191.107 240.012C198.292 240.066 205.146 240.081 212 240.096C212 240.096 211.984 240.079 211.976 240.07Z" fill="#1E6F50"/>
<path id="neck" d="M106.006 262.371C134.109 262.019 162.211 261.987 190.641 262.003C190.976 268.804 190.981 275.558 191 282.641C184.147 282.973 177.281 282.977 170.086 282.998C155.801 283.004 141.845 282.993 127.555 282.999C120.359 283 113.497 282.984 106.3 282.969C105.978 276.21 105.991 269.451 106.006 262.371Z" fill="#C7CFDD"/>
<path id="white-eye" d="M85.0033 155.254C91.9611 154.914 98.905 154.908 106.182 155.278C106.515 162.533 106.515 169.413 106.515 176.481C113.956 176.481 120.978 176.481 128 176.481C128 183.523 128 190.564 128 198C113.776 198 99.7195 198 85.3294 197.95C84.9936 183.796 84.9915 169.692 85.0033 155.254Z" fill="white"/>
<path id="white-eye_2" d="M169 155.283C175.946 154.93 182.893 154.899 190.172 155.235C190.505 162.341 190.505 169.079 190.505 175.97C197.919 175.97 204.925 175.97 211.931 175.97C211.955 182.765 211.98 189.56 212 196.678C197.817 197 183.638 197 169 197C169 183.168 169 169.387 169 155.283Z" fill="white"/>
<path id="irish" d="M211.995 175.673C205.108 176 198.253 176 191 176C191 169.142 191 162.436 191 155.41C197.779 155.054 204.557 155.018 211.659 155C211.997 161.794 212.013 168.57 211.995 175.673Z" fill="#131313"/>
<path id="gold-in-crown" d="M190.572 113C190.925 119.182 190.86 125.37 190.997 131.554C191.05 133.954 190.487 135.088 187.794 134.995C182.59 134.814 177.373 134.851 172.166 134.983C169.823 135.042 168.948 134.29 169.002 131.877C169.138 125.815 169.054 119.748 169.075 113.34C176.139 112.999 183.187 113.001 190.572 113Z" fill="#FFEB57"/>
<path id="gold-in-crown_2" d="M127.572 113C127.925 119.182 127.86 125.37 127.997 131.554C128.05 133.954 127.487 135.088 124.794 134.995C119.59 134.814 114.373 134.851 109.166 134.983C106.823 135.042 105.948 134.29 106.002 131.877C106.138 125.815 106.054 119.748 106.075 113.34C113.139 112.999 120.187 113.001 127.572 113Z" fill="#FFEB57"/>
<path id="Vector_37" d="M147.997 239.984C141.467 240.013 134.938 240.042 128.083 239.707C127.538 235.837 127.32 232.33 127.124 228.537C127.098 225.377 127.049 222.503 127 219.628C129.399 219.421 131.796 219.086 134.199 219.035C138.588 218.943 142.981 219.02 147.699 219.391C148.016 226.499 148.006 233.241 147.997 239.984Z" fill="#C7CFDD"/>
<path id="teeth" d="M212 239.775C205.222 240.093 198.439 240.079 191.342 239.702C191.019 232.559 191.01 225.78 191 219C197.825 219 204.651 219 211.995 219C211.995 225.92 211.995 232.681 212 239.775Z" fill="#92A1B9"/>
<path id="teeth_2" d="M190.645 219.004C190.994 225.83 191.004 232.612 190.999 239.718C183.883 240.071 176.783 240.1 169.327 239.762C168.983 232.612 168.993 225.83 169.004 219.047C176.104 219.018 183.205 218.989 190.645 219.004Z" fill="#C7CFDD"/>
<path id="teeth_3" d="M168.687 219.003C169.005 225.799 168.995 232.556 169 239.636C162.224 239.985 155.433 240.01 148.313 239.997C147.995 233.201 148.005 226.444 148 219.364C154.776 219.015 161.567 218.99 168.687 219.003Z" fill="#92A1B9"/>
<path id="teeth_4" d="M105.997 239.884C99.2175 239.92 92.4383 239.956 85.3296 240C85 233.155 85 226.303 85 219C91.9334 219 98.642 219 105.688 219.364C106.016 226.446 106.007 233.165 105.997 239.884Z" fill="#C7CFDD"/>
<path id="irish_2" d="M127.993 175.67C120.793 176 113.611 176 106 176C106 169.108 106 162.4 106 155.372C113.111 155.019 120.222 154.987 127.674 155.004C128.013 161.816 128.012 168.578 127.993 175.67Z" fill="#131313"/>
<path id="teeth_5" d="M124.521 220C124.521 220 124.837 220 125 220.293C124.919 225.245 124.6 229.902 124.469 234.564C124.416 236.431 123.59 237.012 121.789 236.977C118.501 236.914 115.207 236.865 111.923 236.994C109.645 237.084 108.956 236.168 109.002 234.089C109.106 229.404 109.034 224.716 109.377 220.029C114.654 220.019 119.587 220.01 124.521 220Z" fill="#92A1B9"/>
<path id="teeth_6" d="M108.93 220.276C108.931 224.971 109.002 229.667 108.899 234.36C108.854 236.442 109.534 237.359 111.784 237.269C115.027 237.14 118.28 237.189 121.527 237.253C123.305 237.287 124.121 236.705 124.173 234.835C124.302 230.165 124.617 225.501 124.851 220.513C125.396 219.977 125.947 219.763 126.735 219.518C127.024 222.378 127.076 225.269 126.893 228.662C126.543 232.759 126.429 236.354 126.316 239.949C119.766 239.979 113.216 240.008 106.325 239.998C105.995 233.178 106.005 226.397 106 219.292C106.771 218.944 107.558 218.919 108.637 219.153C108.93 219.699 108.93 219.988 108.93 220.276Z" fill="#92A1B9"/>
<path id="Vector_38" d="M109.335 220C109 219.791 109 219.583 109 219.218C113.272 219.034 117.544 218.98 121.815 219.006C122.522 219.01 123.225 219.366 124 219.77C119.27 219.986 114.47 219.993 109.335 220Z" fill="#92A1B9"/>
<path id="Vector_39" d="M127.043 239.996C126.939 236.376 127.027 232.795 127.279 229C127.625 232.299 127.807 235.812 128 239.646C127.753 239.99 127.494 240.012 127.043 239.996Z" fill="#92A1B9"/>
<g id="black-cartel (1) 1" clip-path="url(#clip1_19_354)">
<path id="Vector_40" d="M280.633 628.308C256.463 628.308 232.294 628.308 207.992 628.168C207.86 536.454 207.86 444.881 207.86 353.308C293.312 353.308 378.764 353.308 464.287 353.308C464.287 418.293 464.287 483.279 464.152 548.407C446.214 548.549 428.409 548.549 410.757 548.549C410.296 547.601 411.541 546.258 409.837 545.947C409.748 540.767 409.658 535.728 409.674 530.685C411.039 530.107 410.037 529.534 409.842 528.712C409.463 529.177 409.227 529.468 408.856 529.759C403.368 529.761 398.014 529.761 392.659 529.633C392.406 528.52 392.997 526.982 391.229 526.847C391.228 521.899 391.235 517.096 391.218 512.292C391.216 511.75 391.074 511.209 390.974 510.597C390.951 510.527 390.94 510.378 390.941 510.295C390.935 510.156 390.927 510.101 390.942 510.057C390.964 510.069 391.013 510.058 391.077 509.952C391.166 503.84 391.192 497.833 391.205 491.826C391.206 491.642 391.071 491.458 390.98 491.187C390.948 491.042 390.935 490.984 390.93 490.851C390.939 490.777 390.993 490.64 391.063 490.539C391.16 484.328 391.189 478.217 391.203 472.106C391.204 471.925 391.059 471.744 390.96 471.464C390.84 471.207 390.741 471.05 390.55 470.815C384.964 470.709 379.472 470.678 373.979 470.661C373.81 470.66 373.64 470.81 373.377 470.913C373.157 470.934 373.03 470.932 372.907 470.934C372.91 470.937 372.914 470.926 372.902 470.853C372.889 470.78 372.843 470.641 372.833 470.54C372.766 470.19 372.708 469.942 372.723 469.596C372.824 463.802 372.853 458.106 372.869 452.409C372.869 452.228 372.728 452.047 372.63 451.764C372.503 451.5 372.4 451.337 372.203 451.098C371.875 450.991 371.64 450.931 371.405 450.931C347.867 450.927 324.328 450.926 300.789 450.938C300.379 450.938 299.969 451.094 299.488 451.202C299.368 451.237 299.319 451.248 299.189 451.228C299.06 451.692 298.974 452.185 298.973 452.679C298.963 458.118 298.934 463.557 298.99 468.996C299.002 470.246 298.698 470.683 297.479 470.665C292.658 470.595 287.836 470.628 283.014 470.647C282.509 470.649 282.005 470.809 281.407 470.917C281.187 470.951 281.06 470.965 280.854 470.945C280.726 471.25 280.638 471.588 280.638 471.926C280.632 484.943 280.635 497.96 280.635 511.121C280.632 516.854 280.599 522.443 280.654 528.032C280.668 529.395 280.222 529.802 278.99 529.787C274.22 529.728 269.449 529.755 264.679 529.774C264.174 529.776 263.669 529.933 263.072 530.043C262.828 530.167 262.676 530.267 262.456 530.471C262.356 530.775 262.3 530.976 262.3 531.176C262.295 543.457 262.293 555.738 262.304 568.019C262.305 568.407 262.454 568.794 262.568 569.264C262.696 569.414 262.789 569.48 262.905 569.642C268.247 569.758 273.567 569.824 278.885 569.766C280.296 569.75 280.676 570.275 280.657 571.724C280.591 576.903 280.624 582.084 280.642 587.264C280.643 587.806 280.79 588.348 280.905 588.973C281.033 589.123 281.126 589.189 281.242 589.351C287.181 589.459 293.099 589.472 299.079 589.547C299.173 589.782 299.205 589.957 299.16 590.226C299.045 590.879 298.977 591.436 298.976 591.993C298.968 596.807 298.972 601.621 298.971 606.434C298.97 608.594 298.967 608.597 297.021 608.598C292.256 608.6 287.492 608.591 282.728 608.61C282.222 608.612 281.717 608.764 281.136 608.884C280.994 609.015 280.928 609.108 280.792 609.306C280.693 615.709 280.663 622.009 280.633 628.308Z" fill="#D8BD62"/>
<path id="box" d="M464.287 550.088C464.287 576.142 464.287 602.195 464.287 628.308C433.815 628.308 403.343 628.308 372.737 628.164C372.603 622.287 372.61 616.555 372.593 610.823C372.592 610.282 372.447 609.742 372.354 609.135C372.338 609.069 372.315 608.936 372.388 608.874C372.528 608.631 372.596 608.45 372.732 608.167C372.826 602.072 372.853 596.077 372.868 590.082C372.868 589.898 372.733 589.713 372.639 589.45C372.611 589.319 372.606 589.266 372.614 589.131C372.643 588.997 372.659 588.945 372.76 588.862C372.861 588.138 372.888 587.444 372.888 586.75C372.891 574.442 372.891 562.135 372.989 549.813C373.219 549.81 373.35 549.822 373.573 549.91C373.899 550.02 374.134 550.084 374.368 550.084C385.539 550.089 396.711 550.09 407.882 550.077C408.244 550.077 408.606 549.921 409.046 549.813C409.173 549.767 409.223 549.745 409.354 549.746C409.488 549.788 409.541 549.809 409.681 549.91C410.289 550.024 410.809 550.086 411.33 550.086C428.982 550.09 446.634 550.089 464.287 550.088ZM427.617 589.481C427.615 595.427 427.635 601.373 427.595 607.318C427.588 608.441 427.773 608.956 428.99 608.939C434.187 608.866 439.386 608.88 444.583 608.931C445.639 608.941 445.982 608.622 445.972 607.459C445.921 601.872 445.913 596.284 445.979 590.698C445.994 589.414 445.56 589.168 444.488 589.177C438.861 589.225 433.233 589.203 427.612 588.916C427.613 582.97 427.592 577.024 427.633 571.078C427.641 569.947 427.447 569.442 426.234 569.459C421.037 569.531 415.838 569.518 410.64 569.466C409.58 569.456 409.245 569.783 409.256 570.94C409.305 576.527 409.314 582.115 409.249 587.701C409.234 588.981 409.665 589.23 410.738 589.221C416.365 589.172 421.993 589.194 427.617 589.481Z" fill="#647392"/>
<path id="body_2" d="M299.238 590.131C299.205 589.957 299.173 589.782 299.077 589.492C299.013 589.377 298.999 589.269 299.088 589.25C299.297 589.205 299.417 589.178 299.669 589.172C305.704 589.192 311.606 589.192 317.519 589.192C317.519 595.855 317.519 602.331 317.519 608.898C329.652 608.898 341.82 608.898 353.997 608.955C354.006 609.013 354.004 609.129 353.996 609.279C353.986 615.722 353.983 622.015 353.98 628.308C335.828 628.308 317.677 628.308 299.39 628.164C299.242 621.853 299.229 615.688 299.238 609.428C299.252 609.207 299.244 609.079 299.247 608.804C299.251 602.482 299.244 596.307 299.238 590.131Z" fill="#F8E6CE"/>
<path id="Vector_41" d="M372.369 609.201C372.447 609.742 372.592 610.282 372.593 610.823C372.61 616.555 372.603 622.287 372.603 628.164C366.676 628.308 360.749 628.308 354.688 628.164C354.554 622.328 354.586 616.636 354.53 610.944C354.517 609.577 354.968 609.18 356.197 609.191C361.587 609.241 366.978 609.206 372.369 609.201Z" fill="#424C6F"/>
<path id="Vector_42" d="M299.216 609.522C299.229 615.688 299.242 621.853 299.256 628.164C293.329 628.308 287.402 628.308 281.341 628.164C281.207 621.854 281.208 615.688 281.295 609.487C282.034 609.373 282.688 609.228 283.341 609.226C288.13 609.206 292.918 609.206 297.706 609.228C298.21 609.231 298.713 609.42 299.216 609.522Z" fill="#391F22"/>
<path id="Vector_43" d="M207.716 353.308C207.86 444.881 207.86 536.454 207.86 628.168C207.669 628.205 207.348 628.139 207.313 627.993C207.23 627.657 207.287 627.281 207.287 626.922C207.287 536.179 207.286 445.437 207.298 354.694C207.298 354.232 207.478 353.77 207.716 353.308Z" fill="#CCBD86"/>
<path id="Vector_44" d="M409.594 549.829C409.541 549.809 409.488 549.788 409.346 549.676C409.257 549.584 409.221 549.449 409.25 549.38C409.279 549.31 409.325 549.167 409.393 549.072C409.587 548.013 409.711 547.051 409.836 546.088C411.541 546.258 410.296 547.6 410.757 548.549C428.409 548.549 446.214 548.549 464.152 548.549C464.287 548.78 464.287 549.011 464.152 549.357C446.614 549.473 429.209 549.471 411.805 549.485C411.253 549.485 410.702 549.645 410.058 549.747C409.841 549.785 409.717 549.807 409.594 549.829Z" fill="#D8BD68"/>
<path id="Vector_45" d="M409.681 549.91C409.717 549.807 409.841 549.785 410.189 549.766C428.372 549.773 446.329 549.777 464.287 549.781C464.287 549.781 464.287 549.935 464.287 550.011C446.634 550.089 428.982 550.09 411.33 550.086C410.809 550.086 410.289 550.024 409.681 549.91Z" fill="#6E7271"/>
<path id="Vector_46" d="M464.287 549.704C446.329 549.777 428.372 549.773 410.282 549.75C410.702 549.645 411.253 549.485 411.805 549.485C429.209 549.471 446.614 549.473 464.152 549.473C464.287 549.473 464.287 549.627 464.287 549.704Z" fill="#CCBD86"/>
<path id="Vector_47" d="M372.354 609.135C366.978 609.206 361.587 609.241 356.197 609.191C354.968 609.18 354.517 609.577 354.53 610.944C354.586 616.636 354.554 622.328 354.553 628.164C354.553 628.308 354.41 628.308 354.337 628.164C354.264 622.246 354.271 616.472 354.253 610.699C354.251 610.175 354.091 609.652 354.004 609.129C354.004 609.129 354.006 609.013 353.993 608.966C353.98 608.918 353.959 608.914 354.095 608.913C360.259 608.92 366.287 608.928 372.315 608.936C372.315 608.936 372.338 609.069 372.354 609.135Z" fill="#494D59"/>
<path id="Vector_48" d="M280.705 628.308C280.663 622.009 280.693 615.709 280.824 609.386C280.941 609.416 280.957 609.472 280.951 609.669C280.927 615.977 280.923 622.143 280.92 628.308C280.92 628.308 280.776 628.308 280.705 628.308Z" fill="#D2BB7A"/>
<path id="Vector_49" d="M353.996 609.279C354.091 609.652 354.251 610.175 354.253 610.699C354.271 616.472 354.264 622.246 354.266 628.164C354.266 628.308 354.123 628.308 354.052 628.308C353.983 622.015 353.986 615.722 353.996 609.279Z" fill="#F1E8DD"/>
<path id="Vector_50" d="M280.991 628.308C280.923 622.143 280.927 615.977 281.011 609.668C281.091 609.524 281.209 609.523 281.209 609.523C281.208 615.688 281.207 621.854 281.206 628.164C281.206 628.308 281.063 628.308 280.991 628.308Z" fill="#3A2200"/>
<path id="hair2" d="M390.993 490.64C390.993 490.64 390.939 490.777 390.868 490.851C390.798 490.924 390.676 490.9 390.601 490.793C378.449 490.68 366.371 490.673 354.157 490.664C348.007 490.762 341.992 490.862 335.906 490.849C335.553 490.708 335.27 490.657 334.988 490.657C323.086 490.657 311.185 490.662 299.147 490.664C293.079 490.66 287.146 490.658 281.212 490.512C281.209 484.629 281.248 478.89 281.18 473.153C281.163 471.669 281.6 471.194 282.977 471.227C288.355 471.353 293.735 471.378 299.114 471.415C299.256 471.415 299.399 471.111 299.676 470.948C324.178 470.94 348.546 470.933 372.914 470.926C372.914 470.926 372.91 470.937 372.921 471.035C372.997 471.2 373.061 471.324 373.125 471.324C378.403 471.307 383.681 471.317 388.958 471.226C390.278 471.203 390.694 471.662 390.676 473.075C390.613 478.291 390.644 483.508 390.661 488.725C390.663 489.268 390.807 489.81 390.908 490.426C390.952 490.546 390.972 490.593 390.993 490.64Z" fill="#1B1B1B"/>
<path id="hair1" d="M372.902 470.853C348.546 470.933 324.178 470.94 299.597 470.944C299.33 470.936 299.277 470.932 299.235 470.825C299.268 470.584 299.289 470.446 299.381 470.209C299.481 464.024 299.511 457.939 299.651 451.803C300.227 451.682 300.694 451.554 301.162 451.554C324.318 451.544 347.475 451.555 370.631 451.518C371.972 451.515 372.355 451.991 372.338 453.388C372.277 458.621 372.298 463.856 372.336 469.091C372.339 469.609 372.666 470.124 372.843 470.641C372.843 470.641 372.889 470.78 372.902 470.853Z" fill="#272727"/>
<path id="eye" d="M354.293 490.666C366.371 490.673 378.449 490.68 390.597 490.942C390.665 496.993 390.656 502.789 390.67 508.585C390.671 509.072 390.832 509.559 390.919 510.045C390.927 510.101 390.935 510.156 390.866 510.294C390.743 510.391 390.695 510.406 390.515 510.393C384.497 510.366 378.611 510.366 372.572 510.366C372.572 516.997 372.572 523.527 372.44 530.063C366.25 530.069 360.192 530.069 354.214 530.069C354.214 523.633 354.214 517.299 354.234 510.823C354.268 504.009 354.281 497.338 354.293 490.666Z" fill="white"/>
<path id="Vector_51" d="M372.833 470.54C372.666 470.124 372.339 469.609 372.336 469.091C372.298 463.856 372.277 458.621 372.338 453.388C372.355 451.991 371.972 451.515 370.631 451.518C347.475 451.555 324.318 451.544 301.161 451.554C300.694 451.554 300.227 451.682 299.592 451.804C299.424 451.857 299.307 451.863 299.287 451.763C299.268 451.529 299.269 451.394 299.27 451.259C299.319 451.248 299.368 451.237 299.619 451.226C323.647 451.229 347.472 451.232 371.297 451.232C371.63 451.232 371.963 451.194 372.296 451.174C372.4 451.337 372.503 451.5 372.61 451.906C372.625 457.998 372.637 463.846 372.65 469.694C372.708 469.942 372.766 470.19 372.833 470.54Z" fill="#2F2912"/>
<path id="Vector_52" d="M372.203 451.098C371.963 451.194 371.63 451.232 371.297 451.232C347.472 451.232 323.647 451.229 299.69 451.202C299.969 451.094 300.379 450.938 300.789 450.938C324.328 450.926 347.867 450.927 371.405 450.931C371.64 450.931 371.875 450.991 372.203 451.098Z" fill="#D2BB7A"/>
<path id="Vector_53" d="M280.637 510.976C280.635 497.96 280.632 484.943 280.638 471.926C280.638 471.588 280.726 471.25 280.849 471.087C280.941 477.73 280.958 484.197 280.955 490.806C280.947 497.413 280.959 503.879 280.95 510.449C280.911 510.694 280.893 510.835 280.816 510.976C280.756 510.976 280.637 510.976 280.637 510.976Z" fill="#CCBD86"/>
<path id="Vector_54" d="M280.976 490.664C280.958 484.197 280.941 477.73 280.929 471.121C281.06 470.965 281.187 470.951 281.54 470.938C287.585 470.936 293.404 470.932 299.224 470.928C299.277 470.932 299.33 470.936 299.462 470.945C299.399 471.111 299.256 471.416 299.114 471.415C293.735 471.378 288.355 471.353 282.977 471.227C281.6 471.194 281.163 471.669 281.18 473.153C281.248 478.89 281.209 484.629 281.209 490.515C281.208 490.663 281.205 490.671 281.148 490.668C281.09 490.665 280.976 490.664 280.976 490.664Z" fill="#221B02"/>
<path id="Vector_55" d="M280.87 588.89C280.79 588.348 280.643 587.806 280.642 587.264C280.624 582.084 280.591 576.903 280.657 571.724C280.676 570.275 280.296 569.75 278.885 569.766C273.567 569.824 268.247 569.758 262.904 569.614C262.881 569.491 262.872 569.437 262.968 569.46C263.193 569.465 263.323 569.449 263.585 569.454C269.349 569.459 274.981 569.443 280.697 569.48C280.844 569.729 280.907 569.924 280.951 570.261C280.945 576.461 280.96 582.52 280.951 588.658C280.908 588.788 280.889 588.839 280.87 588.89Z" fill="#D2BB7A"/>
<path id="Vector_56" d="M390.885 490.352C390.807 489.81 390.663 489.268 390.661 488.725C390.644 483.508 390.613 478.291 390.676 473.075C390.694 471.662 390.278 471.203 388.958 471.226C383.681 471.317 378.403 471.307 373.125 471.324C373.061 471.324 372.997 471.2 372.918 471.032C373.03 470.932 373.157 470.934 373.51 470.935C379.371 470.92 385.007 470.906 390.643 470.893C390.741 471.05 390.84 471.207 390.942 471.607C390.925 478.017 390.905 484.185 390.885 490.352Z" fill="#221B02"/>
<path id="Vector_57" d="M262.533 569.181C262.454 568.794 262.305 568.407 262.304 568.019C262.293 555.738 262.295 543.457 262.3 531.176C262.3 530.976 262.356 530.775 262.487 530.55C262.604 530.581 262.62 530.636 262.615 530.834C262.591 535.835 262.58 540.693 262.586 545.552C262.597 553.325 262.62 561.097 262.614 568.949C262.571 569.079 262.552 569.13 262.533 569.181Z" fill="#D2BB7A"/>
<path id="Vector_58" d="M299.235 470.825C293.404 470.932 287.585 470.936 281.633 470.918C282.005 470.809 282.509 470.649 283.014 470.647C287.836 470.628 292.658 470.595 297.479 470.665C298.698 470.683 299.002 470.246 298.99 468.996C298.934 463.557 298.963 458.118 298.973 452.679C298.974 452.185 299.06 451.692 299.189 451.228C299.269 451.394 299.268 451.529 299.267 451.905C299.28 458.2 299.295 464.254 299.31 470.309C299.289 470.446 299.268 470.584 299.235 470.825Z" fill="#D2BB7A"/>
<path id="Vector_59" d="M280.635 511.121C280.637 510.976 280.756 510.976 280.835 511.12C280.934 517.322 280.955 523.381 280.957 529.541C280.922 529.778 280.905 529.915 280.756 530.059C274.804 530.051 268.984 530.034 263.164 530.018C263.669 529.933 264.174 529.776 264.679 529.774C269.449 529.755 274.22 529.728 278.99 529.787C280.222 529.802 280.668 529.395 280.654 528.032C280.599 522.443 280.632 516.854 280.635 511.121Z" fill="#D2BB7A"/>
<path id="Vector_60" d="M299.16 590.226C299.244 596.307 299.251 602.482 299.115 608.785C293.052 608.89 287.132 608.868 281.211 608.846C281.717 608.764 282.222 608.612 282.728 608.61C287.492 608.591 292.256 608.6 297.021 608.598C298.967 608.597 298.97 608.594 298.971 606.434C298.972 601.621 298.968 596.807 298.976 591.993C298.977 591.436 299.045 590.879 299.16 590.226Z" fill="#D2BB7A"/>
<path id="Vector_61" d="M390.647 510.42C390.695 510.406 390.743 510.391 390.865 510.378C390.94 510.378 390.951 510.527 390.952 510.741C390.955 517.222 390.959 523.49 390.885 529.79C390.662 529.902 390.516 529.983 390.369 529.921C390.461 523.325 390.554 516.873 390.647 510.42Z" fill="#221B02"/>
<path id="Vector_62" d="M409.837 545.947C409.711 547.051 409.587 548.013 409.373 548.928C409.298 542.818 409.312 536.755 409.387 530.691C409.448 530.69 409.569 530.688 409.569 530.688C409.658 535.728 409.748 540.767 409.837 545.947Z" fill="#CCBD86"/>
<path id="Vector_63" d="M263.072 530.043C268.984 530.034 274.804 530.051 280.824 530.12C281.031 530.268 281.046 530.363 281.038 530.455C281.035 530.489 280.977 530.545 280.945 530.545C275.764 530.493 270.583 530.421 265.402 530.395C264.559 530.39 263.716 530.585 262.814 530.689C262.754 530.689 262.636 530.691 262.636 530.691C262.62 530.636 262.604 530.581 262.557 530.446C262.676 530.267 262.828 530.167 263.072 530.043Z" fill="#3E230C"/>
<path id="Vector_64" d="M281.136 608.884C287.132 608.868 293.052 608.89 299.105 608.932C299.244 609.079 299.252 609.207 299.238 609.428C298.713 609.42 298.21 609.231 297.706 609.228C292.918 609.206 288.13 609.206 283.341 609.226C282.688 609.228 282.034 609.373 281.295 609.487C281.209 609.523 281.091 609.524 281.032 609.526C280.957 609.472 280.941 609.416 280.893 609.281C280.928 609.108 280.994 609.015 281.136 608.884Z" fill="#3E230C"/>
<path id="Vector_65" d="M298.999 589.269C298.999 589.269 299.013 589.377 299.015 589.431C293.099 589.472 287.181 589.459 281.241 589.323C281.217 589.2 281.209 589.146 281.304 589.168C281.53 589.174 281.66 589.158 281.922 589.163C287.702 589.213 293.35 589.241 298.999 589.269Z" fill="#D2BB7A"/>
<path id="Vector_66" d="M390.962 529.758C390.959 523.49 390.955 517.222 390.975 510.811C391.074 511.209 391.216 511.75 391.218 512.292C391.235 517.096 391.228 521.899 391.228 526.973C391.228 528.07 391.228 528.897 391.163 529.743C391.097 529.762 390.962 529.758 390.962 529.758Z" fill="#CCBD86"/>
<path id="Vector_67" d="M390.908 490.426C390.905 484.185 390.925 478.017 390.964 471.706C391.059 471.744 391.204 471.925 391.203 472.106C391.189 478.217 391.16 484.328 391.063 490.539C390.972 490.593 390.952 490.546 390.908 490.426Z" fill="#CCBD86"/>
<path id="Vector_68" d="M390.942 510.057C390.832 509.559 390.671 509.072 390.67 508.585C390.656 502.789 390.665 496.993 390.672 491.048C390.676 490.9 390.798 490.924 390.86 490.925C390.935 490.984 390.948 491.042 390.963 491.33C390.981 497.726 390.997 503.892 391.013 510.058C391.013 510.058 390.964 510.069 390.942 510.057Z" fill="#F1E8DD"/>
<path id="Vector_69" d="M391.077 509.952C390.997 503.892 390.981 497.726 390.982 491.417C391.071 491.458 391.207 491.642 391.206 491.826C391.193 497.833 391.166 503.84 391.077 509.952Z" fill="#CCBD86"/>
<path id="Vector_70" d="M392.66 529.761C398.014 529.761 403.368 529.761 408.855 529.828C408.989 529.895 408.986 530.033 408.852 530.047C403.362 530.065 398.006 530.075 392.649 530.06C392.257 530.059 391.864 529.881 391.59 529.779C392.026 529.769 392.343 529.765 392.66 529.761Z" fill="#D2BB7A"/>
<path id="Vector_71" d="M390.55 470.815C385.007 470.906 379.371 470.92 373.602 470.911C373.64 470.81 373.81 470.66 373.979 470.661C379.472 470.678 384.964 470.709 390.55 470.815Z" fill="#D2BB7A"/>
<path id="Vector_72" d="M372.724 469.596C372.637 463.846 372.625 457.998 372.633 452.008C372.728 452.047 372.87 452.228 372.87 452.409C372.854 458.106 372.825 463.802 372.724 469.596Z" fill="#CCBD86"/>
<path id="Vector_73" d="M392.659 529.633C392.343 529.765 392.026 529.769 391.523 529.781C391.337 529.789 391.208 529.83 391.214 529.804C391.221 529.778 391.228 529.724 391.228 529.724C391.228 528.897 391.228 528.071 391.229 527.117C392.997 526.982 392.406 528.52 392.659 529.633Z" fill="#D8BD68"/>
<path id="Vector_74" d="M408.986 530.033C408.986 530.033 408.989 529.895 408.99 529.827C409.227 529.468 409.463 529.177 409.842 528.712C410.037 529.534 411.039 530.107 409.674 530.685C409.569 530.688 409.448 530.69 409.364 530.595C409.183 530.344 409.084 530.189 408.986 530.033Z" fill="#D8BD68"/>
<path id="Vector_75" d="M280.905 588.973C280.889 588.839 280.908 588.788 281.008 588.659C281.089 588.581 281.204 588.582 281.205 588.676C281.207 588.895 281.208 589.021 281.209 589.146C281.209 589.146 281.217 589.2 281.218 589.228C281.126 589.189 281.033 589.123 280.905 588.973Z" fill="#3E230C"/>
<path id="Vector_76" d="M262.568 569.264C262.552 569.13 262.571 569.079 262.671 568.95C262.752 568.872 262.867 568.873 262.868 568.967C262.87 569.186 262.871 569.312 262.872 569.437C262.872 569.437 262.881 569.491 262.882 569.519C262.789 569.48 262.696 569.414 262.568 569.264Z" fill="#3E230C"/>
<path id="face_3" d="M262.968 569.46C262.871 569.312 262.87 569.186 262.869 568.823C262.87 555.952 262.872 543.32 262.873 530.688C263.716 530.585 264.559 530.39 265.402 530.395C270.583 530.421 275.764 530.493 280.945 530.545C280.977 530.545 281.035 530.489 281.038 530.455C281.046 530.363 281.031 530.268 280.957 530.112C280.905 529.915 280.922 529.778 281.028 529.441C281.146 522.947 281.176 516.656 281.206 510.356C281.206 510.347 281.209 510.331 281.343 510.339C286.839 510.352 292.203 510.339 297.565 510.387C298.113 510.392 298.658 510.763 299.228 511.108C299.253 517.487 299.253 523.723 299.253 530.058C305.259 530.058 311.411 530.058 317.698 530.062C323.413 530.069 328.992 530.055 334.57 530.086C335.482 530.092 335.961 529.927 335.951 528.759C335.897 522.61 335.911 516.461 335.904 510.325C335.905 510.338 335.881 510.333 336.018 510.342C341.627 510.353 347.099 510.34 352.571 510.387C353.12 510.391 353.666 510.763 354.214 510.965C354.214 517.299 354.214 523.633 354.214 530.069C360.192 530.069 366.25 530.069 372.576 530.068C378.686 530.066 384.528 530.064 390.37 530.063C390.516 529.983 390.662 529.902 390.885 529.79C390.962 529.758 391.097 529.762 391.163 529.743C391.228 529.724 391.221 529.778 391.223 529.908C391.419 530.167 391.614 530.408 391.809 530.409C396.954 530.414 402.1 530.441 407.245 530.35C408.657 530.324 409.032 530.86 409.013 532.306C408.948 537.478 408.98 542.652 408.997 547.825C408.999 548.366 409.143 548.907 409.221 549.449C409.221 549.449 409.257 549.584 409.265 549.654C409.223 549.745 409.173 549.767 408.915 549.79C403.79 549.786 398.874 549.77 393.957 549.778C387.132 549.788 380.307 549.814 373.481 549.834C373.35 549.822 373.219 549.81 372.89 549.882C372.662 550.526 372.606 551.086 372.606 551.646C372.601 561.344 372.597 571.042 372.605 580.739C372.608 583.457 372.65 586.175 372.674 588.893C372.659 588.945 372.643 588.997 372.541 589.131C372.407 589.227 372.36 589.243 372.182 589.231C366.15 589.205 360.25 589.205 354.28 589.205C354.28 595.791 354.28 602.197 354.207 608.626C354.075 608.738 354.017 608.826 353.959 608.914C353.959 608.914 353.98 608.918 353.983 608.908C341.82 608.898 329.652 608.898 317.519 608.898C317.519 602.331 317.519 595.855 317.519 589.192C311.606 589.192 305.704 589.192 299.576 589.094C293.666 588.965 287.983 588.932 282.299 588.913C282.13 588.913 281.959 589.062 281.789 589.141C281.66 589.158 281.53 589.174 281.304 589.168C281.208 589.021 281.207 588.895 281.206 588.531C281.206 582.775 281.213 577.257 281.196 571.739C281.195 571.199 281.05 570.659 280.971 570.119C280.907 569.924 280.844 569.729 280.604 569.405C274.94 569.249 269.454 569.219 263.967 569.204C263.796 569.204 263.624 569.353 263.453 569.432C263.323 569.449 263.193 569.465 262.968 569.46ZM302.851 569.489C313.299 569.49 323.746 569.472 334.193 569.515C335.466 569.52 335.975 569.173 335.956 567.704C335.888 562.373 335.914 557.039 335.941 551.707C335.948 550.417 335.649 549.748 334.25 549.754C323.039 549.801 311.828 549.794 300.618 549.758C299.55 549.754 299.222 550.098 299.234 551.246C299.285 556.116 299.256 560.988 299.257 565.859C299.257 569.491 299.258 569.491 302.851 569.489Z" fill="#391F22"/>
<path id="Vector_77" d="M427.62 589.191C421.993 589.194 416.365 589.172 410.738 589.221C409.665 589.23 409.234 588.981 409.249 587.701C409.314 582.115 409.305 576.527 409.256 570.94C409.245 569.783 409.58 569.456 410.64 569.466C415.838 569.518 421.037 569.531 426.234 569.459C427.447 569.442 427.641 569.947 427.633 571.078C427.592 577.024 427.613 582.97 427.613 589.057C427.613 589.198 427.62 589.191 427.62 589.191Z" fill="#92A0BA"/>
<path id="Vector_78" d="M427.61 589.202C433.233 589.203 438.861 589.225 444.488 589.177C445.56 589.168 445.994 589.414 445.979 590.698C445.913 596.284 445.921 601.872 445.972 607.458C445.982 608.622 445.639 608.941 444.583 608.931C439.386 608.88 434.187 608.866 428.99 608.939C427.773 608.956 427.588 608.441 427.595 607.318C427.635 601.373 427.615 595.427 427.618 589.336C427.62 589.191 427.613 589.198 427.61 589.202Z" fill="#92A0BA"/>
<path id="Vector_79" d="M372.314 589.257C372.36 589.242 372.407 589.227 372.527 589.212C372.606 589.266 372.611 589.319 372.619 589.592C372.635 595.963 372.649 602.115 372.664 608.268C372.596 608.45 372.528 608.631 372.388 608.874C366.287 608.928 360.259 608.92 354.095 608.913C354.017 608.826 354.075 608.738 354.302 608.587C360.035 608.549 365.599 608.547 371.162 608.621C372.325 608.636 372.326 607.965 372.324 607.068C372.308 601.131 372.314 595.194 372.314 589.257Z" fill="#F1E8DD"/>
<path id="Vector_80" d="M372.76 588.862C372.65 586.175 372.608 583.457 372.605 580.739C372.597 571.042 372.601 561.344 372.606 551.646C372.606 551.086 372.662 550.526 372.792 549.897C372.891 562.135 372.891 574.442 372.888 586.75C372.888 587.444 372.861 588.138 372.76 588.862Z" fill="#6F7186"/>
<path id="Vector_81" d="M373.573 549.91C380.307 549.814 387.132 549.788 393.957 549.778C398.874 549.77 403.79 549.786 408.838 549.814C408.606 549.921 408.244 550.077 407.882 550.077C396.711 550.09 385.539 550.089 374.368 550.084C374.134 550.084 373.899 550.02 373.573 549.91Z" fill="#6F7186"/>
<path id="Vector_82" d="M372.733 608.167C372.649 602.115 372.635 595.963 372.641 589.669C372.733 589.713 372.869 589.898 372.868 590.082C372.854 596.077 372.827 602.072 372.733 608.167Z" fill="#6E7271"/>
<path id="Vector_83" d="M281.922 589.163C281.959 589.062 282.13 588.913 282.299 588.913C287.983 588.932 293.666 588.965 299.443 589.074C299.417 589.178 299.297 589.205 299.088 589.25C293.35 589.241 287.702 589.213 281.922 589.163Z" fill="#3E230C"/>
<path id="Vector_84" d="M409.25 549.38C409.143 548.907 408.999 548.366 408.997 547.825C408.981 542.652 408.948 537.478 409.013 532.306C409.032 530.86 408.657 530.324 407.245 530.349C402.1 530.441 396.954 530.414 391.809 530.409C391.614 530.408 391.419 530.167 391.216 529.934C391.208 529.83 391.337 529.789 391.404 529.787C391.864 529.881 392.257 530.059 392.649 530.06C398.006 530.075 403.362 530.065 408.852 530.047C409.084 530.189 409.183 530.344 409.304 530.596C409.312 536.755 409.298 542.818 409.305 549.024C409.325 549.167 409.279 549.31 409.25 549.38Z" fill="#3E230C"/>
<path id="eye_2" d="M317.562 530.058C311.411 530.058 305.259 530.058 299.253 530.058C299.253 523.723 299.253 517.487 299.249 510.966C299.258 504.009 299.271 497.338 299.283 490.666C311.185 490.662 323.086 490.657 334.988 490.657C335.27 490.657 335.553 490.708 335.884 490.992C335.915 497.61 335.898 503.971 335.881 510.333C335.881 510.333 335.905 510.338 335.772 510.344C329.646 510.349 323.652 510.349 317.562 510.349C317.562 517.039 317.562 523.549 317.562 530.058Z" fill="white"/>
<path id="Vector_85" d="M336.018 510.342C335.898 503.971 335.915 497.61 335.954 491.106C341.992 490.862 348.007 490.762 354.157 490.664C354.281 497.338 354.268 504.009 354.234 510.823C353.666 510.763 353.12 510.391 352.571 510.387C347.099 510.34 341.627 510.353 336.018 510.342Z" fill="#0E061A"/>
<path id="Vector_86" d="M299.147 490.664C299.271 497.338 299.258 504.009 299.225 510.823C298.658 510.763 298.113 510.392 297.565 510.387C292.203 510.339 286.839 510.352 281.342 510.199C281.207 503.59 281.206 497.13 281.205 490.671C281.205 490.671 281.208 490.663 281.211 490.659C287.146 490.658 293.079 490.66 299.147 490.664Z" fill="#0E061A"/>
<path id="Vector_87" d="M299.381 470.209C299.295 464.254 299.28 458.2 299.286 452.004C299.307 451.863 299.424 451.857 299.483 451.856C299.512 457.939 299.482 464.024 299.381 470.209Z" fill="#3A2200"/>
<path id="irish_3" d="M390.369 529.921C384.528 530.064 378.686 530.066 372.708 530.062C372.572 523.527 372.572 516.997 372.572 510.366C378.611 510.366 384.497 510.366 390.515 510.393C390.554 516.873 390.461 523.325 390.369 529.921Z" fill="#131313"/>
<path id="Vector_88" d="M281.148 490.668C281.207 497.13 281.208 503.59 281.209 510.19C281.209 510.331 281.206 510.347 281.148 510.35C281.089 510.353 280.971 510.344 280.971 510.344C280.959 503.879 280.947 497.413 280.955 490.806C280.976 490.664 281.091 490.665 281.148 490.668Z" fill="#0B0200"/>
<path id="Vector_89" d="M280.95 510.449C280.971 510.344 281.089 510.353 281.147 510.358C281.176 516.656 281.146 522.947 281.046 529.339C280.955 523.381 280.934 517.322 280.894 511.119C280.893 510.835 280.911 510.694 280.95 510.449Z" fill="#3A2200"/>
<path id="Vector_90" d="M280.951 570.261C281.05 570.659 281.195 571.199 281.196 571.739C281.213 577.257 281.206 582.775 281.205 588.437C281.204 588.582 281.089 588.581 281.032 588.58C280.959 582.52 280.945 576.461 280.951 570.261Z" fill="#3A2200"/>
<path id="Vector_91" d="M263.585 569.454C263.624 569.353 263.796 569.204 263.967 569.204C269.454 569.219 274.94 569.249 280.52 569.351C274.981 569.443 269.349 569.459 263.585 569.454Z" fill="#3E230C"/>
<path id="Vector_92" d="M262.814 530.689C262.872 543.32 262.87 555.952 262.868 568.728C262.867 568.873 262.752 568.872 262.695 568.871C262.62 561.097 262.597 553.325 262.586 545.552C262.58 540.693 262.591 535.835 262.615 530.834C262.636 530.691 262.754 530.689 262.814 530.689Z" fill="#3A2200"/>
<path id="Vector_93" d="M302.711 569.489C299.258 569.491 299.257 569.491 299.257 565.859C299.256 560.988 299.285 556.116 299.234 551.246C299.222 550.098 299.55 549.754 300.618 549.758C311.828 549.794 323.039 549.801 334.25 549.754C335.649 549.748 335.948 550.417 335.941 551.707C335.914 557.039 335.888 562.373 335.956 567.704C335.975 569.173 335.466 569.52 334.193 569.515C323.746 569.472 313.299 569.49 302.711 569.489Z" fill="#571C28"/>
<path id="irish_4" d="M317.699 530.062C317.562 523.549 317.562 517.039 317.562 510.349C323.652 510.349 329.646 510.349 335.771 510.33C335.911 516.461 335.897 522.61 335.951 528.759C335.961 529.927 335.482 530.092 334.57 530.086C328.992 530.055 323.413 530.069 317.699 530.062Z" fill="#131313"/>
<path id="Vector_94" d="M372.182 589.231C372.314 595.194 372.308 601.131 372.324 607.068C372.326 607.965 372.325 608.636 371.162 608.621C365.599 608.547 360.035 608.549 354.376 608.563C354.28 602.197 354.28 595.791 354.28 589.205C360.25 589.205 366.15 589.205 372.182 589.231Z" fill="#F8E6CE"/>
</g>
</g>
<defs>
<clipPath id="clip0_19_354">
<rect width="303" height="304" fill="white" transform="translate(335)"/>
</clipPath>
<clipPath id="clip1_19_354">
<rect width="257" height="275" fill="white" transform="translate(207 353)"/>
</clipPath>
</defs>
</svg>
